<?xml version="1.0" standalone="no"?>
<!DOCTYPE svg PUBLIC "-//W3C//DTD SVG 1.1//EN" "http://www.w3.org/Graphics/SVG/1.1/DTD/svg11.dtd" >
<svg>
<metadata>
Created by FontForge 20120731 at Thu Nov 16 22:01:33 2017
 By www-data
(c) Copyright The Font Bureau, Inc. 2014. All rights reserved.
</metadata>
<defs>
<font id="InputMono-ExtraLight" horiz-adv-x="700" >
  <font-face 
    font-family="InputMono ExLight"
    font-weight="275"
    font-stretch="normal"
    units-per-em="1100"
    panose-1="2 0 4 9 2 0 0 9 0 4"
    ascent="850"
    descent="-250"
    x-height="600"
    bbox="-218 -450 894 1400"
    underline-thickness="0"
    underline-position="0"
    unicode-range="U+000D-1F41B"
  />
<missing-glyph 
d="M50 -250v1100h600v-1100h-600zM120 -180h460v960h-460v-960z" />
    <glyph glyph-name=".notdef" 
d="M50 -250v1100h600v-1100h-600zM120 -180h460v960h-460v-960z" />
    <glyph glyph-name="NULL" horiz-adv-x="0" 
 />
    <glyph glyph-name="nonmarkingreturn" unicode="&#xd;" horiz-adv-x="0" 
 />
    <glyph glyph-name="space" unicode="&#xa0;" 
 />
    <glyph glyph-name="space" unicode=" " 
 />
    <glyph glyph-name="A" unicode="A" 
d="M475 305l-126 402l-127 -402h253zM570 0l-76 242h-291l-76 -242h-72l264 800h63l264 -800h-76z" />
    <glyph glyph-name="Agrave" unicode="&#xc0;" 
d="M55 0zM475 305l-126 402l-127 -402h253zM570 0l-76 242h-291l-76 -242h-72l264 800h63l264 -800h-76zM367 900l-189 200h108l142 -200h-61z" />
    <glyph glyph-name="Aacute" unicode="&#xc1;" 
d="M55 0zM475 305l-126 402l-127 -402h253zM570 0l-76 242h-291l-76 -242h-72l264 800h63l264 -800h-76zM265 900l142 200h108l-189 -200h-61z" />
    <glyph glyph-name="Acircumflex" unicode="&#xc2;" 
d="M55 0zM475 305l-126 402l-127 -402h253zM570 0l-76 242h-291l-76 -242h-72l264 800h63l264 -800h-76zM180 915l-27 42l173 160h48l175 -160l-28 -42l-171 135z" />
    <glyph glyph-name="Atilde" unicode="&#xc3;" 
d="M55 0zM475 305l-126 402l-127 -402h253zM570 0l-76 242h-291l-76 -242h-72l264 800h63l264 -800h-76zM435 910q-34 0 -57 18.5t-48 58.5q-19 33 -34 49t-32 16q-26 0 -40 -27.5t-12 -93.5v-11h-56v15q0 82 28.5 128.5t82.5 46.5q36 0 59 -18.5t45 -55.5q22 -34 36.5 -51
t30.5 -17q25 0 38.5 27.5t13.5 93.5v11h56v-15q0 -82 -28.5 -128.5t-82.5 -46.5z" />
    <glyph glyph-name="Adieresis" unicode="&#xc4;" 
d="M55 0zM475 305l-126 402l-127 -402h253zM570 0l-76 242h-291l-76 -242h-72l264 800h63l264 -800h-76zM242 922q-24 0 -38.5 9.5t-14.5 35.5v7q0 27 14.5 37t38.5 10t38.5 -10t14.5 -37v-7q0 -26 -15 -35.5t-38 -9.5zM460 922q-24 0 -38.5 9.5t-14.5 35.5v7q0 27 14.5 37
t38.5 10t38.5 -10t14.5 -37v-7q0 -26 -15 -35.5t-38 -9.5z" />
    <glyph glyph-name="Aring" unicode="&#xc5;" 
d="M55 0zM475 305l-126 402l-127 -402h253zM570 0l-76 242h-291l-76 -242h-72l264 800h63l264 -800h-76zM351 885q-69 0 -108.5 36.5t-39.5 108.5v32q0 73 39.5 110.5t108.5 37.5t108.5 -37.5t39.5 -110.5v-32q0 -72 -39.5 -108.5t-108.5 -36.5zM351 938q46 0 67 21.5
t21 70.5v32q0 49 -21 72t-67 23t-67 -23t-21 -72v-32q0 -49 21 -70.5t67 -21.5z" />
    <glyph glyph-name="Amacron" unicode="&#x100;" 
d="M55 0zM475 305l-126 402l-127 -402h253zM570 0l-76 242h-291l-76 -242h-72l264 800h63l264 -800h-76zM166 970v63h370v-63h-370z" />
    <glyph glyph-name="Abreve" unicode="&#x102;" 
d="M55 0zM475 305l-126 402l-127 -402h253zM570 0l-76 242h-291l-76 -242h-72l264 800h63l264 -800h-76zM351 893q-98 0 -155.5 51.5t-58.5 158.5h70q2 -81 36.5 -116t107.5 -35t107.5 35t36.5 116h70q-1 -107 -58.5 -158.5t-155.5 -51.5z" />
    <glyph glyph-name="Aogonek" unicode="&#x104;" 
d="M55 0zM475 305l-126 402l-127 -402h253zM570 0l-76 242h-291l-76 -242h-72l264 800h63l264 -800h-76zM622 -215q-60 0 -99.5 30.5t-39.5 82.5q0 46 34.5 83.5t85.5 57.5l18 -16q-38 -23 -55 -50t-17 -56q0 -35 20 -52t61 -17q19 0 40.5 2.5t39.5 6.5v-63q-19 -4 -44 -6.5
t-44 -2.5z" />
    <glyph glyph-name="Aringacute" unicode="&#x1fa;" 
d="M55 0zM475 305l-126 402l-127 -402h253zM570 0l-76 242h-291l-76 -242h-72l264 800h63l264 -800h-76zM351 885q-69 0 -108.5 36.5t-39.5 108.5v32q0 73 39.5 110.5t108.5 37.5t108.5 -37.5t39.5 -110.5v-32q0 -72 -39.5 -108.5t-108.5 -36.5zM351 938q46 0 67 21.5
t21 70.5v32q0 49 -21 72t-67 23t-67 -23t-21 -72v-32q0 -49 21 -70.5t67 -21.5zM324 1200l142 200h108l-189 -200h-61z" />
    <glyph glyph-name="B" unicode="B" 
d="M115 0v800h239q110 0 166.5 -47.5t56.5 -140.5v-45q0 -53 -29.5 -89.5t-79.5 -45.5v-17q64 -6 102.5 -51.5t38.5 -114.5v-45q0 -101 -60.5 -152.5t-179.5 -51.5h-254zM185 449h173q81 0 116 29.5t35 98.5v28q0 70 -35 101t-116 31h-173v-288zM185 63h193q86 0 123.5 34
t37.5 112v32q0 78 -37.5 111.5t-123.5 33.5h-193v-323z" />
    <glyph glyph-name="C" unicode="C" 
d="M360 -10q-131 0 -198 71.5t-67 209.5v254q0 140 67.5 212.5t198.5 72.5q125 0 190 -61.5t72 -194.5l-70 -7q-10 112 -52 156t-141 44q-105 0 -150 -52.5t-45 -175.5v-242q0 -121 45 -172.5t150 -51.5q101 0 145 44.5t48 151.5l70 -7q-3 -127 -68.5 -189.5t-194.5 -62.5z
" />
    <glyph glyph-name="Ccedilla" unicode="&#xc7;" 
d="M95 0zM360 -10q-131 0 -198 71.5t-67 209.5v254q0 140 67.5 212.5t198.5 72.5q125 0 190 -61.5t72 -194.5l-70 -7q-10 112 -52 156t-141 44q-105 0 -150 -52.5t-45 -175.5v-242q0 -121 45 -172.5t150 -51.5q101 0 145 44.5t48 151.5l70 -7q-3 -127 -68.5 -189.5
t-194.5 -62.5zM330 0l14 30q54 -10 89 -41t35 -86q0 -58 -39.5 -88.5t-100.5 -30.5q-60 0 -98.5 25t-42.5 84l64 6q4 -31 20 -44t52 -13q42 0 60.5 15t18.5 54q0 38 -16.5 58t-55.5 31z" />
    <glyph glyph-name="Cacute" unicode="&#x106;" 
d="M95 0zM360 -10q-131 0 -198 71.5t-67 209.5v254q0 140 67.5 212.5t198.5 72.5q125 0 190 -61.5t72 -194.5l-70 -7q-10 112 -52 156t-141 44q-105 0 -150 -52.5t-45 -175.5v-242q0 -121 45 -172.5t150 -51.5q101 0 145 44.5t48 151.5l70 -7q-3 -127 -68.5 -189.5
t-194.5 -62.5zM314 900l142 200h108l-189 -200h-61z" />
    <glyph glyph-name="Ccircumflex" unicode="&#x108;" 
d="M95 0zM360 -10q-131 0 -198 71.5t-67 209.5v254q0 140 67.5 212.5t198.5 72.5q125 0 190 -61.5t72 -194.5l-70 -7q-10 112 -52 156t-141 44q-105 0 -150 -52.5t-45 -175.5v-242q0 -121 45 -172.5t150 -51.5q101 0 145 44.5t48 151.5l70 -7q-3 -127 -68.5 -189.5
t-194.5 -62.5zM189 915l-27 42l173 160h48l175 -160l-28 -42l-171 135z" />
    <glyph glyph-name="Cdotaccent" unicode="&#x10a;" 
d="M95 0zM360 -10q-131 0 -198 71.5t-67 209.5v254q0 140 67.5 212.5t198.5 72.5q125 0 190 -61.5t72 -194.5l-70 -7q-10 112 -52 156t-141 44q-105 0 -150 -52.5t-45 -175.5v-242q0 -121 45 -172.5t150 -51.5q101 0 145 44.5t48 151.5l70 -7q-3 -127 -68.5 -189.5
t-194.5 -62.5zM360 922q-28 0 -46 9.5t-18 35.5v7q0 27 18 37t46 10t46 -10t18 -37v-7q0 -26 -18 -35.5t-46 -9.5z" />
    <glyph glyph-name="Ccaron" unicode="&#x10c;" 
d="M95 0zM360 -10q-131 0 -198 71.5t-67 209.5v254q0 140 67.5 212.5t198.5 72.5q125 0 190 -61.5t72 -194.5l-70 -7q-10 112 -52 156t-141 44q-105 0 -150 -52.5t-45 -175.5v-242q0 -121 45 -172.5t150 -51.5q101 0 145 44.5t48 151.5l70 -7q-3 -127 -68.5 -189.5
t-194.5 -62.5zM336 904l-174 160l27 42l171 -135l170 135l28 -42l-174 -160h-48z" />
    <glyph glyph-name="D" unicode="D" 
d="M115 0v800h206q133 0 208.5 -79.5t75.5 -211.5v-222q0 -131 -75.5 -209t-209.5 -78h-205zM185 63h135q109 0 162 62t53 162v222q0 99 -53 163.5t-162 64.5h-135v-674z" />
    <glyph glyph-name="Dcaron" unicode="&#x10e;" 
d="M115 0zM115 0v800h206q133 0 208.5 -79.5t75.5 -211.5v-222q0 -131 -75.5 -209t-209.5 -78h-205zM185 63h135q109 0 162 62t53 162v222q0 99 -53 163.5t-162 64.5h-135v-674zM326 904l-174 160l27 42l171 -135l170 135l28 -42l-174 -160h-48z" />
    <glyph glyph-name="E" unicode="E" 
d="M115 0v800h490v-63h-420v-269h370v-63h-370v-342h420v-63h-490z" />
    <glyph glyph-name="Egrave" unicode="&#xc8;" 
d="M115 0zM115 0v800h490v-63h-420v-269h370v-63h-370v-342h420v-63h-490zM376 900l-189 200h108l142 -200h-61z" />
    <glyph glyph-name="Eacute" unicode="&#xc9;" 
d="M115 0zM115 0v800h490v-63h-420v-269h370v-63h-370v-342h420v-63h-490zM294 900l142 200h108l-189 -200h-61z" />
    <glyph glyph-name="Ecircumflex" unicode="&#xca;" 
d="M115 0zM115 0v800h490v-63h-420v-269h370v-63h-370v-342h420v-63h-490zM199 915l-27 42l173 160h48l175 -160l-28 -42l-171 135z" />
    <glyph glyph-name="Edieresis" unicode="&#xcb;" 
d="M115 0zM115 0v800h490v-63h-420v-269h370v-63h-370v-342h420v-63h-490zM261 922q-24 0 -38.5 9.5t-14.5 35.5v7q0 27 14.5 37t38.5 10t38.5 -10t14.5 -37v-7q0 -26 -15 -35.5t-38 -9.5zM479 922q-24 0 -38.5 9.5t-14.5 35.5v7q0 27 14.5 37t38.5 10t38.5 -10t14.5 -37v-7
q0 -26 -15 -35.5t-38 -9.5z" />
    <glyph glyph-name="Emacron" unicode="&#x112;" 
d="M115 0zM115 0v800h490v-63h-420v-269h370v-63h-370v-342h420v-63h-490zM185 970v63h370v-63h-370z" />
    <glyph glyph-name="Ebreve" unicode="&#x114;" 
d="M115 0zM115 0v800h490v-63h-420v-269h370v-63h-370v-342h420v-63h-490zM370 893q-98 0 -155.5 51.5t-58.5 158.5h70q2 -81 36.5 -116t107.5 -35t107.5 35t36.5 116h70q-1 -107 -58.5 -158.5t-155.5 -51.5z" />
    <glyph glyph-name="Edotaccent" unicode="&#x116;" 
d="M115 0zM115 0v800h490v-63h-420v-269h370v-63h-370v-342h420v-63h-490zM370 922q-28 0 -46 9.5t-18 35.5v7q0 27 18 37t46 10t46 -10t18 -37v-7q0 -26 -18 -35.5t-46 -9.5z" />
    <glyph glyph-name="Eogonek" unicode="&#x118;" 
d="M115 0zM115 0v800h490v-63h-420v-269h370v-63h-370v-342h420v-63h-490zM520 -215q-60 0 -99.5 30.5t-39.5 82.5q0 46 34.5 83.5t85.5 57.5l18 -16q-38 -23 -55 -50t-17 -56q0 -35 20 -52t61 -17q19 0 40.5 2.5t39.5 6.5v-63q-19 -4 -44 -6.5t-44 -2.5z" />
    <glyph glyph-name="Ecaron" unicode="&#x11a;" 
d="M115 0zM115 0v800h490v-63h-420v-269h370v-63h-370v-342h420v-63h-490zM356 904l-174 160l27 42l171 -135l170 135l28 -42l-174 -160h-48z" />
    <glyph glyph-name="F" unicode="F" 
d="M115 0v800h490v-63h-420v-352h350v-63h-350v-322h-70z" />
    <glyph glyph-name="G" unicode="G" 
d="M370 -10q-134 0 -204.5 73.5t-70.5 213.5v242q0 141 68.5 216t197.5 75q120 0 178.5 -56.5t65.5 -180.5l-70 -8q-9 104 -46.5 143t-128.5 39q-103 0 -149 -53.5t-46 -174.5v-242q0 -119 48.5 -171.5t156.5 -52.5q101 0 143 60.5t42 206.5h-205v63h275v-70
q0 -163 -63 -243t-192 -80z" />
    <glyph glyph-name="Gcircumflex" unicode="&#x11c;" 
d="M95 0zM370 -10q-134 0 -204.5 73.5t-70.5 213.5v242q0 141 68.5 216t197.5 75q120 0 178.5 -56.5t65.5 -180.5l-70 -8q-9 104 -46.5 143t-128.5 39q-103 0 -149 -53.5t-46 -174.5v-242q0 -119 48.5 -171.5t156.5 -52.5q101 0 143 60.5t42 206.5h-205v63h275v-70
q0 -163 -63 -243t-192 -80zM199 915l-27 42l173 160h48l175 -160l-28 -42l-171 135z" />
    <glyph glyph-name="Gbreve" unicode="&#x11e;" 
d="M95 0zM370 -10q-134 0 -204.5 73.5t-70.5 213.5v242q0 141 68.5 216t197.5 75q120 0 178.5 -56.5t65.5 -180.5l-70 -8q-9 104 -46.5 143t-128.5 39q-103 0 -149 -53.5t-46 -174.5v-242q0 -119 48.5 -171.5t156.5 -52.5q101 0 143 60.5t42 206.5h-205v63h275v-70
q0 -163 -63 -243t-192 -80zM370 893q-98 0 -155.5 51.5t-58.5 158.5h70q2 -81 36.5 -116t107.5 -35t107.5 35t36.5 116h70q-1 -107 -58.5 -158.5t-155.5 -51.5z" />
    <glyph glyph-name="Gdotaccent" unicode="&#x120;" 
d="M95 0zM370 -10q-134 0 -204.5 73.5t-70.5 213.5v242q0 141 68.5 216t197.5 75q120 0 178.5 -56.5t65.5 -180.5l-70 -8q-9 104 -46.5 143t-128.5 39q-103 0 -149 -53.5t-46 -174.5v-242q0 -119 48.5 -171.5t156.5 -52.5q101 0 143 60.5t42 206.5h-205v63h275v-70
q0 -163 -63 -243t-192 -80zM360 922q-28 0 -46 9.5t-18 35.5v7q0 27 18 37t46 10t46 -10t18 -37v-7q0 -26 -18 -35.5t-46 -9.5z" />
    <glyph glyph-name="Gcommaaccent" unicode="&#x122;" 
d="M95 0zM370 -10q-134 0 -204.5 73.5t-70.5 213.5v242q0 141 68.5 216t197.5 75q120 0 178.5 -56.5t65.5 -180.5l-70 -8q-9 104 -46.5 143t-128.5 39q-103 0 -149 -53.5t-46 -174.5v-242q0 -119 48.5 -171.5t156.5 -52.5q101 0 143 60.5t42 206.5h-205v63h275v-70
q0 -163 -63 -243t-192 -80zM238 -300l96 200h108l-143 -200h-61z" />
    <glyph glyph-name="H" unicode="H" 
d="M115 0v800h70v-332h330v332h70v-800h-70v405h-330v-405h-70z" />
    <glyph glyph-name="Hcircumflex" unicode="&#x124;" 
d="M115 0zM115 0v800h70v-332h330v332h70v-800h-70v405h-330v-405h-70zM179 915l-27 42l173 160h48l175 -160l-28 -42l-171 135z" />
    <glyph glyph-name="I" unicode="I" 
d="M115 0v63h200v674h-200v63h470v-63h-200v-674h200v-63h-470z" />
    <glyph glyph-name="Igrave" unicode="&#xcc;" 
d="M115 0zM115 0v63h200v674h-200v63h470v-63h-200v-674h200v-63h-470zM366 900l-189 200h108l142 -200h-61z" />
    <glyph glyph-name="Iacute" unicode="&#xcd;" 
d="M115 0zM115 0v63h200v674h-200v63h470v-63h-200v-674h200v-63h-470zM264 900l142 200h108l-189 -200h-61z" />
    <glyph glyph-name="Icircumflex" unicode="&#xce;" 
d="M115 0zM115 0v63h200v674h-200v63h470v-63h-200v-674h200v-63h-470zM179 915l-27 42l173 160h48l175 -160l-28 -42l-171 135z" />
    <glyph glyph-name="Idieresis" unicode="&#xcf;" 
d="M115 0zM115 0v63h200v674h-200v63h470v-63h-200v-674h200v-63h-470zM241 922q-24 0 -38.5 9.5t-14.5 35.5v7q0 27 14.5 37t38.5 10t38.5 -10t14.5 -37v-7q0 -26 -15 -35.5t-38 -9.5zM459 922q-24 0 -38.5 9.5t-14.5 35.5v7q0 27 14.5 37t38.5 10t38.5 -10t14.5 -37v-7
q0 -26 -15 -35.5t-38 -9.5z" />
    <glyph glyph-name="Itilde" unicode="&#x128;" 
d="M115 0zM115 0v63h200v674h-200v63h470v-63h-200v-674h200v-63h-470zM434 910q-34 0 -57 18.5t-48 58.5q-19 33 -34 49t-32 16q-26 0 -40 -27.5t-12 -93.5v-11h-56v15q0 82 28.5 128.5t82.5 46.5q36 0 59 -18.5t45 -55.5q22 -34 36.5 -51t30.5 -17q25 0 38.5 27.5
t13.5 93.5v11h56v-15q0 -82 -28.5 -128.5t-82.5 -46.5z" />
    <glyph glyph-name="Imacron" unicode="&#x12a;" 
d="M115 0zM115 0v63h200v674h-200v63h470v-63h-200v-674h200v-63h-470zM165 970v63h370v-63h-370z" />
    <glyph glyph-name="Ibreve" unicode="&#x12c;" 
d="M115 0zM115 0v63h200v674h-200v63h470v-63h-200v-674h200v-63h-470zM350 893q-98 0 -155.5 51.5t-58.5 158.5h70q2 -81 36.5 -116t107.5 -35t107.5 35t36.5 116h70q-1 -107 -58.5 -158.5t-155.5 -51.5z" />
    <glyph glyph-name="Iogonek" unicode="&#x12e;" 
d="M115 0zM115 0v63h200v674h-200v63h470v-63h-200v-674h200v-63h-470zM425 -215q-60 0 -99.5 30.5t-39.5 82.5q0 46 34.5 83.5t85.5 57.5l18 -16q-38 -23 -55 -50t-17 -56q0 -35 20 -52t61 -17q19 0 40.5 2.5t39.5 6.5v-63q-19 -4 -44 -6.5t-44 -2.5z" />
    <glyph glyph-name="Idotaccent" unicode="&#x130;" 
d="M115 0zM115 0v63h200v674h-200v63h470v-63h-200v-674h200v-63h-470zM350 922q-28 0 -46 9.5t-18 35.5v7q0 27 18 37t46 10t46 -10t18 -37v-7q0 -26 -18 -35.5t-46 -9.5z" />
    <glyph glyph-name="J" unicode="J" 
d="M329 -10q-125 0 -186.5 61.5t-67.5 192.5l70 8q8 -113 47.5 -156t135.5 -43q98 0 142.5 49.5t44.5 156.5v478h-215v63h285v-540q0 -134 -64.5 -202t-191.5 -68z" />
    <glyph glyph-name="Jcircumflex" unicode="&#x134;" 
d="M75 0zM329 -10q-125 0 -186.5 61.5t-67.5 192.5l70 8q8 -113 47.5 -156t135.5 -43q98 0 142.5 49.5t44.5 156.5v478h-215v63h285v-540q0 -134 -64.5 -202t-191.5 -68zM269 915l-27 42l173 160h48l175 -160l-28 -42l-171 135z" />
    <glyph glyph-name="K" unicode="K" 
d="M185 392v-392h-70v800h70v-345h64l309 345h86l-333 -370l330 -430h-86l-299 392h-71z" />
    <glyph glyph-name="Kcommaaccent" unicode="&#x136;" 
d="M115 0zM185 392v-392h-70v800h70v-345h64l309 345h86l-333 -370l330 -430h-86l-299 392h-71zM228 -300l96 200h108l-143 -200h-61z" />
    <glyph glyph-name="L" unicode="L" 
d="M165 0v800h70v-737h350v-63h-420z" />
    <glyph glyph-name="Lacute" unicode="&#x139;" 
d="M165 0zM165 0v800h70v-737h350v-63h-420zM214 900l142 200h108l-189 -200h-61z" />
    <glyph glyph-name="Lcommaaccent" unicode="&#x13b;" 
d="M165 0zM165 0v800h70v-737h350v-63h-420zM243 -300l96 200h108l-143 -200h-61z" />
    <glyph glyph-name="Lcaron" unicode="&#x13d;" 
d="M165 0zM165 0v800h70v-737h350v-63h-420zM404 535l81 265h99l-126 -265h-54z" />
    <glyph glyph-name="M" unicode="M" 
d="M315 200l-167 486v-686h-66v800h94l176 -521l175 521h91v-800h-66v685l-167 -485h-70z" />
    <glyph glyph-name="N" unicode="N" 
d="M493 0l-313 690v-690h-65v800h86l319 -705v705h65v-800h-92z" />
    <glyph glyph-name="Ntilde" unicode="&#xd1;" 
d="M115 0zM493 0l-313 690v-690h-65v800h86l319 -705v705h65v-800h-92zM454 910q-34 0 -57 18.5t-48 58.5q-19 33 -34 49t-32 16q-26 0 -40 -27.5t-12 -93.5v-11h-56v15q0 82 28.5 128.5t82.5 46.5q36 0 59 -18.5t45 -55.5q22 -34 36.5 -51t30.5 -17q25 0 38.5 27.5
t13.5 93.5v11h56v-15q0 -82 -28.5 -128.5t-82.5 -46.5z" />
    <glyph glyph-name="Nacute" unicode="&#x143;" 
d="M115 0zM493 0l-313 690v-690h-65v800h86l319 -705v705h65v-800h-92zM284 900l142 200h108l-189 -200h-61z" />
    <glyph glyph-name="Ncommaaccent" unicode="&#x145;" 
d="M115 0zM493 0l-313 690v-690h-65v800h86l319 -705v705h65v-800h-92zM208 -300l96 200h108l-143 -200h-61z" />
    <glyph glyph-name="Ncaron" unicode="&#x147;" 
d="M115 0zM493 0l-313 690v-690h-65v800h86l319 -705v705h65v-800h-92zM346 904l-174 160l27 42l171 -135l170 135l28 -42l-174 -160h-48z" />
    <glyph glyph-name="O" unicode="O" 
d="M350 -10q-126 0 -190.5 71.5t-64.5 215.5v242q0 146 65 218.5t191 72.5q125 0 189.5 -72.5t64.5 -218.5v-242q0 -144 -64.5 -215.5t-190.5 -71.5zM350 53q99 0 142 52.5t43 171.5v242q0 122 -43 175t-142 53t-142 -53t-43 -175v-242q0 -119 43 -171.5t142 -52.5z" />
    <glyph glyph-name="Ograve" unicode="&#xd2;" 
d="M95 0zM350 -10q-126 0 -190.5 71.5t-64.5 215.5v242q0 146 65 218.5t191 72.5q125 0 189.5 -72.5t64.5 -218.5v-242q0 -144 -64.5 -215.5t-190.5 -71.5zM350 53q99 0 142 52.5t43 171.5v242q0 122 -43 175t-142 53t-142 -53t-43 -175v-242q0 -119 43 -171.5t142 -52.5z
M366 900l-189 200h108l142 -200h-61z" />
    <glyph glyph-name="Oacute" unicode="&#xd3;" 
d="M95 0zM350 -10q-126 0 -190.5 71.5t-64.5 215.5v242q0 146 65 218.5t191 72.5q125 0 189.5 -72.5t64.5 -218.5v-242q0 -144 -64.5 -215.5t-190.5 -71.5zM350 53q99 0 142 52.5t43 171.5v242q0 122 -43 175t-142 53t-142 -53t-43 -175v-242q0 -119 43 -171.5t142 -52.5z
M304 900l142 200h108l-189 -200h-61z" />
    <glyph glyph-name="Ocircumflex" unicode="&#xd4;" 
d="M95 0zM350 -10q-126 0 -190.5 71.5t-64.5 215.5v242q0 146 65 218.5t191 72.5q125 0 189.5 -72.5t64.5 -218.5v-242q0 -144 -64.5 -215.5t-190.5 -71.5zM350 53q99 0 142 52.5t43 171.5v242q0 122 -43 175t-142 53t-142 -53t-43 -175v-242q0 -119 43 -171.5t142 -52.5z
M179 915l-27 42l173 160h48l175 -160l-28 -42l-171 135z" />
    <glyph glyph-name="Otilde" unicode="&#xd5;" 
d="M95 0zM350 -10q-126 0 -190.5 71.5t-64.5 215.5v242q0 146 65 218.5t191 72.5q125 0 189.5 -72.5t64.5 -218.5v-242q0 -144 -64.5 -215.5t-190.5 -71.5zM350 53q99 0 142 52.5t43 171.5v242q0 122 -43 175t-142 53t-142 -53t-43 -175v-242q0 -119 43 -171.5t142 -52.5z
M434 910q-34 0 -57 18.5t-48 58.5q-19 33 -34 49t-32 16q-26 0 -40 -27.5t-12 -93.5v-11h-56v15q0 82 28.5 128.5t82.5 46.5q36 0 59 -18.5t45 -55.5q22 -34 36.5 -51t30.5 -17q25 0 38.5 27.5t13.5 93.5v11h56v-15q0 -82 -28.5 -128.5t-82.5 -46.5z" />
    <glyph glyph-name="Odieresis" unicode="&#xd6;" 
d="M95 0zM350 -10q-126 0 -190.5 71.5t-64.5 215.5v242q0 146 65 218.5t191 72.5q125 0 189.5 -72.5t64.5 -218.5v-242q0 -144 -64.5 -215.5t-190.5 -71.5zM350 53q99 0 142 52.5t43 171.5v242q0 122 -43 175t-142 53t-142 -53t-43 -175v-242q0 -119 43 -171.5t142 -52.5z
M241 922q-24 0 -38.5 9.5t-14.5 35.5v7q0 27 14.5 37t38.5 10t38.5 -10t14.5 -37v-7q0 -26 -15 -35.5t-38 -9.5zM459 922q-24 0 -38.5 9.5t-14.5 35.5v7q0 27 14.5 37t38.5 10t38.5 -10t14.5 -37v-7q0 -26 -15 -35.5t-38 -9.5z" />
    <glyph glyph-name="Omacron" unicode="&#x14c;" 
d="M95 0zM350 -10q-126 0 -190.5 71.5t-64.5 215.5v242q0 146 65 218.5t191 72.5q125 0 189.5 -72.5t64.5 -218.5v-242q0 -144 -64.5 -215.5t-190.5 -71.5zM350 53q99 0 142 52.5t43 171.5v242q0 122 -43 175t-142 53t-142 -53t-43 -175v-242q0 -119 43 -171.5t142 -52.5z
M165 970v63h370v-63h-370z" />
    <glyph glyph-name="Obreve" unicode="&#x14e;" 
d="M95 0zM350 -10q-126 0 -190.5 71.5t-64.5 215.5v242q0 146 65 218.5t191 72.5q125 0 189.5 -72.5t64.5 -218.5v-242q0 -144 -64.5 -215.5t-190.5 -71.5zM350 53q99 0 142 52.5t43 171.5v242q0 122 -43 175t-142 53t-142 -53t-43 -175v-242q0 -119 43 -171.5t142 -52.5z
M350 893q-98 0 -155.5 51.5t-58.5 158.5h70q2 -81 36.5 -116t107.5 -35t107.5 35t36.5 116h70q-1 -107 -58.5 -158.5t-155.5 -51.5z" />
    <glyph glyph-name="Ohungarumlaut" unicode="&#x150;" 
d="M95 0zM350 -10q-126 0 -190.5 71.5t-64.5 215.5v242q0 146 65 218.5t191 72.5q125 0 189.5 -72.5t64.5 -218.5v-242q0 -144 -64.5 -215.5t-190.5 -71.5zM350 53q99 0 142 52.5t43 171.5v242q0 122 -43 175t-142 53t-142 -53t-43 -175v-242q0 -119 43 -171.5t142 -52.5z
M406 900l56 200h110l-113 -200h-53zM200 900l56 200h110l-113 -200h-53z" />
    <glyph glyph-name="P" unicode="P" 
d="M115 0v800h266q116 0 175 -53.5t59 -157.5v-98q0 -104 -59.5 -157.5t-175.5 -53.5h-195v-280h-70zM185 342h195q89 0 127 35t38 116v92q0 81 -38 116.5t-127 35.5h-195v-395z" />
    <glyph glyph-name="Q" unicode="Q" 
d="M632 -191q-139 -30 -214 16t-78 165q-122 3 -183.5 75.5t-61.5 211.5v242q0 144 64.5 217.5t191.5 73.5q125 0 189.5 -73.5t64.5 -217.5v-242q0 -125 -49.5 -196.5t-145.5 -85.5q2 -91 54.5 -117.5t156.5 -6.5zM350 57q99 0 142 51.5t43 168.5v242q0 119 -43 171.5
t-142 52.5t-142 -52.5t-43 -171.5v-242q0 -117 43 -168.5t142 -51.5z" />
    <glyph glyph-name="R" unicode="R" 
d="M185 375h215q88 0 126.5 35t38.5 117v60q0 80 -38.5 115t-126.5 35h-215v-362zM185 0h-70v800h286q118 0 176 -53.5t58 -157.5v-63q0 -96 -48 -150t-146 -62l206 -314h-79l-204 312h-179v-312z" />
    <glyph glyph-name="Racute" unicode="&#x154;" 
d="M115 0zM185 375h215q88 0 126.5 35t38.5 117v60q0 80 -38.5 115t-126.5 35h-215v-362zM185 0h-70v800h286q118 0 176 -53.5t58 -157.5v-63q0 -96 -48 -150t-146 -62l206 -314h-79l-204 312h-179v-312zM339 900l142 200h108l-189 -200h-61z" />
    <glyph glyph-name="Rcommaaccent" unicode="&#x156;" 
d="M115 0zM185 375h215q88 0 126.5 35t38.5 117v60q0 80 -38.5 115t-126.5 35h-215v-362zM185 0h-70v800h286q118 0 176 -53.5t58 -157.5v-63q0 -96 -48 -150t-146 -62l206 -314h-79l-204 312h-179v-312zM213 -300l96 200h108l-143 -200h-61z" />
    <glyph glyph-name="Rcaron" unicode="&#x158;" 
d="M115 0zM185 375h215q88 0 126.5 35t38.5 117v60q0 80 -38.5 115t-126.5 35h-215v-362zM185 0h-70v800h286q118 0 176 -53.5t58 -157.5v-63q0 -96 -48 -150t-146 -62l206 -314h-79l-204 312h-179v-312zM331 904l-174 160l27 42l171 -135l170 135l28 -42l-174 -160h-48z
" />
    <glyph glyph-name="S" unicode="S" 
d="M365 -6q-91 0 -161.5 32t-126.5 101l50 46q46 -59 103 -87.5t137 -28.5q81 0 131 41t50 109q0 69 -43.5 105t-156.5 66q-134 35 -187.5 84.5t-53.5 137.5q0 94 65.5 149t164.5 55q83 0 147.5 -31.5t116.5 -97.5l-48 -48q-43 57 -95.5 85.5t-119.5 28.5q-73 0 -117.5 -35
t-44.5 -98q0 -66 43.5 -100.5t159.5 -65.5q131 -35 184 -84.5t53 -144.5q0 -100 -72.5 -159.5t-178.5 -59.5z" />
    <glyph glyph-name="Sacute" unicode="&#x15a;" 
d="M77 0zM365 -6q-91 0 -161.5 32t-126.5 101l50 46q46 -59 103 -87.5t137 -28.5q81 0 131 41t50 109q0 69 -43.5 105t-156.5 66q-134 35 -187.5 84.5t-53.5 137.5q0 94 65.5 149t164.5 55q83 0 147.5 -31.5t116.5 -97.5l-48 -48q-43 57 -95.5 85.5t-119.5 28.5
q-73 0 -117.5 -35t-44.5 -98q0 -66 43.5 -100.5t159.5 -65.5q131 -35 184 -84.5t53 -144.5q0 -100 -72.5 -159.5t-178.5 -59.5zM265 900l142 200h108l-189 -200h-61z" />
    <glyph glyph-name="Scircumflex" unicode="&#x15c;" 
d="M77 0zM365 -6q-91 0 -161.5 32t-126.5 101l50 46q46 -59 103 -87.5t137 -28.5q81 0 131 41t50 109q0 69 -43.5 105t-156.5 66q-134 35 -187.5 84.5t-53.5 137.5q0 94 65.5 149t164.5 55q83 0 147.5 -31.5t116.5 -97.5l-48 -48q-43 57 -95.5 85.5t-119.5 28.5
q-73 0 -117.5 -35t-44.5 -98q0 -66 43.5 -100.5t159.5 -65.5q131 -35 184 -84.5t53 -144.5q0 -100 -72.5 -159.5t-178.5 -59.5zM180 915l-27 42l173 160h48l175 -160l-28 -42l-171 135z" />
    <glyph glyph-name="Scedilla" unicode="&#x15e;" 
d="M77 0zM365 -6q-91 0 -161.5 32t-126.5 101l50 46q46 -59 103 -87.5t137 -28.5q81 0 131 41t50 109q0 69 -43.5 105t-156.5 66q-134 35 -187.5 84.5t-53.5 137.5q0 94 65.5 149t164.5 55q83 0 147.5 -31.5t116.5 -97.5l-48 -48q-43 57 -95.5 85.5t-119.5 28.5
q-73 0 -117.5 -35t-44.5 -98q0 -66 43.5 -100.5t159.5 -65.5q131 -35 184 -84.5t53 -144.5q0 -100 -72.5 -159.5t-178.5 -59.5zM321 0l14 30q54 -10 89 -41t35 -86q0 -58 -39.5 -88.5t-100.5 -30.5q-60 0 -98.5 25t-42.5 84l64 6q4 -31 20 -44t52 -13q42 0 60.5 15t18.5 54
q0 38 -16.5 58t-55.5 31z" />
    <glyph glyph-name="Scaron" unicode="&#x160;" 
d="M77 0zM365 -6q-91 0 -161.5 32t-126.5 101l50 46q46 -59 103 -87.5t137 -28.5q81 0 131 41t50 109q0 69 -43.5 105t-156.5 66q-134 35 -187.5 84.5t-53.5 137.5q0 94 65.5 149t164.5 55q83 0 147.5 -31.5t116.5 -97.5l-48 -48q-43 57 -95.5 85.5t-119.5 28.5
q-73 0 -117.5 -35t-44.5 -98q0 -66 43.5 -100.5t159.5 -65.5q131 -35 184 -84.5t53 -144.5q0 -100 -72.5 -159.5t-178.5 -59.5zM327 904l-174 160l27 42l171 -135l170 135l28 -42l-174 -160h-48z" />
    <glyph glyph-name="Scommaaccent" unicode="&#x218;" 
d="M77 0zM365 -6q-91 0 -161.5 32t-126.5 101l50 46q46 -59 103 -87.5t137 -28.5q81 0 131 41t50 109q0 69 -43.5 105t-156.5 66q-134 35 -187.5 84.5t-53.5 137.5q0 94 65.5 149t164.5 55q83 0 147.5 -31.5t116.5 -97.5l-48 -48q-43 57 -95.5 85.5t-119.5 28.5
q-73 0 -117.5 -35t-44.5 -98q0 -66 43.5 -100.5t159.5 -65.5q131 -35 184 -84.5t53 -144.5q0 -100 -72.5 -159.5t-178.5 -59.5zM208 -300l96 200h108l-143 -200h-61z" />
    <glyph glyph-name="T" unicode="T" 
d="M315 0v737h-250v63h570v-63h-250v-737h-70z" />
    <glyph glyph-name="Tcedilla" unicode="&#x162;" 
d="M65 0zM315 0v737h-250v63h570v-63h-250v-737h-70zM317 0l14 30q54 -10 89 -41t35 -86q0 -58 -39.5 -88.5t-100.5 -30.5q-60 0 -98.5 25t-42.5 84l64 6q4 -31 20 -44t52 -13q42 0 60.5 15t18.5 54q0 38 -16.5 58t-55.5 31z" />
    <glyph glyph-name="Tcaron" unicode="&#x164;" 
d="M65 0zM315 0v737h-250v63h570v-63h-250v-737h-70zM326 904l-174 160l27 42l171 -135l170 135l28 -42l-174 -160h-48z" />
    <glyph glyph-name="Tcommaaccent" unicode="&#x21a;" 
d="M65 0zM315 0v737h-250v63h570v-63h-250v-737h-70zM207 -300l96 200h108l-143 -200h-61z" />
    <glyph glyph-name="U" unicode="U" 
d="M350 -10q-119 0 -177 70.5t-58 216.5v523h70v-523q0 -120 38 -172t127 -52t127 52t38 172v523h70v-523q0 -146 -58 -216.5t-177 -70.5z" />
    <glyph glyph-name="Ugrave" unicode="&#xd9;" 
d="M115 0zM350 -10q-119 0 -177 70.5t-58 216.5v523h70v-523q0 -120 38 -172t127 -52t127 52t38 172v523h70v-523q0 -146 -58 -216.5t-177 -70.5zM366 900l-189 200h108l142 -200h-61z" />
    <glyph glyph-name="Uacute" unicode="&#xda;" 
d="M115 0zM350 -10q-119 0 -177 70.5t-58 216.5v523h70v-523q0 -120 38 -172t127 -52t127 52t38 172v523h70v-523q0 -146 -58 -216.5t-177 -70.5zM264 900l142 200h108l-189 -200h-61z" />
    <glyph glyph-name="Ucircumflex" unicode="&#xdb;" 
d="M115 0zM350 -10q-119 0 -177 70.5t-58 216.5v523h70v-523q0 -120 38 -172t127 -52t127 52t38 172v523h70v-523q0 -146 -58 -216.5t-177 -70.5zM179 915l-27 42l173 160h48l175 -160l-28 -42l-171 135z" />
    <glyph glyph-name="Udieresis" unicode="&#xdc;" 
d="M115 0zM350 -10q-119 0 -177 70.5t-58 216.5v523h70v-523q0 -120 38 -172t127 -52t127 52t38 172v523h70v-523q0 -146 -58 -216.5t-177 -70.5zM241 922q-24 0 -38.5 9.5t-14.5 35.5v7q0 27 14.5 37t38.5 10t38.5 -10t14.5 -37v-7q0 -26 -15 -35.5t-38 -9.5zM459 922
q-24 0 -38.5 9.5t-14.5 35.5v7q0 27 14.5 37t38.5 10t38.5 -10t14.5 -37v-7q0 -26 -15 -35.5t-38 -9.5z" />
    <glyph glyph-name="Utilde" unicode="&#x168;" 
d="M115 0zM350 -10q-119 0 -177 70.5t-58 216.5v523h70v-523q0 -120 38 -172t127 -52t127 52t38 172v523h70v-523q0 -146 -58 -216.5t-177 -70.5zM434 910q-34 0 -57 18.5t-48 58.5q-19 33 -34 49t-32 16q-26 0 -40 -27.5t-12 -93.5v-11h-56v15q0 82 28.5 128.5t82.5 46.5
q36 0 59 -18.5t45 -55.5q22 -34 36.5 -51t30.5 -17q25 0 38.5 27.5t13.5 93.5v11h56v-15q0 -82 -28.5 -128.5t-82.5 -46.5z" />
    <glyph glyph-name="Umacron" unicode="&#x16a;" 
d="M115 0zM350 -10q-119 0 -177 70.5t-58 216.5v523h70v-523q0 -120 38 -172t127 -52t127 52t38 172v523h70v-523q0 -146 -58 -216.5t-177 -70.5zM165 970v63h370v-63h-370z" />
    <glyph glyph-name="Ubreve" unicode="&#x16c;" 
d="M115 0zM350 -10q-119 0 -177 70.5t-58 216.5v523h70v-523q0 -120 38 -172t127 -52t127 52t38 172v523h70v-523q0 -146 -58 -216.5t-177 -70.5zM350 893q-98 0 -155.5 51.5t-58.5 158.5h70q2 -81 36.5 -116t107.5 -35t107.5 35t36.5 116h70q-1 -107 -58.5 -158.5
t-155.5 -51.5z" />
    <glyph glyph-name="Uring" unicode="&#x16e;" 
d="M115 0zM350 -10q-119 0 -177 70.5t-58 216.5v523h70v-523q0 -120 38 -172t127 -52t127 52t38 172v523h70v-523q0 -146 -58 -216.5t-177 -70.5zM350 885q-69 0 -108.5 36.5t-39.5 108.5v32q0 73 39.5 110.5t108.5 37.5t108.5 -37.5t39.5 -110.5v-32q0 -72 -39.5 -108.5
t-108.5 -36.5zM350 938q46 0 67 21.5t21 70.5v32q0 49 -21 72t-67 23t-67 -23t-21 -72v-32q0 -49 21 -70.5t67 -21.5z" />
    <glyph glyph-name="Uhungarumlaut" unicode="&#x170;" 
d="M115 0zM350 -10q-119 0 -177 70.5t-58 216.5v523h70v-523q0 -120 38 -172t127 -52t127 52t38 172v523h70v-523q0 -146 -58 -216.5t-177 -70.5zM416 900l56 200h110l-113 -200h-53zM210 900l56 200h110l-113 -200h-53z" />
    <glyph glyph-name="Uogonek" unicode="&#x172;" 
d="M115 0zM350 -10q-119 0 -177 70.5t-58 216.5v523h70v-523q0 -120 38 -172t127 -52t127 52t38 172v523h70v-523q0 -146 -58 -216.5t-177 -70.5zM415 -215q-60 0 -99.5 30.5t-39.5 82.5q0 46 34.5 83.5t85.5 57.5l18 -16q-38 -23 -55 -50t-17 -56q0 -35 20 -52t61 -17
q19 0 40.5 2.5t39.5 6.5v-63q-19 -4 -44 -6.5t-44 -2.5z" />
    <glyph glyph-name="V" unicode="V" 
d="M382 0h-63l-264 800h78l219 -698l219 698h75z" />
    <glyph glyph-name="W" unicode="W" 
d="M480 0l-129 520l-131 -520h-70l-105 800h67l84 -688l120 494h73l119 -490l80 684h67l-105 -800h-70z" />
    <glyph glyph-name="Wcircumflex" unicode="&#x174;" 
d="M45 0zM480 0l-129 520l-131 -520h-70l-105 800h67l84 -688l120 494h73l119 -490l80 684h67l-105 -800h-70zM179 915l-27 42l173 160h48l175 -160l-28 -42l-171 135z" />
    <glyph glyph-name="Wgrave" unicode="&#x1e80;" 
d="M45 0zM480 0l-129 520l-131 -520h-70l-105 800h67l84 -688l120 494h73l119 -490l80 684h67l-105 -800h-70zM376 900l-189 200h108l142 -200h-61z" />
    <glyph glyph-name="Wacute" unicode="&#x1e82;" 
d="M45 0zM480 0l-129 520l-131 -520h-70l-105 800h67l84 -688l120 494h73l119 -490l80 684h67l-105 -800h-70zM274 900l142 200h108l-189 -200h-61z" />
    <glyph glyph-name="Wdieresis" unicode="&#x1e84;" 
d="M45 0zM480 0l-129 520l-131 -520h-70l-105 800h67l84 -688l120 494h73l119 -490l80 684h67l-105 -800h-70zM241 922q-24 0 -38.5 9.5t-14.5 35.5v7q0 27 14.5 37t38.5 10t38.5 -10t14.5 -37v-7q0 -26 -15 -35.5t-38 -9.5zM459 922q-24 0 -38.5 9.5t-14.5 35.5v7
q0 27 14.5 37t38.5 10t38.5 -10t14.5 -37v-7q0 -26 -15 -35.5t-38 -9.5z" />
    <glyph glyph-name="X" unicode="X" 
d="M583 0l-231 354l-235 -354h-80l279 410l-254 390h79l220 -337l224 337h80l-268 -393l265 -407h-79z" />
    <glyph glyph-name="Y" unicode="Y" 
d="M385 0h-70v300l-286 500h79l245 -435l240 435h77l-285 -500v-300z" />
    <glyph glyph-name="Yacute" unicode="&#xdd;" 
d="M29 0zM385 0h-70v300l-286 500h79l245 -435l240 435h77l-285 -500v-300zM264 900l142 200h108l-189 -200h-61z" />
    <glyph glyph-name="Ycircumflex" unicode="&#x176;" 
d="M29 0zM385 0h-70v300l-286 500h79l245 -435l240 435h77l-285 -500v-300zM179 915l-27 42l173 160h48l175 -160l-28 -42l-171 135z" />
    <glyph glyph-name="Ydieresis" unicode="&#x178;" 
d="M29 0zM385 0h-70v300l-286 500h79l245 -435l240 435h77l-285 -500v-300zM241 922q-24 0 -38.5 9.5t-14.5 35.5v7q0 27 14.5 37t38.5 10t38.5 -10t14.5 -37v-7q0 -26 -15 -35.5t-38 -9.5zM459 922q-24 0 -38.5 9.5t-14.5 35.5v7q0 27 14.5 37t38.5 10t38.5 -10t14.5 -37
v-7q0 -26 -15 -35.5t-38 -9.5z" />
    <glyph glyph-name="Ygrave" unicode="&#x1ef2;" 
d="M29 0zM385 0h-70v300l-286 500h79l245 -435l240 435h77l-285 -500v-300zM366 900l-189 200h108l142 -200h-61z" />
    <glyph glyph-name="Z" unicode="Z" 
d="M611 0h-516v63l434 674h-434v63h516v-63l-434 -674h434v-63z" />
    <glyph glyph-name="Zacute" unicode="&#x179;" 
d="M95 0zM611 0h-516v63l434 674h-434v63h516v-63l-434 -674h434v-63zM294 900l142 200h108l-189 -200h-61z" />
    <glyph glyph-name="Zdotaccent" unicode="&#x17b;" 
d="M95 0zM611 0h-516v63l434 674h-434v63h516v-63l-434 -674h434v-63zM350 922q-28 0 -46 9.5t-18 35.5v7q0 27 18 37t46 10t46 -10t18 -37v-7q0 -26 -18 -35.5t-46 -9.5z" />
    <glyph glyph-name="Zcaron" unicode="&#x17d;" 
d="M95 0zM611 0h-516v63l434 674h-434v63h516v-63l-434 -674h434v-63zM326 904l-174 160l27 42l171 -135l170 135l28 -42l-174 -160h-48z" />
    <glyph glyph-name="AE" unicode="&#xc6;" 
d="M292 741l-129 -440h209v440h-80zM372 242h-227l-71 -242h-62l240 800h423v-59h-237v-282h227v-59h-227v-341h237v-59h-303v242z" />
    <glyph glyph-name="AEacute" unicode="&#x1fc;" 
d="M12 0zM292 741l-129 -440h209v440h-80zM372 242h-227l-71 -242h-62l240 800h423v-59h-237v-282h227v-59h-227v-341h237v-59h-303v242zM394 900l142 200h108l-189 -200h-61z" />
    <glyph glyph-name="Eth" unicode="&#xd0;" 
d="M15 407v63h320v-63h-320zM115 0v800h206q133 0 208.5 -79.5t75.5 -211.5v-222q0 -131 -75.5 -209t-209.5 -78h-205zM185 63h135q109 0 162 62t53 162v222q0 99 -53 163.5t-162 64.5h-135v-674z" />
    <glyph glyph-name="Oslash" unicode="&#xd8;" 
d="M197 120l244 612q-18 7 -40.5 11t-50.5 4q-100 0 -142.5 -52.5t-42.5 -175.5v-242q0 -53 8 -92t24 -65zM350 53q100 0 142.5 51.5t42.5 172.5v242q0 63 -11 107.5t-34 71.5l-248 -622q20 -12 47 -17.5t61 -5.5zM350 -10q-38 0 -70 6.5t-59 19.5l-40 -101h-70l55 139
q-35 35 -53 91.5t-18 131.5v242q0 146 65 218.5t191 72.5q31 0 59 -4.5t52 -14.5l37 94h70l-51 -126q43 -35 65 -95.5t22 -144.5v-242q0 -144 -65 -215.5t-190 -71.5z" />
    <glyph glyph-name="Oslashacute" unicode="&#x1fe;" 
d="M95 0zM197 120l244 612q-18 7 -40.5 11t-50.5 4q-100 0 -142.5 -52.5t-42.5 -175.5v-242q0 -53 8 -92t24 -65zM350 53q100 0 142.5 51.5t42.5 172.5v242q0 63 -11 107.5t-34 71.5l-248 -622q20 -12 47 -17.5t61 -5.5zM350 -10q-38 0 -70 6.5t-59 19.5l-40 -101h-70
l55 139q-35 35 -53 91.5t-18 131.5v242q0 146 65 218.5t191 72.5q31 0 59 -4.5t52 -14.5l37 94h70l-51 -126q43 -35 65 -95.5t22 -144.5v-242q0 -144 -65 -215.5t-190 -71.5zM304 900l142 200h108l-189 -200h-61z" />
    <glyph glyph-name="Thorn" unicode="&#xde;" 
d="M115 0v800h70v-130h196q115 0 174.5 -53.5t59.5 -157.5v-92q0 -106 -59.5 -161.5t-175.5 -55.5h-195v-150h-70zM185 212h195q89 0 127 35.5t38 119.5v92q0 80 -38 114t-127 34h-195v-395z" />
    <glyph glyph-name="Dcroat" unicode="&#x110;" 
d="M15 407v63h320v-63h-320zM115 0v800h206q133 0 208.5 -79.5t75.5 -211.5v-222q0 -131 -75.5 -209t-209.5 -78h-205zM185 63h135q109 0 162 62t53 162v222q0 99 -53 163.5t-162 64.5h-135v-674z" />
    <glyph glyph-name="Hbar" unicode="&#x126;" 
d="M185 406h330v169h-330v-169zM185 343v-343h-70v575h-100v63h100v162h70v-162h330v162h70v-162h100v-63h-100v-575h-70v343h-330z" />
    <glyph glyph-name="IJ" unicode="&#x132;" 
d="M145 0h-70v800h70v-800zM442 -10q-88 0 -133.5 57t-52.5 195l70 8q7 -110 32.5 -153.5t84.5 -43.5q63 0 88 47t25 139v498h-205v63h275v-560q0 -126 -44 -188t-140 -62z" />
    <glyph glyph-name="Ldot" unicode="&#x13f;" 
d="M165 0zM165 0v800h70v-737h350v-63h-420zM590 422q-28 0 -46 9.5t-18 35.5v7q0 27 18 37t46 10t46 -10t18 -37v-7q0 -26 -18 -35.5t-46 -9.5z" />
    <glyph glyph-name="Lslash" unicode="&#x141;" 
d="M65 339v59l420 140v-59zM165 0v800h70v-737h350v-63h-420z" />
    <glyph glyph-name="Eng" unicode="&#x14a;" 
d="M368 -208q-33 0 -68 6.5t-73 19.5l16 65q36 -13 65.5 -19.5t56.5 -6.5q72 0 111 45.5t39 142.5v529q0 87 -35 127.5t-98 40.5q-59 0 -103 -32t-94 -93v-617h-70v800h70v-120h18q35 62 86 96t113 34q85 0 134 -56.5t49 -155.5v-566q0 -116 -59.5 -178t-157.5 -62z" />
    <glyph glyph-name="OE" unicode="&#x152;" 
d="M273 0q-118 0 -184.5 77t-66.5 210v222q0 134 66.5 212.5t183.5 78.5h413v-59h-247v-273h247v-59h-247v-350h247v-59h-412zM273 59h99v682h-99q-92 0 -138.5 -61.5t-46.5 -170.5v-222q0 -108 46.5 -168t138.5 -60z" />
    <glyph glyph-name="Tbar" unicode="&#x166;" 
d="M115 325v63h470v-63h-470zM315 0v737h-250v63h570v-63h-250v-737h-70z" />
    <glyph glyph-name="Alpha" unicode="&#x391;" 
d="M55 0zM475 305l-126 402l-127 -402h253zM570 0l-76 242h-291l-76 -242h-72l264 800h63l264 -800h-76z" />
    <glyph glyph-name="Alphatonos" unicode="&#x386;" 
d="M39 0zM475 305l-126 402l-127 -402h253zM570 0l-76 242h-291l-76 -242h-72l264 800h63l264 -800h-76zM39 700l82 200h104l-129 -200h-57z" />
    <glyph glyph-name="Beta" unicode="&#x392;" 
d="M115 0zM115 0v800h239q110 0 166.5 -47.5t56.5 -140.5v-45q0 -53 -29.5 -89.5t-79.5 -45.5v-17q64 -6 102.5 -51.5t38.5 -114.5v-45q0 -101 -60.5 -152.5t-179.5 -51.5h-254zM185 449h173q81 0 116 29.5t35 98.5v28q0 70 -35 101t-116 31h-173v-288zM185 63h193
q86 0 123.5 34t37.5 112v32q0 78 -37.5 111.5t-123.5 33.5h-193v-323z" />
    <glyph glyph-name="Gamma" unicode="&#x393;" 
d="M115 0v800h490v-63h-420v-737h-70z" />
    <glyph glyph-name="Delta" unicode="&#x394;" 
d="M55 0v63l259 737h63l268 -737v-63h-590zM574 63l-226 652l-225 -652h451z" />
    <glyph glyph-name="Epsilon" unicode="&#x395;" 
d="M115 0zM115 0v800h490v-63h-420v-269h370v-63h-370v-342h420v-63h-490z" />
    <glyph glyph-name="Epsilontonos" unicode="&#x388;" 
d="M0 0zM115 0v800h490v-63h-420v-269h370v-63h-370v-342h420v-63h-490zM-101 700l82 200h104l-129 -200h-57z" />
    <glyph glyph-name="Zeta" unicode="&#x396;" 
d="M95 0zM611 0h-516v63l434 674h-434v63h516v-63l-434 -674h434v-63z" />
    <glyph glyph-name="Eta" unicode="&#x397;" 
d="M115 0zM115 0v800h70v-332h330v332h70v-800h-70v405h-330v-405h-70z" />
    <glyph glyph-name="Etatonos" unicode="&#x389;" 
d="M0 0zM115 0v800h70v-332h330v332h70v-800h-70v405h-330v-405h-70zM-111 700l82 200h104l-129 -200h-57z" />
    <glyph glyph-name="Theta" unicode="&#x398;" 
d="M350 -10q-132 0 -199.5 72.5t-67.5 214.5v242q0 144 68 217.5t200 73.5q131 0 198.5 -73.5t67.5 -217.5v-242q0 -142 -67.5 -214.5t-199.5 -72.5zM350 53q107 0 152 51.5t45 172.5v242q0 123 -45 175.5t-152 52.5t-152 -52.5t-45 -175.5v-242q0 -121 45 -172.5t152 -51.5
zM262 375v63h176v-63h-176z" />
    <glyph glyph-name="Iota" unicode="&#x399;" 
d="M115 0zM115 0v63h200v674h-200v63h470v-63h-200v-674h200v-63h-470z" />
    <glyph glyph-name="Iotatonos" unicode="&#x38a;" 
d="M0 0zM115 0v63h200v674h-200v63h470v-63h-200v-674h200v-63h-470zM-111 700l82 200h104l-129 -200h-57z" />
    <glyph glyph-name="Iotadieresis" unicode="&#x3aa;" 
d="M115 0zM115 0v63h200v674h-200v63h470v-63h-200v-674h200v-63h-470zM241 922q-24 0 -38.5 9.5t-14.5 35.5v7q0 27 14.5 37t38.5 10t38.5 -10t14.5 -37v-7q0 -26 -15 -35.5t-38 -9.5zM459 922q-24 0 -38.5 9.5t-14.5 35.5v7q0 27 14.5 37t38.5 10t38.5 -10t14.5 -37v-7
q0 -26 -15 -35.5t-38 -9.5z" />
    <glyph glyph-name="Kappa" unicode="&#x39a;" 
d="M115 0zM185 392v-392h-70v800h70v-345h64l309 345h86l-333 -370l330 -430h-86l-299 392h-71z" />
    <glyph glyph-name="Lambda" unicode="&#x39b;" 
d="M570 0l-221 707l-222 -707h-72l264 800h63l264 -800h-76z" />
    <glyph glyph-name="Mu" unicode="&#x39c;" 
d="M82 0zM315 200l-167 486v-686h-66v800h94l176 -521l175 521h91v-800h-66v685l-167 -485h-70z" />
    <glyph glyph-name="Nu" unicode="&#x39d;" 
d="M115 0zM493 0l-313 690v-690h-65v800h86l319 -705v705h65v-800h-92z" />
    <glyph glyph-name="Xi" unicode="&#x39e;" 
d="M95 737v63h510v-63h-510zM120 405v63h460v-63h-460zM95 0v63h510v-63h-510z" />
    <glyph glyph-name="Omicron" unicode="&#x39f;" 
d="M95 0zM350 -10q-126 0 -190.5 71.5t-64.5 215.5v242q0 146 65 218.5t191 72.5q125 0 189.5 -72.5t64.5 -218.5v-242q0 -144 -64.5 -215.5t-190.5 -71.5zM350 53q99 0 142 52.5t43 171.5v242q0 122 -43 175t-142 53t-142 -53t-43 -175v-242q0 -119 43 -171.5t142 -52.5z
" />
    <glyph glyph-name="Omicrontonos" unicode="&#x38c;" 
d="M0 0zM355 -10q-126 0 -190.5 71.5t-64.5 215.5v242q0 146 65 218.5t191 72.5q125 0 189.5 -72.5t64.5 -218.5v-242q0 -144 -64.5 -215.5t-190.5 -71.5zM355 53q99 0 142 52.5t43 171.5v242q0 122 -43 175t-142 53t-142 -53t-43 -175v-242q0 -119 43 -171.5t142 -52.5z
M-26 700l82 200h104l-129 -200h-57z" />
    <glyph glyph-name="Pi" unicode="&#x3a0;" 
d="M115 0v800h470v-800h-70v737h-330v-737h-70z" />
    <glyph glyph-name="Rho" unicode="&#x3a1;" 
d="M115 0zM115 0v800h266q116 0 175 -53.5t59 -157.5v-98q0 -104 -59.5 -157.5t-175.5 -53.5h-195v-280h-70zM185 342h195q89 0 127 35t38 116v92q0 81 -38 116.5t-127 35.5h-195v-395z" />
    <glyph glyph-name="Sigma" unicode="&#x3a3;" 
d="M605 0h-520v63l347 349l-347 325v63h520v-63h-428l308 -293v-61l-313 -320h433v-63z" />
    <glyph glyph-name="Tau" unicode="&#x3a4;" 
d="M65 0zM315 0v737h-250v63h570v-63h-250v-737h-70z" />
    <glyph glyph-name="Upsilon" unicode="&#x3a5;" 
d="M29 0zM385 0h-70v300l-286 500h79l245 -435l240 435h77l-285 -500v-300z" />
    <glyph glyph-name="Upsilontonos" unicode="&#x38e;" 
d="M0 0zM385 0h-70v300l-286 500h79l245 -435l240 435h77l-285 -500v-300zM-141 700l82 200h104l-129 -200h-57z" />
    <glyph glyph-name="Upsilondieresis" unicode="&#x3ab;" 
d="M29 0zM385 0h-70v300l-286 500h79l245 -435l240 435h77l-285 -500v-300zM241 922q-24 0 -38.5 9.5t-14.5 35.5v7q0 27 14.5 37t38.5 10t38.5 -10t14.5 -37v-7q0 -26 -15 -35.5t-38 -9.5zM459 922q-24 0 -38.5 9.5t-14.5 35.5v7q0 27 14.5 37t38.5 10t38.5 -10t14.5 -37
v-7q0 -26 -15 -35.5t-38 -9.5z" />
    <glyph glyph-name="Phi" unicode="&#x3a6;" 
d="M65 0zM433 90h-48v-106h-70v106h-47q-101 0 -152 67.5t-51 187.5v106q0 122 51 190.5t152 68.5h47v106h70v-106h48q101 0 151.5 -68.5t50.5 -190.5v-106q0 -120 -50.5 -187.5t-151.5 -67.5zM433 647h-50v-494h50q70 0 101 45t31 147v106q0 104 -31 150t-101 46zM268 153
h49v494h-49q-70 0 -101.5 -46t-31.5 -150v-106q0 -102 31.5 -147t101.5 -45z" />
    <glyph glyph-name="Chi" unicode="&#x3a7;" 
d="M37 0zM583 0l-231 354l-235 -354h-80l279 410l-254 390h79l220 -337l224 337h80l-268 -393l265 -407h-79z" />
    <glyph glyph-name="Psi" unicode="&#x3a8;" 
d="M385 0h-70v204q-116 10 -169.5 78t-53.5 175v343h68v-343q0 -87 36.5 -131t118.5 -51v525h70v-525q83 7 119 51t36 131v343h68v-343q0 -107 -53.5 -175t-169.5 -78v-204z" />
    <glyph glyph-name="Omega" unicode="&#x3a9;" 
d="M285 0h-200v63h130v123q-69 21 -99.5 82.5t-30.5 142.5v108q0 143 65.5 217t199.5 74t199.5 -74t65.5 -217v-108q0 -81 -30.5 -142.5t-99.5 -82.5v-123h130v-63h-200v224q75 16 102.5 64t27.5 123v108q0 122 -45 175t-150 53t-150 -53t-45 -175v-108q0 -75 27.5 -123
t102.5 -64v-224z" />
    <glyph glyph-name="Omegatonos" unicode="&#x38f;" 
d="M0 0zM285 0h-200v63h130v123q-69 21 -99.5 82.5t-30.5 142.5v108q0 143 65.5 217t199.5 74t199.5 -74t65.5 -217v-108q0 -81 -30.5 -142.5t-99.5 -82.5v-123h130v-63h-200v224q75 16 102.5 64t27.5 123v108q0 122 -45 175t-150 53t-150 -53t-45 -175v-108
q0 -75 27.5 -123t102.5 -64v-224zM-51 700l82 200h104l-129 -200h-57z" />
    <glyph glyph-name="Ohm" unicode="&#x2126;" 
d="M85 0zM285 0h-200v63h130v123q-69 21 -99.5 82.5t-30.5 142.5v108q0 143 65.5 217t199.5 74t199.5 -74t65.5 -217v-108q0 -81 -30.5 -142.5t-99.5 -82.5v-123h130v-63h-200v224q75 16 102.5 64t27.5 123v108q0 122 -45 175t-150 53t-150 -53t-45 -175v-108
q0 -75 27.5 -123t102.5 -64v-224z" />
    <glyph glyph-name="Djecyrillic" unicode="&#x402;" 
d="M195 0v737h-150v63h470v-63h-250v-229h133q113 0 170 -50t57 -149v-98q0 -104 -54 -157.5t-161 -53.5v61q73 0 109 34.5t36 117.5v94q0 77 -38.5 108.5t-118.5 31.5h-133v-447h-70z" />
    <glyph glyph-name="Ecyrillic" unicode="&#x404;" 
d="M623 242q-7 -124 -72.5 -188t-190.5 -64q-130 0 -197.5 72t-67.5 215v242q0 145 67.5 218t198.5 73q124 0 189.5 -65t72.5 -191l-70 -7q-9 107 -53.5 153.5t-139.5 46.5q-104 0 -149.5 -53t-45.5 -175v-51h227v-63h-227v-128q0 -120 45.5 -172t149.5 -52q96 0 140 45.5
t53 150.5z" />
    <glyph glyph-name="Dzecyrillic" unicode="&#x405;" 
d="M77 0zM365 -6q-91 0 -161.5 32t-126.5 101l50 46q46 -59 103 -87.5t137 -28.5q81 0 131 41t50 109q0 69 -43.5 105t-156.5 66q-134 35 -187.5 84.5t-53.5 137.5q0 94 65.5 149t164.5 55q83 0 147.5 -31.5t116.5 -97.5l-48 -48q-43 57 -95.5 85.5t-119.5 28.5
q-73 0 -117.5 -35t-44.5 -98q0 -66 43.5 -100.5t159.5 -65.5q131 -35 184 -84.5t53 -144.5q0 -100 -72.5 -159.5t-178.5 -59.5z" />
    <glyph glyph-name="Icyrillic" unicode="&#x406;" 
d="M115 0zM115 0v63h200v674h-200v63h470v-63h-200v-674h200v-63h-470z" />
    <glyph glyph-name="Yicyrillic" unicode="&#x407;" 
d="M115 0zM115 0v63h200v674h-200v63h470v-63h-200v-674h200v-63h-470zM241 922q-24 0 -38.5 9.5t-14.5 35.5v7q0 27 14.5 37t38.5 10t38.5 -10t14.5 -37v-7q0 -26 -15 -35.5t-38 -9.5zM459 922q-24 0 -38.5 9.5t-14.5 35.5v7q0 27 14.5 37t38.5 10t38.5 -10t14.5 -37v-7
q0 -26 -15 -35.5t-38 -9.5z" />
    <glyph glyph-name="Jecyrillic" unicode="&#x408;" 
d="M75 0zM329 -10q-125 0 -186.5 61.5t-67.5 192.5l70 8q8 -113 47.5 -156t135.5 -43q98 0 142.5 49.5t44.5 156.5v478h-215v63h285v-540q0 -134 -64.5 -202t-191.5 -68z" />
    <glyph glyph-name="Ljecyrillic" unicode="&#x409;" 
d="M162 164q-1 -91 -33 -130.5t-78 -39.5q-15 -1 -29.5 2t-30.5 8l16 67q9 -3 18 -5.5t18 -2.5q21 -1 37 20t17 89l12 628h274v-280h63q90 0 135.5 -53.5t45.5 -157.5v-98q0 -104 -45 -157.5t-135 -53.5h-130v737h-145zM383 63h63q52 0 83.5 32.5t31.5 119.5v92
q0 86 -31.5 118.5t-83.5 32.5h-63v-395z" />
    <glyph glyph-name="Njecyrillic" unicode="&#x40a;" 
d="M383 63h67q50 0 80.5 33t30.5 119v92q0 86 -30.5 118.5t-80.5 32.5h-67v-395zM139 417v-417h-66v800h66v-320h178v320h66v-280h67q88 0 132.5 -53.5t44.5 -157.5v-98q0 -104 -44 -157.5t-132 -53.5h-134v417h-178z" />
    <glyph glyph-name="Tshecyrillic" unicode="&#x40b;" 
d="M255 0h-70v737h-150v63h470v-63h-250v-247h155q107 0 161 -53.5t54 -157.5v-279h-70v277q0 83 -33 117t-112 34h-155v-428z" />
    <glyph glyph-name="Dzhecyrillic" unicode="&#x40f;" 
d="M315 -150v150h-200v800h70v-737h330v737h70v-800h-200v-150h-70z" />
    <glyph glyph-name="Acyrillic" unicode="&#x410;" 
d="M55 0zM475 305l-126 402l-127 -402h253zM570 0l-76 242h-291l-76 -242h-72l264 800h63l264 -800h-76z" />
    <glyph glyph-name="Becyrillic" unicode="&#x411;" 
d="M115 0v800h445v-63h-375v-265h193q105 0 163 -51.5t58 -145.5v-64q0 -100 -58 -155.5t-162 -55.5h-264zM185 63h179q86 0 125.5 37t39.5 116v44q0 78 -39.5 114t-125.5 36h-179v-347z" />
    <glyph glyph-name="Vecyrillic" unicode="&#x412;" 
d="M115 0zM115 0v800h239q110 0 166.5 -47.5t56.5 -140.5v-45q0 -53 -29.5 -89.5t-79.5 -45.5v-17q64 -6 102.5 -51.5t38.5 -114.5v-45q0 -101 -60.5 -152.5t-179.5 -51.5h-254zM185 449h173q81 0 116 29.5t35 98.5v28q0 70 -35 101t-116 31h-173v-288zM185 63h193
q86 0 123.5 34t37.5 112v32q0 78 -37.5 111.5t-123.5 33.5h-193v-323z" />
    <glyph glyph-name="Gecyrillic" unicode="&#x413;" 
d="M115 0zM115 0v800h490v-63h-420v-737h-70z" />
    <glyph glyph-name="Gjecyrillic" unicode="&#x403;" 
d="M115 0zM115 0v800h490v-63h-420v-737h-70zM309 900l142 200h108l-189 -200h-61z" />
    <glyph glyph-name="Decyrillic" unicode="&#x414;" 
d="M162 78v-15h334v674h-272l-3 -434q-1 -90 -13 -142t-46 -83zM95 0v-150h-70v213h58q37 27 54 86t18 160l3 491h408v-737h100v-213h-70v150h-501z" />
    <glyph glyph-name="Iecyrillic" unicode="&#x415;" 
d="M115 0zM115 0v800h490v-63h-420v-269h370v-63h-370v-342h420v-63h-490z" />
    <glyph glyph-name="IEgravecyrillic" unicode="&#x400;" 
d="M115 0zM115 0v800h490v-63h-420v-269h370v-63h-370v-342h420v-63h-490zM396 900l-189 200h108l142 -200h-61z" />
    <glyph glyph-name="Iocyrillic" unicode="&#x401;" 
d="M115 0zM115 0v800h490v-63h-420v-269h370v-63h-370v-342h420v-63h-490zM271 922q-24 0 -38.5 9.5t-14.5 35.5v7q0 27 14.5 37t38.5 10t38.5 -10t14.5 -37v-7q0 -26 -15 -35.5t-38 -9.5zM489 922q-24 0 -38.5 9.5t-14.5 35.5v7q0 27 14.5 37t38.5 10t38.5 -10t14.5 -37v-7
q0 -26 -15 -35.5t-38 -9.5z" />
    <glyph glyph-name="Zhecyrillic" unicode="&#x416;" 
d="M256 398l-167 -398h-70l183 428l-184 372h67l169 -345h65v345h64v-345h62l171 345h67l-186 -370l185 -430h-70l-167 398h-62v-398h-64v398h-63z" />
    <glyph glyph-name="Zecyrillic" unicode="&#x417;" 
d="M346 -10q-128 0 -191 51.5t-70 161.5l70 8q9 -87 52.5 -123.5t138.5 -36.5q106 0 151 38t45 128v27q0 79 -38.5 112.5t-130.5 33.5h-108v63h108q77 0 109.5 28t32.5 95v32q0 76 -40 108.5t-135 32.5q-82 0 -119.5 -33.5t-45.5 -111.5l-70 8q7 101 63.5 149.5t171.5 48.5
q120 0 182.5 -48.5t62.5 -153.5v-32q0 -66 -33.5 -102.5t-91.5 -43.5v-17q72 -6 112 -53t40 -116v-27q0 -113 -63 -170t-203 -57z" />
    <glyph glyph-name="Iicyrillic" unicode="&#x418;" 
d="M519 0v688l-312 -688h-92v800h66v-703l321 703h83v-800h-66z" />
    <glyph glyph-name="Igravecyrillic" unicode="&#x40d;" 
d="M115 0zM519 0v688l-312 -688h-92v800h66v-703l321 703h83v-800h-66zM356 900l-189 200h108l142 -200h-61z" />
    <glyph glyph-name="Iishortcyrillic" unicode="&#x419;" 
d="M115 0zM519 0v688l-312 -688h-92v800h66v-703l321 703h83v-800h-66zM360 893q-86 0 -145.5 45.5t-60.5 157.5l70 7q2 -82 33 -117t103 -35t103 35t33 117l70 -7q-1 -112 -60.5 -157.5t-145.5 -45.5z" />
    <glyph glyph-name="Kacyrillic" unicode="&#x41a;" 
d="M115 0zM185 392v-392h-70v800h70v-345h64l309 345h86l-333 -370l330 -430h-86l-299 392h-71z" />
    <glyph glyph-name="Kjecyrillic" unicode="&#x40c;" 
d="M115 0zM185 392v-392h-70v800h70v-345h64l309 345h86l-333 -370l330 -430h-86l-299 392h-71zM332 900l142 200h108l-189 -200h-61z" />
    <glyph glyph-name="Elcyrillic" unicode="&#x41b;" 
d="M515 0v737h-271l-3 -502q-1 -128 -44 -186.5t-118 -58.5q-21 0 -39 2.5t-34 8.5l13 61q14 -5 26.5 -7t24.5 -2q54 0 79 46.5t26 148.5l3 552h407v-800h-70z" />
    <glyph glyph-name="Emcyrillic" unicode="&#x41c;" 
d="M82 0zM315 200l-167 486v-686h-66v800h94l176 -521l175 521h91v-800h-66v685l-167 -485h-70z" />
    <glyph glyph-name="Encyrillic" unicode="&#x41d;" 
d="M115 0zM115 0v800h70v-332h330v332h70v-800h-70v405h-330v-405h-70z" />
    <glyph glyph-name="Ocyrillic" unicode="&#x41e;" 
d="M95 0zM350 -10q-126 0 -190.5 71.5t-64.5 215.5v242q0 146 65 218.5t191 72.5q125 0 189.5 -72.5t64.5 -218.5v-242q0 -144 -64.5 -215.5t-190.5 -71.5zM350 53q99 0 142 52.5t43 171.5v242q0 122 -43 175t-142 53t-142 -53t-43 -175v-242q0 -119 43 -171.5t142 -52.5z
" />
    <glyph glyph-name="Pecyrillic" unicode="&#x41f;" 
d="M115 0zM115 0v800h470v-800h-70v737h-330v-737h-70z" />
    <glyph glyph-name="Ercyrillic" unicode="&#x420;" 
d="M115 0zM115 0v800h266q116 0 175 -53.5t59 -157.5v-98q0 -104 -59.5 -157.5t-175.5 -53.5h-195v-280h-70zM185 342h195q89 0 127 35t38 116v92q0 81 -38 116.5t-127 35.5h-195v-395z" />
    <glyph glyph-name="Escyrillic" unicode="&#x421;" 
d="M95 0zM360 -10q-131 0 -198 71.5t-67 209.5v254q0 140 67.5 212.5t198.5 72.5q125 0 190 -61.5t72 -194.5l-70 -7q-10 112 -52 156t-141 44q-105 0 -150 -52.5t-45 -175.5v-242q0 -121 45 -172.5t150 -51.5q101 0 145 44.5t48 151.5l70 -7q-3 -127 -68.5 -189.5
t-194.5 -62.5z" />
    <glyph glyph-name="Tecyrillic" unicode="&#x422;" 
d="M65 0zM315 0v737h-250v63h570v-63h-250v-737h-70z" />
    <glyph glyph-name="Ucyrillic" unicode="&#x423;" 
d="M201 -5q-17 0 -35.5 2.5t-37.5 6.5l13 63q18 -5 32.5 -6.5t29.5 -1.5q48 0 77.5 26t51.5 90l5 13h-26l-251 612h73l223 -559l212 559h71l-254 -647q-35 -91 -79 -124.5t-105 -33.5z" />
    <glyph glyph-name="Ushortcyrillic" unicode="&#x40e;" 
d="M60 0zM201 -5q-17 0 -35.5 2.5t-37.5 6.5l13 63q18 -5 32.5 -6.5t29.5 -1.5q48 0 77.5 26t51.5 90l5 13h-26l-251 612h73l223 -559l212 559h71l-254 -647q-35 -91 -79 -124.5t-105 -33.5zM350 893q-86 0 -145.5 45.5t-60.5 157.5l70 7q2 -82 33 -117t103 -35t103 35
t33 117l70 -7q-1 -112 -60.5 -157.5t-145.5 -45.5z" />
    <glyph glyph-name="Efcyrillic" unicode="&#x424;" 
d="M433 90h-48v-106h-70v106h-47q-101 0 -152 67.5t-51 187.5v106q0 122 51 190.5t152 68.5h47v106h70v-106h48q101 0 151.5 -68.5t50.5 -190.5v-106q0 -120 -50.5 -187.5t-151.5 -67.5zM433 647h-50v-494h50q70 0 101 45t31 147v106q0 104 -31 150t-101 46zM268 153h49v494
h-49q-70 0 -101.5 -46t-31.5 -150v-106q0 -102 31.5 -147t101.5 -45z" />
    <glyph glyph-name="Khacyrillic" unicode="&#x425;" 
d="M37 0zM583 0l-231 354l-235 -354h-80l279 410l-254 390h79l220 -337l224 337h80l-268 -393l265 -407h-79z" />
    <glyph glyph-name="Tsecyrillic" unicode="&#x426;" 
d="M565 -150v150h-450v800h70v-737h280v737h70v-737h100v-213h-70z" />
    <glyph glyph-name="Checyrillic" unicode="&#x427;" 
d="M585 800v-800h-70v280h-165q-125 0 -180 49t-55 162v309h70v-307q0 -82 38 -117t127 -35h165v459h70z" />
    <glyph glyph-name="Shacyrillic" unicode="&#x428;" 
d="M69 0v800h67v-739h181v739h66v-739h181v739h67v-800h-562z" />
    <glyph glyph-name="Shchacyrillic" unicode="&#x429;" 
d="M674 -150h-67v150h-538v800h67v-739h181v739h66v-739h182v739h67v-739h42v-211z" />
    <glyph glyph-name="Hardsigncyrillic" unicode="&#x42a;" 
d="M427 0h-212v737h-196v63h266v-280h141q104 0 156.5 -52t52.5 -159v-98q0 -107 -52 -159t-156 -52zM285 63h141q75 0 107 35t32 117v92q0 82 -32 117t-107 35h-141v-396z" />
    <glyph glyph-name="Yericyrillic" unicode="&#x42b;" 
d="M92 0v800h67v-280h80q96 0 139 -53t43 -158v-98q0 -105 -43 -158t-138 -53h-148zM541 0v800h67v-800h-67zM159 61h80q58 0 86.5 35t28.5 119v92q0 84 -28.5 119t-86.5 35h-80v-400z" />
    <glyph glyph-name="Softsigncyrillic" unicode="&#x42c;" 
d="M115 0v800h70v-280h195q117 0 176 -53t59 -158v-98q0 -105 -59 -158t-175 -53h-266zM185 63h195q83 0 124 34.5t41 117.5v92q0 83 -40.5 117.5t-124.5 34.5h-195v-396z" />
    <glyph glyph-name="Ereversedcyrillic" unicode="&#x42d;" 
d="M360 -10q-125 0 -191.5 63.5t-73.5 189.5l70 8q10 -107 54.5 -152.5t140.5 -45.5q104 0 149.5 52t45.5 172v128h-270v63h270v51q0 122 -45.5 175t-149.5 53q-96 0 -140.5 -46.5t-54.5 -155.5l-70 8q7 128 73.5 192.5t190.5 64.5q135 0 200.5 -73t65.5 -218v-242
q0 -143 -65.5 -215t-199.5 -72z" />
    <glyph glyph-name="IUcyrillic" unicode="&#x42e;" 
d="M442 -10q-92 0 -136 64.5t-44 186.5v166h-123v-407h-67v800h67v-334h123v89q0 124 44.5 189.5t136.5 65.5q94 0 139.5 -65.5t45.5 -189.5v-314q0 -122 -45 -186.5t-141 -64.5zM442 51q63 0 91 44.5t28 145.5v314q0 103 -28 148t-91 45q-60 0 -86.5 -45t-26.5 -148v-314
q0 -101 26.5 -145.5t86.5 -44.5z" />
    <glyph glyph-name="IAcyrillic" unicode="&#x42f;" 
d="M299 375h215v362h-215q-88 0 -126.5 -35t-38.5 -115v-60q0 -82 38.5 -117t126.5 -35zM514 312h-179l-201 -312h-82l206 314q-98 8 -146 61.5t-48 150.5v63q0 105 57.5 158t176.5 53h286v-800h-70v312z" />
    <glyph glyph-name="Gheupturncyrillic" unicode="&#x490;" 
d="M115 0v800h420v150h70v-213h-420v-737h-70z" />
    <glyph glyph-name="a" unicode="a" 
d="M284 49q55 0 100 21.5t81 70.5v126h-201q-50 0 -81 -21.5t-31 -78.5q0 -56 31.5 -87t100.5 -31zM276 -10q-83 0 -137 43.5t-54 127.5q0 75 46.5 118t121.5 43h212v101q0 53 -35.5 88.5t-107.5 35.5t-105.5 -22.5t-53.5 -88.5l-62 17q21 81 74 119t146 38q96 0 155 -46.5
t59 -135.5v-268q0 -69 27 -89t93 -9v-65q-66 -10 -110 11.5t-50 88.5h-14q-30 -47 -83.5 -77t-121.5 -30z" />
    <glyph glyph-name="agrave" unicode="&#xe0;" 
d="M85 0zM284 49q55 0 100 21.5t81 70.5v126h-201q-50 0 -81 -21.5t-31 -78.5q0 -56 31.5 -87t100.5 -31zM276 -10q-83 0 -137 43.5t-54 127.5q0 75 46.5 118t121.5 43h212v101q0 53 -35.5 88.5t-107.5 35.5t-105.5 -22.5t-53.5 -88.5l-62 17q21 81 74 119t146 38
q96 0 155 -46.5t59 -135.5v-268q0 -69 27 -89t93 -9v-65q-66 -10 -110 11.5t-50 88.5h-14q-30 -47 -83.5 -77t-121.5 -30zM346 700l-189 200h108l142 -200h-61z" />
    <glyph glyph-name="aacute" unicode="&#xe1;" 
d="M85 0zM284 49q55 0 100 21.5t81 70.5v126h-201q-50 0 -81 -21.5t-31 -78.5q0 -56 31.5 -87t100.5 -31zM276 -10q-83 0 -137 43.5t-54 127.5q0 75 46.5 118t121.5 43h212v101q0 53 -35.5 88.5t-107.5 35.5t-105.5 -22.5t-53.5 -88.5l-62 17q21 81 74 119t146 38
q96 0 155 -46.5t59 -135.5v-268q0 -69 27 -89t93 -9v-65q-66 -10 -110 11.5t-50 88.5h-14q-30 -47 -83.5 -77t-121.5 -30zM244 700l142 200h108l-189 -200h-61z" />
    <glyph glyph-name="acircumflex" unicode="&#xe2;" 
d="M85 0zM284 49q55 0 100 21.5t81 70.5v126h-201q-50 0 -81 -21.5t-31 -78.5q0 -56 31.5 -87t100.5 -31zM276 -10q-83 0 -137 43.5t-54 127.5q0 75 46.5 118t121.5 43h212v101q0 53 -35.5 88.5t-107.5 35.5t-105.5 -22.5t-53.5 -88.5l-62 17q21 81 74 119t146 38
q96 0 155 -46.5t59 -135.5v-268q0 -69 27 -89t93 -9v-65q-66 -10 -110 11.5t-50 88.5h-14q-30 -47 -83.5 -77t-121.5 -30zM169 715l-27 42l173 160h48l175 -160l-28 -42l-171 135z" />
    <glyph glyph-name="atilde" unicode="&#xe3;" 
d="M85 0zM284 49q55 0 100 21.5t81 70.5v126h-201q-50 0 -81 -21.5t-31 -78.5q0 -56 31.5 -87t100.5 -31zM276 -10q-83 0 -137 43.5t-54 127.5q0 75 46.5 118t121.5 43h212v101q0 53 -35.5 88.5t-107.5 35.5t-105.5 -22.5t-53.5 -88.5l-62 17q21 81 74 119t146 38
q96 0 155 -46.5t59 -135.5v-268q0 -69 27 -89t93 -9v-65q-66 -10 -110 11.5t-50 88.5h-14q-30 -47 -83.5 -77t-121.5 -30zM414 710q-34 0 -57 18.5t-48 58.5q-19 33 -34 49t-32 16q-26 0 -40 -27.5t-12 -93.5v-11h-56v15q0 82 28.5 128.5t82.5 46.5q36 0 59 -18.5t45 -55.5
q22 -34 36.5 -51t30.5 -17q25 0 38.5 27.5t13.5 93.5v11h56v-15q0 -82 -28.5 -128.5t-82.5 -46.5z" />
    <glyph glyph-name="adieresis" unicode="&#xe4;" 
d="M85 0zM284 49q55 0 100 21.5t81 70.5v126h-201q-50 0 -81 -21.5t-31 -78.5q0 -56 31.5 -87t100.5 -31zM276 -10q-83 0 -137 43.5t-54 127.5q0 75 46.5 118t121.5 43h212v101q0 53 -35.5 88.5t-107.5 35.5t-105.5 -22.5t-53.5 -88.5l-62 17q21 81 74 119t146 38
q96 0 155 -46.5t59 -135.5v-268q0 -69 27 -89t93 -9v-65q-66 -10 -110 11.5t-50 88.5h-14q-30 -47 -83.5 -77t-121.5 -30zM221 722q-24 0 -38.5 9.5t-14.5 35.5v7q0 27 14.5 37t38.5 10t38.5 -10t14.5 -37v-7q0 -26 -15 -35.5t-38 -9.5zM439 722q-24 0 -38.5 9.5t-14.5 35.5
v7q0 27 14.5 37t38.5 10t38.5 -10t14.5 -37v-7q0 -26 -15 -35.5t-38 -9.5z" />
    <glyph glyph-name="aring" unicode="&#xe5;" 
d="M85 0zM284 49q55 0 100 21.5t81 70.5v126h-201q-50 0 -81 -21.5t-31 -78.5q0 -56 31.5 -87t100.5 -31zM276 -10q-83 0 -137 43.5t-54 127.5q0 75 46.5 118t121.5 43h212v101q0 53 -35.5 88.5t-107.5 35.5t-105.5 -22.5t-53.5 -88.5l-62 17q21 81 74 119t146 38
q96 0 155 -46.5t59 -135.5v-268q0 -69 27 -89t93 -9v-65q-66 -10 -110 11.5t-50 88.5h-14q-30 -47 -83.5 -77t-121.5 -30zM330 685q-69 0 -108.5 36.5t-39.5 108.5v32q0 73 39.5 110.5t108.5 37.5t108.5 -37.5t39.5 -110.5v-32q0 -72 -39.5 -108.5t-108.5 -36.5zM330 738
q46 0 67 21.5t21 70.5v32q0 49 -21 72t-67 23t-67 -23t-21 -72v-32q0 -49 21 -70.5t67 -21.5z" />
    <glyph glyph-name="amacron" unicode="&#x101;" 
d="M85 0zM284 49q55 0 100 21.5t81 70.5v126h-201q-50 0 -81 -21.5t-31 -78.5q0 -56 31.5 -87t100.5 -31zM276 -10q-83 0 -137 43.5t-54 127.5q0 75 46.5 118t121.5 43h212v101q0 53 -35.5 88.5t-107.5 35.5t-105.5 -22.5t-53.5 -88.5l-62 17q21 81 74 119t146 38
q96 0 155 -46.5t59 -135.5v-268q0 -69 27 -89t93 -9v-65q-66 -10 -110 11.5t-50 88.5h-14q-30 -47 -83.5 -77t-121.5 -30zM145 770v63h370v-63h-370z" />
    <glyph glyph-name="abreve" unicode="&#x103;" 
d="M85 0zM284 49q55 0 100 21.5t81 70.5v126h-201q-50 0 -81 -21.5t-31 -78.5q0 -56 31.5 -87t100.5 -31zM276 -10q-83 0 -137 43.5t-54 127.5q0 75 46.5 118t121.5 43h212v101q0 53 -35.5 88.5t-107.5 35.5t-105.5 -22.5t-53.5 -88.5l-62 17q21 81 74 119t146 38
q96 0 155 -46.5t59 -135.5v-268q0 -69 27 -89t93 -9v-65q-66 -10 -110 11.5t-50 88.5h-14q-30 -47 -83.5 -77t-121.5 -30zM330 693q-98 0 -155.5 51.5t-58.5 158.5h70q2 -81 36.5 -116t107.5 -35t107.5 35t36.5 116h70q-1 -107 -58.5 -158.5t-155.5 -51.5z" />
    <glyph glyph-name="aogonek" unicode="&#x105;" 
d="M85 0zM284 49q55 0 100 21.5t81 70.5v126h-201q-50 0 -81 -21.5t-31 -78.5q0 -56 31.5 -87t100.5 -31zM276 -10q-83 0 -137 43.5t-54 127.5q0 75 46.5 118t121.5 43h212v101q0 53 -35.5 88.5t-107.5 35.5t-105.5 -22.5t-53.5 -88.5l-62 17q21 81 74 119t146 38
q96 0 155 -46.5t59 -135.5v-268q0 -69 27 -89t93 -9v-65q-66 -10 -110 11.5t-50 88.5h-14q-30 -47 -83.5 -77t-121.5 -30zM600 -215q-60 0 -99.5 30.5t-39.5 82.5q0 46 34.5 83.5t85.5 57.5l18 -16q-38 -23 -55 -50t-17 -56q0 -35 20 -52t61 -17q19 0 40.5 2.5t39.5 6.5v-63
q-19 -4 -44 -6.5t-44 -2.5z" />
    <glyph glyph-name="aringacute" unicode="&#x1fb;" 
d="M85 0zM284 49q55 0 100 21.5t81 70.5v126h-201q-50 0 -81 -21.5t-31 -78.5q0 -56 31.5 -87t100.5 -31zM276 -10q-83 0 -137 43.5t-54 127.5q0 75 46.5 118t121.5 43h212v101q0 53 -35.5 88.5t-107.5 35.5t-105.5 -22.5t-53.5 -88.5l-62 17q21 81 74 119t146 38
q96 0 155 -46.5t59 -135.5v-268q0 -69 27 -89t93 -9v-65q-66 -10 -110 11.5t-50 88.5h-14q-30 -47 -83.5 -77t-121.5 -30zM330 685q-69 0 -108.5 36.5t-39.5 108.5v32q0 73 39.5 110.5t108.5 37.5t108.5 -37.5t39.5 -110.5v-32q0 -72 -39.5 -108.5t-108.5 -36.5zM330 738
q46 0 67 21.5t21 70.5v32q0 49 -21 72t-67 23t-67 -23t-21 -72v-32q0 -49 21 -70.5t67 -21.5zM304 1000l142 200h108l-189 -200h-61z" />
    <glyph glyph-name="b" unicode="b" 
d="M342 -10q-57 0 -117.5 16.5t-109.5 47.5v746h70v-294h18q25 46 77 75t116 29q87 0 138 -59.5t51 -168.5v-163q0 -106 -65 -167.5t-178 -61.5zM341 51q87 0 130.5 42.5t43.5 127.5v160q0 83 -33 123.5t-102 40.5q-54 0 -102 -26t-93 -82v-346q34 -20 72 -30t84 -10z" />
    <glyph glyph-name="c" unicode="c" 
d="M364 -10q-122 0 -185.5 58t-63.5 169v162q0 113 63 172t185 59q112 0 169 -47.5t64 -143.5l-68 -5q-7 72 -44.5 102.5t-121.5 30.5q-90 0 -133.5 -41t-43.5 -127v-162q0 -84 44 -124.5t135 -40.5q84 0 122 26.5t42 87.5l68 -5q-6 -87 -63 -129t-169 -42z" />
    <glyph glyph-name="ccedilla" unicode="&#xe7;" 
d="M115 0zM364 -10q-122 0 -185.5 58t-63.5 169v162q0 113 63 172t185 59q112 0 169 -47.5t64 -143.5l-68 -5q-7 72 -44.5 102.5t-121.5 30.5q-90 0 -133.5 -41t-43.5 -127v-162q0 -84 44 -124.5t135 -40.5q84 0 122 26.5t42 87.5l68 -5q-6 -87 -63 -129t-169 -42zM316 0
l14 30q54 -10 89 -41t35 -86q0 -58 -39.5 -88.5t-100.5 -30.5q-60 0 -98.5 25t-42.5 84l64 6q4 -31 20 -44t52 -13q42 0 60.5 15t18.5 54q0 38 -16.5 58t-55.5 31z" />
    <glyph glyph-name="cacute" unicode="&#x107;" 
d="M115 0zM364 -10q-122 0 -185.5 58t-63.5 169v162q0 113 63 172t185 59q112 0 169 -47.5t64 -143.5l-68 -5q-7 72 -44.5 102.5t-121.5 30.5q-90 0 -133.5 -41t-43.5 -127v-162q0 -84 44 -124.5t135 -40.5q84 0 122 26.5t42 87.5l68 -5q-6 -87 -63 -129t-169 -42zM270 700
l142 200h108l-189 -200h-61z" />
    <glyph glyph-name="ccircumflex" unicode="&#x109;" 
d="M115 0zM364 -10q-122 0 -185.5 58t-63.5 169v162q0 113 63 172t185 59q112 0 169 -47.5t64 -143.5l-68 -5q-7 72 -44.5 102.5t-121.5 30.5q-90 0 -133.5 -41t-43.5 -127v-162q0 -84 44 -124.5t135 -40.5q84 0 122 26.5t42 87.5l68 -5q-6 -87 -63 -129t-169 -42zM195 715
l-27 42l173 160h48l175 -160l-28 -42l-171 135z" />
    <glyph glyph-name="cdotaccent" unicode="&#x10b;" 
d="M115 0zM364 -10q-122 0 -185.5 58t-63.5 169v162q0 113 63 172t185 59q112 0 169 -47.5t64 -143.5l-68 -5q-7 72 -44.5 102.5t-121.5 30.5q-90 0 -133.5 -41t-43.5 -127v-162q0 -84 44 -124.5t135 -40.5q84 0 122 26.5t42 87.5l68 -5q-6 -87 -63 -129t-169 -42zM356 722
q-28 0 -46 9.5t-18 35.5v7q0 27 18 37t46 10t46 -10t18 -37v-7q0 -26 -18 -35.5t-46 -9.5z" />
    <glyph glyph-name="ccaron" unicode="&#x10d;" 
d="M115 0zM364 -10q-122 0 -185.5 58t-63.5 169v162q0 113 63 172t185 59q112 0 169 -47.5t64 -143.5l-68 -5q-7 72 -44.5 102.5t-121.5 30.5q-90 0 -133.5 -41t-43.5 -127v-162q0 -84 44 -124.5t135 -40.5q84 0 122 26.5t42 87.5l68 -5q-6 -87 -63 -129t-169 -42zM332 704
l-174 160l27 42l171 -135l170 135l28 -42l-174 -160h-48z" />
    <glyph glyph-name="d" unicode="d" 
d="M320 55q54 0 102 26t93 82v343q-36 22 -74.5 32.5t-81.5 10.5q-86 0 -130 -43t-44 -127v-161q0 -85 32.5 -124t102.5 -39zM497 94q-25 -46 -76.5 -75t-116.5 -29q-91 0 -140 59t-49 169v163q0 107 65 168t178 61q42 0 81.5 -9.5t75.5 -24.5v224h70v-800h-70v94h-18z" />
    <glyph glyph-name="dcaron" unicode="&#x10f;" 
d="M115 0zM320 55q54 0 102 26t93 82v343q-36 22 -74.5 32.5t-81.5 10.5q-86 0 -130 -43t-44 -127v-161q0 -85 32.5 -124t102.5 -39zM497 94q-25 -46 -76.5 -75t-116.5 -29q-91 0 -140 59t-49 169v163q0 107 65 168t178 61q42 0 81.5 -9.5t75.5 -24.5v224h70v-800h-70v94
h-18zM714 735l81 265h99l-126 -265h-54z" />
    <glyph glyph-name="e" unicode="e" 
d="M582 124q-25 -71 -77.5 -102.5t-153.5 -31.5q-111 0 -173.5 57.5t-62.5 170.5v161q0 116 65.5 173.5t170.5 57.5q106 0 170 -58.5t64 -179.5v-83h-400v-72q0 -88 41 -127t124 -39q76 0 110.5 22t53.5 72zM185 379v-35h330v26q0 93 -41.5 135.5t-123.5 42.5t-123.5 -41
t-41.5 -128z" />
    <glyph glyph-name="egrave" unicode="&#xe8;" 
d="M115 0zM582 124q-25 -71 -77.5 -102.5t-153.5 -31.5q-111 0 -173.5 57.5t-62.5 170.5v161q0 116 65.5 173.5t170.5 57.5q106 0 170 -58.5t64 -179.5v-83h-400v-72q0 -88 41 -127t124 -39q76 0 110.5 22t53.5 72zM185 379v-35h330v26q0 93 -41.5 135.5t-123.5 42.5
t-123.5 -41t-41.5 -128zM367 700l-189 200h108l142 -200h-61z" />
    <glyph glyph-name="eacute" unicode="&#xe9;" 
d="M115 0zM582 124q-25 -71 -77.5 -102.5t-153.5 -31.5q-111 0 -173.5 57.5t-62.5 170.5v161q0 116 65.5 173.5t170.5 57.5q106 0 170 -58.5t64 -179.5v-83h-400v-72q0 -88 41 -127t124 -39q76 0 110.5 22t53.5 72zM185 379v-35h330v26q0 93 -41.5 135.5t-123.5 42.5
t-123.5 -41t-41.5 -128zM265 700l142 200h108l-189 -200h-61z" />
    <glyph glyph-name="ecircumflex" unicode="&#xea;" 
d="M115 0zM582 124q-25 -71 -77.5 -102.5t-153.5 -31.5q-111 0 -173.5 57.5t-62.5 170.5v161q0 116 65.5 173.5t170.5 57.5q106 0 170 -58.5t64 -179.5v-83h-400v-72q0 -88 41 -127t124 -39q76 0 110.5 22t53.5 72zM185 379v-35h330v26q0 93 -41.5 135.5t-123.5 42.5
t-123.5 -41t-41.5 -128zM180 715l-27 42l173 160h48l175 -160l-28 -42l-171 135z" />
    <glyph glyph-name="edieresis" unicode="&#xeb;" 
d="M115 0zM582 124q-25 -71 -77.5 -102.5t-153.5 -31.5q-111 0 -173.5 57.5t-62.5 170.5v161q0 116 65.5 173.5t170.5 57.5q106 0 170 -58.5t64 -179.5v-83h-400v-72q0 -88 41 -127t124 -39q76 0 110.5 22t53.5 72zM185 379v-35h330v26q0 93 -41.5 135.5t-123.5 42.5
t-123.5 -41t-41.5 -128zM242 722q-24 0 -38.5 9.5t-14.5 35.5v7q0 27 14.5 37t38.5 10t38.5 -10t14.5 -37v-7q0 -26 -15 -35.5t-38 -9.5zM460 722q-24 0 -38.5 9.5t-14.5 35.5v7q0 27 14.5 37t38.5 10t38.5 -10t14.5 -37v-7q0 -26 -15 -35.5t-38 -9.5z" />
    <glyph glyph-name="emacron" unicode="&#x113;" 
d="M115 0zM582 124q-25 -71 -77.5 -102.5t-153.5 -31.5q-111 0 -173.5 57.5t-62.5 170.5v161q0 116 65.5 173.5t170.5 57.5q106 0 170 -58.5t64 -179.5v-83h-400v-72q0 -88 41 -127t124 -39q76 0 110.5 22t53.5 72zM185 379v-35h330v26q0 93 -41.5 135.5t-123.5 42.5
t-123.5 -41t-41.5 -128zM166 770v63h370v-63h-370z" />
    <glyph glyph-name="ebreve" unicode="&#x115;" 
d="M115 0zM582 124q-25 -71 -77.5 -102.5t-153.5 -31.5q-111 0 -173.5 57.5t-62.5 170.5v161q0 116 65.5 173.5t170.5 57.5q106 0 170 -58.5t64 -179.5v-83h-400v-72q0 -88 41 -127t124 -39q76 0 110.5 22t53.5 72zM185 379v-35h330v26q0 93 -41.5 135.5t-123.5 42.5
t-123.5 -41t-41.5 -128zM351 693q-98 0 -155.5 51.5t-58.5 158.5h70q2 -81 36.5 -116t107.5 -35t107.5 35t36.5 116h70q-1 -107 -58.5 -158.5t-155.5 -51.5z" />
    <glyph glyph-name="edotaccent" unicode="&#x117;" 
d="M115 0zM582 124q-25 -71 -77.5 -102.5t-153.5 -31.5q-111 0 -173.5 57.5t-62.5 170.5v161q0 116 65.5 173.5t170.5 57.5q106 0 170 -58.5t64 -179.5v-83h-400v-72q0 -88 41 -127t124 -39q76 0 110.5 22t53.5 72zM185 379v-35h330v26q0 93 -41.5 135.5t-123.5 42.5
t-123.5 -41t-41.5 -128zM351 722q-28 0 -46 9.5t-18 35.5v7q0 27 18 37t46 10t46 -10t18 -37v-7q0 -26 -18 -35.5t-46 -9.5z" />
    <glyph glyph-name="eogonek" unicode="&#x119;" 
d="M115 0zM582 124q-25 -71 -77.5 -102.5t-153.5 -31.5q-111 0 -173.5 57.5t-62.5 170.5v161q0 116 65.5 173.5t170.5 57.5q106 0 170 -58.5t64 -179.5v-83h-400v-72q0 -88 41 -127t124 -39q76 0 110.5 22t53.5 72zM185 379v-35h330v26q0 93 -41.5 135.5t-123.5 42.5
t-123.5 -41t-41.5 -128zM491 -215q-60 0 -99.5 30.5t-39.5 82.5q0 46 34.5 83.5t85.5 57.5l18 -16q-38 -23 -55 -50t-17 -56q0 -35 20 -52t61 -17q19 0 40.5 2.5t39.5 6.5v-63q-19 -4 -44 -6.5t-44 -2.5z" />
    <glyph glyph-name="ecaron" unicode="&#x11b;" 
d="M115 0zM582 124q-25 -71 -77.5 -102.5t-153.5 -31.5q-111 0 -173.5 57.5t-62.5 170.5v161q0 116 65.5 173.5t170.5 57.5q106 0 170 -58.5t64 -179.5v-83h-400v-72q0 -88 41 -127t124 -39q76 0 110.5 22t53.5 72zM185 379v-35h330v26q0 93 -41.5 135.5t-123.5 42.5
t-123.5 -41t-41.5 -128zM327 704l-174 160l27 42l171 -135l170 135l28 -42l-174 -160h-48z" />
    <glyph glyph-name="f" unicode="f" 
d="M265 0v537h-176v63h176v40q0 81 57 125.5t141 44.5q38 0 73 -7t62 -16l-14 -59q-24 8 -55 13.5t-67 5.5q-58 0 -92.5 -25t-34.5 -81v-41h256v-63h-256v-537h-70z" />
    <glyph glyph-name="g" unicode="g" 
d="M635 -48q0 -81 -54.5 -121.5t-135.5 -40.5h-188q-84 0 -138 39t-54 120q0 49 24 78.5t70 33.5v12q-34 5 -54 29t-20 65q0 49 28 82.5t84 37.5v10q-41 13 -59 43t-18 68v33q0 69 55 114t155 45h280v-63l-149 16v-11q39 -10 58 -44.5t19 -68.5v-32q0 -67 -50 -109t-162 -42
h-121q-30 0 -45.5 -17t-15.5 -57q0 -37 21 -55.5t63 -18.5h227q82 0 131 -36.5t49 -109.5zM330 301q69 0 104.5 24.5t35.5 75.5v32q0 57 -35.5 82.5t-104.5 25.5t-104.5 -25.5t-35.5 -82.5v-32q0 -51 35.5 -75.5t104.5 -24.5zM255 -151h203q54 0 82.5 23.5t28.5 73.5
q0 45 -26 65.5t-75 20.5h-333v-68q0 -57 30.5 -86t89.5 -29z" />
    <glyph glyph-name="gcircumflex" unicode="&#x11d;" 
d="M65 0zM635 -48q0 -81 -54.5 -121.5t-135.5 -40.5h-188q-84 0 -138 39t-54 120q0 49 24 78.5t70 33.5v12q-34 5 -54 29t-20 65q0 49 28 82.5t84 37.5v10q-41 13 -59 43t-18 68v33q0 69 55 114t155 45h280v-63l-149 16v-11q39 -10 58 -44.5t19 -68.5v-32q0 -67 -50 -109
t-162 -42h-121q-30 0 -45.5 -17t-15.5 -57q0 -37 21 -55.5t63 -18.5h227q82 0 131 -36.5t49 -109.5zM330 301q69 0 104.5 24.5t35.5 75.5v32q0 57 -35.5 82.5t-104.5 25.5t-104.5 -25.5t-35.5 -82.5v-32q0 -51 35.5 -75.5t104.5 -24.5zM255 -151h203q54 0 82.5 23.5
t28.5 73.5q0 45 -26 65.5t-75 20.5h-333v-68q0 -57 30.5 -86t89.5 -29zM169 715l-27 42l173 160h48l175 -160l-28 -42l-171 135z" />
    <glyph glyph-name="gbreve" unicode="&#x11f;" 
d="M65 0zM635 -48q0 -81 -54.5 -121.5t-135.5 -40.5h-188q-84 0 -138 39t-54 120q0 49 24 78.5t70 33.5v12q-34 5 -54 29t-20 65q0 49 28 82.5t84 37.5v10q-41 13 -59 43t-18 68v33q0 69 55 114t155 45h280v-63l-149 16v-11q39 -10 58 -44.5t19 -68.5v-32q0 -67 -50 -109
t-162 -42h-121q-30 0 -45.5 -17t-15.5 -57q0 -37 21 -55.5t63 -18.5h227q82 0 131 -36.5t49 -109.5zM330 301q69 0 104.5 24.5t35.5 75.5v32q0 57 -35.5 82.5t-104.5 25.5t-104.5 -25.5t-35.5 -82.5v-32q0 -51 35.5 -75.5t104.5 -24.5zM255 -151h203q54 0 82.5 23.5
t28.5 73.5q0 45 -26 65.5t-75 20.5h-333v-68q0 -57 30.5 -86t89.5 -29zM350 693q-98 0 -155.5 51.5t-58.5 158.5h70q2 -81 36.5 -116t107.5 -35t107.5 35t36.5 116h70q-1 -107 -58.5 -158.5t-155.5 -51.5z" />
    <glyph glyph-name="gdotaccent" unicode="&#x121;" 
d="M65 0zM635 -48q0 -81 -54.5 -121.5t-135.5 -40.5h-188q-84 0 -138 39t-54 120q0 49 24 78.5t70 33.5v12q-34 5 -54 29t-20 65q0 49 28 82.5t84 37.5v10q-41 13 -59 43t-18 68v33q0 69 55 114t155 45h280v-63l-149 16v-11q39 -10 58 -44.5t19 -68.5v-32q0 -67 -50 -109
t-162 -42h-121q-30 0 -45.5 -17t-15.5 -57q0 -37 21 -55.5t63 -18.5h227q82 0 131 -36.5t49 -109.5zM330 301q69 0 104.5 24.5t35.5 75.5v32q0 57 -35.5 82.5t-104.5 25.5t-104.5 -25.5t-35.5 -82.5v-32q0 -51 35.5 -75.5t104.5 -24.5zM255 -151h203q54 0 82.5 23.5
t28.5 73.5q0 45 -26 65.5t-75 20.5h-333v-68q0 -57 30.5 -86t89.5 -29zM350 722q-28 0 -46 9.5t-18 35.5v7q0 27 18 37t46 10t46 -10t18 -37v-7q0 -26 -18 -35.5t-46 -9.5z" />
    <glyph glyph-name="gcommaaccent" unicode="&#x123;" 
d="M65 0zM635 -48q0 -81 -54.5 -121.5t-135.5 -40.5h-188q-84 0 -138 39t-54 120q0 49 24 78.5t70 33.5v12q-34 5 -54 29t-20 65q0 49 28 82.5t84 37.5v10q-41 13 -59 43t-18 68v33q0 69 55 114t155 45h280v-63l-149 16v-11q39 -10 58 -44.5t19 -68.5v-32q0 -67 -50 -109
t-162 -42h-121q-30 0 -45.5 -17t-15.5 -57q0 -37 21 -55.5t63 -18.5h227q82 0 131 -36.5t49 -109.5zM330 301q69 0 104.5 24.5t35.5 75.5v32q0 57 -35.5 82.5t-104.5 25.5t-104.5 -25.5t-35.5 -82.5v-32q0 -51 35.5 -75.5t104.5 -24.5zM255 -151h203q54 0 82.5 23.5
t28.5 73.5q0 45 -26 65.5t-75 20.5h-333v-68q0 -57 30.5 -86t89.5 -29zM286 700l143 200h61l-96 -200h-108z" />
    <glyph glyph-name="h" unicode="h" 
d="M115 0v800h70v-300h18q31 51 77.5 80.5t113.5 29.5q87 0 139 -54t52 -144v-412h-70v397q0 70 -35 109t-98 39q-54 0 -101 -27t-96 -84v-434h-70z" />
    <glyph glyph-name="hcircumflex" unicode="&#x125;" 
d="M0 0zM115 0v800h70v-300h18q31 51 77.5 80.5t113.5 29.5q87 0 139 -54t52 -144v-412h-70v397q0 70 -35 109t-98 39q-54 0 -101 -27t-96 -84v-434h-70zM-21 915l-27 42l173 160h48l175 -160l-28 -42l-171 135z" />
    <glyph glyph-name="i" unicode="i" 
d="M115 0zM115 0v63h200v474h-200v63h270v-537h200v-63h-470zM350 722q-28 0 -46 9.5t-18 35.5v7q0 27 18 37t46 10t46 -10t18 -37v-7q0 -26 -18 -35.5t-46 -9.5z" />
    <glyph glyph-name="igrave" unicode="&#xec;" 
d="M115 0zM115 0v63h200v474h-200v63h270v-537h200v-63h-470zM366 700l-189 200h108l142 -200h-61z" />
    <glyph glyph-name="iacute" unicode="&#xed;" 
d="M115 0zM115 0v63h200v474h-200v63h270v-537h200v-63h-470zM264 700l142 200h108l-189 -200h-61z" />
    <glyph glyph-name="icircumflex" unicode="&#xee;" 
d="M115 0zM115 0v63h200v474h-200v63h270v-537h200v-63h-470zM179 715l-27 42l173 160h48l175 -160l-28 -42l-171 135z" />
    <glyph glyph-name="idieresis" unicode="&#xef;" 
d="M115 0zM115 0v63h200v474h-200v63h270v-537h200v-63h-470zM241 722q-24 0 -38.5 9.5t-14.5 35.5v7q0 27 14.5 37t38.5 10t38.5 -10t14.5 -37v-7q0 -26 -15 -35.5t-38 -9.5zM459 722q-24 0 -38.5 9.5t-14.5 35.5v7q0 27 14.5 37t38.5 10t38.5 -10t14.5 -37v-7
q0 -26 -15 -35.5t-38 -9.5z" />
    <glyph glyph-name="itilde" unicode="&#x129;" 
d="M115 0zM115 0v63h200v474h-200v63h270v-537h200v-63h-470zM434 710q-34 0 -57 18.5t-48 58.5q-19 33 -34 49t-32 16q-26 0 -40 -27.5t-12 -93.5v-11h-56v15q0 82 28.5 128.5t82.5 46.5q36 0 59 -18.5t45 -55.5q22 -34 36.5 -51t30.5 -17q25 0 38.5 27.5t13.5 93.5v11h56
v-15q0 -82 -28.5 -128.5t-82.5 -46.5z" />
    <glyph glyph-name="imacron" unicode="&#x12b;" 
d="M115 0zM115 0v63h200v474h-200v63h270v-537h200v-63h-470zM165 770v63h370v-63h-370z" />
    <glyph glyph-name="ibreve" unicode="&#x12d;" 
d="M115 0zM115 0v63h200v474h-200v63h270v-537h200v-63h-470zM350 693q-98 0 -155.5 51.5t-58.5 158.5h70q2 -81 36.5 -116t107.5 -35t107.5 35t36.5 116h70q-1 -107 -58.5 -158.5t-155.5 -51.5z" />
    <glyph glyph-name="iogonek" unicode="&#x12f;" 
d="M115 0zM115 0v63h200v474h-200v63h270v-537h200v-63h-470zM350 722q-28 0 -46 9.5t-18 35.5v7q0 27 18 37t46 10t46 -10t18 -37v-7q0 -26 -18 -35.5t-46 -9.5zM445 -215q-60 0 -99.5 30.5t-39.5 82.5q0 46 34.5 83.5t85.5 57.5l18 -16q-38 -23 -55 -50t-17 -56
q0 -35 20 -52t61 -17q19 0 40.5 2.5t39.5 6.5v-63q-19 -4 -44 -6.5t-44 -2.5z" />
    <glyph glyph-name="j" unicode="j" 
d="M115 0zM264 -208q-37 0 -74.5 5.5t-74.5 15.5l15 66q34 -12 67 -16.5t64 -4.5q75 0 114.5 38.5t39.5 119.5v521h-280v63h350v-594q0 -104 -60.5 -159t-160.5 -55zM447 722q-28 0 -46 9.5t-18 35.5v7q0 27 18 37t46 10t46 -10t18 -37v-7q0 -26 -18 -35.5t-46 -9.5z" />
    <glyph glyph-name="jcircumflex" unicode="&#x135;" 
d="M115 0zM264 -208q-37 0 -74.5 5.5t-74.5 15.5l15 66q34 -12 67 -16.5t64 -4.5q75 0 114.5 38.5t39.5 119.5v521h-280v63h350v-594q0 -104 -60.5 -159t-160.5 -55zM245 715l-27 42l173 160h48l175 -160l-28 -42l-171 135z" />
    <glyph glyph-name="k" unicode="k" 
d="M235 285v-285h-70v800h70v-454h81l199 254h85l-227 -280l224 -320h-80l-200 285h-82z" />
    <glyph glyph-name="kcommaaccent" unicode="&#x137;" 
d="M165 0zM235 285v-285h-70v800h70v-454h81l199 254h85l-227 -280l224 -320h-80l-200 285h-82zM221 -300l96 200h108l-143 -200h-61z" />
    <glyph glyph-name="l" unicode="l" 
d="M115 0v63h200v674h-200v63h270v-737h200v-63h-470z" />
    <glyph glyph-name="lacute" unicode="&#x13a;" 
d="M115 0zM115 0v63h200v674h-200v63h270v-737h200v-63h-470zM279 900l142 200h108l-189 -200h-61z" />
    <glyph glyph-name="lcommaaccent" unicode="&#x13c;" 
d="M115 0zM115 0v63h200v674h-200v63h270v-737h200v-63h-470zM203 -300l96 200h108l-143 -200h-61z" />
    <glyph glyph-name="lcaron" unicode="&#x13e;" 
d="M115 0zM115 0v63h200v674h-200v63h270v-737h200v-63h-470zM514 735l81 265h99l-126 -265h-54z" />
    <glyph glyph-name="m" unicode="m" 
d="M136 460v-460h-67v600h67v-80h14q19 41 47.5 65.5t67.5 24.5q40 0 68 -23.5t41 -66.5h15q19 41 50.5 65.5t73.5 24.5q54 0 86 -43.5t32 -118.5v-448h-67v435q0 60 -17 88.5t-52 28.5q-27 0 -54 -24t-58 -68v-460h-66v435q0 60 -17.5 88.5t-52.5 28.5q-27 0 -53.5 -23.5
t-57.5 -68.5z" />
    <glyph glyph-name="n" unicode="n" 
d="M115 0v600h70v-100h18q25 51 77 80.5t114 29.5q88 0 139.5 -53.5t51.5 -145.5v-411h-70v397q0 72 -34 109.5t-99 37.5q-52 0 -101.5 -27t-95.5 -80v-437h-70z" />
    <glyph glyph-name="ntilde" unicode="&#xf1;" 
d="M115 0zM115 0v600h70v-100h18q25 51 77 80.5t114 29.5q88 0 139.5 -53.5t51.5 -145.5v-411h-70v397q0 72 -34 109.5t-99 37.5q-52 0 -101.5 -27t-95.5 -80v-437h-70zM454 710q-34 0 -57 18.5t-48 58.5q-19 33 -34 49t-32 16q-26 0 -40 -27.5t-12 -93.5v-11h-56v15
q0 82 28.5 128.5t82.5 46.5q36 0 59 -18.5t45 -55.5q22 -34 36.5 -51t30.5 -17q25 0 38.5 27.5t13.5 93.5v11h56v-15q0 -82 -28.5 -128.5t-82.5 -46.5z" />
    <glyph glyph-name="nacute" unicode="&#x144;" 
d="M115 0zM115 0v600h70v-100h18q25 51 77 80.5t114 29.5q88 0 139.5 -53.5t51.5 -145.5v-411h-70v397q0 72 -34 109.5t-99 37.5q-52 0 -101.5 -27t-95.5 -80v-437h-70zM284 700l142 200h108l-189 -200h-61z" />
    <glyph glyph-name="ncommaaccent" unicode="&#x146;" 
d="M115 0zM115 0v600h70v-100h18q25 51 77 80.5t114 29.5q88 0 139.5 -53.5t51.5 -145.5v-411h-70v397q0 72 -34 109.5t-99 37.5q-52 0 -101.5 -27t-95.5 -80v-437h-70zM228 -300l96 200h108l-143 -200h-61z" />
    <glyph glyph-name="ncaron" unicode="&#x148;" 
d="M115 0zM115 0v600h70v-100h18q25 51 77 80.5t114 29.5q88 0 139.5 -53.5t51.5 -145.5v-411h-70v397q0 72 -34 109.5t-99 37.5q-52 0 -101.5 -27t-95.5 -80v-437h-70zM346 704l-174 160l27 42l171 -135l170 135l28 -42l-174 -160h-48z" />
    <glyph glyph-name="o" unicode="o" 
d="M350 -10q-113 0 -174 58.5t-61 168.5v162q0 112 61.5 171.5t174.5 59.5t173.5 -59.5t60.5 -171.5v-162q0 -110 -61 -168.5t-174 -58.5zM350 53q84 0 124.5 40t40.5 124v162q0 86 -40.5 127t-124.5 41t-124.5 -41t-40.5 -127v-162q0 -84 40.5 -124t124.5 -40z" />
    <glyph glyph-name="ograve" unicode="&#xf2;" 
d="M115 0zM350 -10q-113 0 -174 58.5t-61 168.5v162q0 112 61.5 171.5t174.5 59.5t173.5 -59.5t60.5 -171.5v-162q0 -110 -61 -168.5t-174 -58.5zM350 53q84 0 124.5 40t40.5 124v162q0 86 -40.5 127t-124.5 41t-124.5 -41t-40.5 -127v-162q0 -84 40.5 -124t124.5 -40z
M366 700l-189 200h108l142 -200h-61z" />
    <glyph glyph-name="oacute" unicode="&#xf3;" 
d="M115 0zM350 -10q-113 0 -174 58.5t-61 168.5v162q0 112 61.5 171.5t174.5 59.5t173.5 -59.5t60.5 -171.5v-162q0 -110 -61 -168.5t-174 -58.5zM350 53q84 0 124.5 40t40.5 124v162q0 86 -40.5 127t-124.5 41t-124.5 -41t-40.5 -127v-162q0 -84 40.5 -124t124.5 -40z
M264 700l142 200h108l-189 -200h-61z" />
    <glyph glyph-name="ocircumflex" unicode="&#xf4;" 
d="M115 0zM350 -10q-113 0 -174 58.5t-61 168.5v162q0 112 61.5 171.5t174.5 59.5t173.5 -59.5t60.5 -171.5v-162q0 -110 -61 -168.5t-174 -58.5zM350 53q84 0 124.5 40t40.5 124v162q0 86 -40.5 127t-124.5 41t-124.5 -41t-40.5 -127v-162q0 -84 40.5 -124t124.5 -40z
M179 715l-27 42l173 160h48l175 -160l-28 -42l-171 135z" />
    <glyph glyph-name="otilde" unicode="&#xf5;" 
d="M115 0zM350 -10q-113 0 -174 58.5t-61 168.5v162q0 112 61.5 171.5t174.5 59.5t173.5 -59.5t60.5 -171.5v-162q0 -110 -61 -168.5t-174 -58.5zM350 53q84 0 124.5 40t40.5 124v162q0 86 -40.5 127t-124.5 41t-124.5 -41t-40.5 -127v-162q0 -84 40.5 -124t124.5 -40z
M434 710q-34 0 -57 18.5t-48 58.5q-19 33 -34 49t-32 16q-26 0 -40 -27.5t-12 -93.5v-11h-56v15q0 82 28.5 128.5t82.5 46.5q36 0 59 -18.5t45 -55.5q22 -34 36.5 -51t30.5 -17q25 0 38.5 27.5t13.5 93.5v11h56v-15q0 -82 -28.5 -128.5t-82.5 -46.5z" />
    <glyph glyph-name="odieresis" unicode="&#xf6;" 
d="M115 0zM350 -10q-113 0 -174 58.5t-61 168.5v162q0 112 61.5 171.5t174.5 59.5t173.5 -59.5t60.5 -171.5v-162q0 -110 -61 -168.5t-174 -58.5zM350 53q84 0 124.5 40t40.5 124v162q0 86 -40.5 127t-124.5 41t-124.5 -41t-40.5 -127v-162q0 -84 40.5 -124t124.5 -40z
M241 722q-24 0 -38.5 9.5t-14.5 35.5v7q0 27 14.5 37t38.5 10t38.5 -10t14.5 -37v-7q0 -26 -15 -35.5t-38 -9.5zM459 722q-24 0 -38.5 9.5t-14.5 35.5v7q0 27 14.5 37t38.5 10t38.5 -10t14.5 -37v-7q0 -26 -15 -35.5t-38 -9.5z" />
    <glyph glyph-name="omacron" unicode="&#x14d;" 
d="M115 0zM350 -10q-113 0 -174 58.5t-61 168.5v162q0 112 61.5 171.5t174.5 59.5t173.5 -59.5t60.5 -171.5v-162q0 -110 -61 -168.5t-174 -58.5zM350 53q84 0 124.5 40t40.5 124v162q0 86 -40.5 127t-124.5 41t-124.5 -41t-40.5 -127v-162q0 -84 40.5 -124t124.5 -40z
M165 770v63h370v-63h-370z" />
    <glyph glyph-name="obreve" unicode="&#x14f;" 
d="M115 0zM350 -10q-113 0 -174 58.5t-61 168.5v162q0 112 61.5 171.5t174.5 59.5t173.5 -59.5t60.5 -171.5v-162q0 -110 -61 -168.5t-174 -58.5zM350 53q84 0 124.5 40t40.5 124v162q0 86 -40.5 127t-124.5 41t-124.5 -41t-40.5 -127v-162q0 -84 40.5 -124t124.5 -40z
M350 693q-98 0 -155.5 51.5t-58.5 158.5h70q2 -81 36.5 -116t107.5 -35t107.5 35t36.5 116h70q-1 -107 -58.5 -158.5t-155.5 -51.5z" />
    <glyph glyph-name="ohungarumlaut" unicode="&#x151;" 
d="M115 0zM350 -10q-113 0 -174 58.5t-61 168.5v162q0 112 61.5 171.5t174.5 59.5t173.5 -59.5t60.5 -171.5v-162q0 -110 -61 -168.5t-174 -58.5zM350 53q84 0 124.5 40t40.5 124v162q0 86 -40.5 127t-124.5 41t-124.5 -41t-40.5 -127v-162q0 -84 40.5 -124t124.5 -40z
M406 700l56 200h110l-113 -200h-53zM200 700l56 200h110l-113 -200h-53z" />
    <glyph glyph-name="p" unicode="p" 
d="M341 51q90 0 132 41t42 129v162q0 84 -33 123t-102 39q-55 0 -102 -25.5t-93 -82.5v-342q36 -22 74.5 -33t81.5 -11zM342 -10q-34 0 -76 9t-81 25v-224h-70v800h70v-100h18q26 53 77.5 81.5t112.5 28.5q90 0 141 -61t51 -167v-163q0 -107 -65 -168t-178 -61z" />
    <glyph glyph-name="q" unicode="q" 
d="M515 -200v300h-18q-31 -52 -82 -81t-114 -29q-89 0 -137.5 60t-48.5 168v163q0 109 66.5 169t176.5 60q62 0 121.5 -14.5t105.5 -41.5v-754h-70zM320 55q55 0 103 26.5t92 81.5v348q-34 19 -72 28.5t-84 9.5q-83 0 -128.5 -41.5t-45.5 -128.5v-151q0 -88 33 -130.5
t102 -42.5z" />
    <glyph glyph-name="r" unicode="r" 
d="M165 0v600h70v-100h18q31 59 76.5 84.5t101.5 25.5q73 0 117.5 -44.5t44.5 -125.5v-75h-68v59q0 57 -28 89t-87 32q-51 0 -94 -26.5t-81 -80.5v-438h-70z" />
    <glyph glyph-name="racute" unicode="&#x155;" 
d="M165 0zM165 0v600h70v-100h18q31 59 76.5 84.5t101.5 25.5q73 0 117.5 -44.5t44.5 -125.5v-75h-68v59q0 57 -28 89t-87 32q-51 0 -94 -26.5t-81 -80.5v-438h-70zM304 700l142 200h108l-189 -200h-61z" />
    <glyph glyph-name="rcommaaccent" unicode="&#x157;" 
d="M98 0zM165 0v600h70v-100h18q31 59 76.5 84.5t101.5 25.5q73 0 117.5 -44.5t44.5 -125.5v-75h-68v59q0 57 -28 89t-87 32q-51 0 -94 -26.5t-81 -80.5v-438h-70zM98 -300l96 200h108l-143 -200h-61z" />
    <glyph glyph-name="rcaron" unicode="&#x159;" 
d="M165 0zM165 0v600h70v-100h18q31 59 76.5 84.5t101.5 25.5q73 0 117.5 -44.5t44.5 -125.5v-75h-68v59q0 57 -28 89t-87 32q-51 0 -94 -26.5t-81 -80.5v-438h-70zM366 704l-174 160l27 42l171 -135l170 135l28 -42l-174 -160h-48z" />
    <glyph glyph-name="s" unicode="s" 
d="M364 -10q-74 0 -143.5 22t-126.5 68l34 56q50 -40 110.5 -61.5t125.5 -21.5q66 0 111 24.5t45 78.5q0 49 -39 72t-147 40q-113 18 -166 56.5t-53 112.5q0 81 59 127t146 46q67 0 128.5 -23.5t115.5 -64.5l-33 -55q-46 35 -99.5 57.5t-111.5 22.5q-59 0 -97.5 -25
t-38.5 -76t38 -74.5t145 -39.5q116 -18 169 -57.5t53 -111.5q0 -83 -65 -128t-160 -45z" />
    <glyph glyph-name="sacute" unicode="&#x15b;" 
d="M94 0zM364 -10q-74 0 -143.5 22t-126.5 68l34 56q50 -40 110.5 -61.5t125.5 -21.5q66 0 111 24.5t45 78.5q0 49 -39 72t-147 40q-113 18 -166 56.5t-53 112.5q0 81 59 127t146 46q67 0 128.5 -23.5t115.5 -64.5l-33 -55q-46 35 -99.5 57.5t-111.5 22.5q-59 0 -97.5 -25
t-38.5 -76t38 -74.5t145 -39.5q116 -18 169 -57.5t53 -111.5q0 -83 -65 -128t-160 -45zM262 700l142 200h108l-189 -200h-61z" />
    <glyph glyph-name="scircumflex" unicode="&#x15d;" 
d="M94 0zM364 -10q-74 0 -143.5 22t-126.5 68l34 56q50 -40 110.5 -61.5t125.5 -21.5q66 0 111 24.5t45 78.5q0 49 -39 72t-147 40q-113 18 -166 56.5t-53 112.5q0 81 59 127t146 46q67 0 128.5 -23.5t115.5 -64.5l-33 -55q-46 35 -99.5 57.5t-111.5 22.5q-59 0 -97.5 -25
t-38.5 -76t38 -74.5t145 -39.5q116 -18 169 -57.5t53 -111.5q0 -83 -65 -128t-160 -45zM177 715l-27 42l173 160h48l175 -160l-28 -42l-171 135z" />
    <glyph glyph-name="scedilla" unicode="&#x15f;" 
d="M94 0zM364 -10q-74 0 -143.5 22t-126.5 68l34 56q50 -40 110.5 -61.5t125.5 -21.5q66 0 111 24.5t45 78.5q0 49 -39 72t-147 40q-113 18 -166 56.5t-53 112.5q0 81 59 127t146 46q67 0 128.5 -23.5t115.5 -64.5l-33 -55q-46 35 -99.5 57.5t-111.5 22.5q-59 0 -97.5 -25
t-38.5 -76t38 -74.5t145 -39.5q116 -18 169 -57.5t53 -111.5q0 -83 -65 -128t-160 -45zM318 0l14 30q54 -10 89 -41t35 -86q0 -58 -39.5 -88.5t-100.5 -30.5q-60 0 -98.5 25t-42.5 84l64 6q4 -31 20 -44t52 -13q42 0 60.5 15t18.5 54q0 38 -16.5 58t-55.5 31z" />
    <glyph glyph-name="scaron" unicode="&#x161;" 
d="M94 0zM364 -10q-74 0 -143.5 22t-126.5 68l34 56q50 -40 110.5 -61.5t125.5 -21.5q66 0 111 24.5t45 78.5q0 49 -39 72t-147 40q-113 18 -166 56.5t-53 112.5q0 81 59 127t146 46q67 0 128.5 -23.5t115.5 -64.5l-33 -55q-46 35 -99.5 57.5t-111.5 22.5q-59 0 -97.5 -25
t-38.5 -76t38 -74.5t145 -39.5q116 -18 169 -57.5t53 -111.5q0 -83 -65 -128t-160 -45zM324 704l-174 160l27 42l171 -135l170 135l28 -42l-174 -160h-48z" />
    <glyph glyph-name="scommaaccent" unicode="&#x219;" 
d="M94 0zM364 -10q-74 0 -143.5 22t-126.5 68l34 56q50 -40 110.5 -61.5t125.5 -21.5q66 0 111 24.5t45 78.5q0 49 -39 72t-147 40q-113 18 -166 56.5t-53 112.5q0 81 59 127t146 46q67 0 128.5 -23.5t115.5 -64.5l-33 -55q-46 35 -99.5 57.5t-111.5 22.5q-59 0 -97.5 -25
t-38.5 -76t38 -74.5t145 -39.5q116 -18 169 -57.5t53 -111.5q0 -83 -65 -128t-160 -45zM208 -300l96 200h108l-143 -200h-61z" />
    <glyph glyph-name="t" unicode="t" 
d="M455 -9q-94 0 -147 50.5t-53 146.5v349h-170v63h170v200h70v-200h260v-63h-260v-340q0 -72 33.5 -106.5t102.5 -34.5q29 0 60 6.5t61 16.5l14 -63q-32 -12 -68 -18.5t-73 -6.5z" />
    <glyph glyph-name="tcedilla" unicode="&#x163;" 
d="M85 0zM455 -9q-94 0 -147 50.5t-53 146.5v349h-170v63h170v200h70v-200h260v-63h-260v-340q0 -72 33.5 -106.5t102.5 -34.5q29 0 60 6.5t61 16.5l14 -63q-32 -12 -68 -18.5t-73 -6.5zM385 0l14 30q54 -10 89 -41t35 -86q0 -58 -39.5 -88.5t-100.5 -30.5q-60 0 -98.5 25
t-42.5 84l64 6q4 -31 20 -44t52 -13q42 0 60.5 15t18.5 54q0 38 -16.5 58t-55.5 31z" />
    <glyph glyph-name="tcaron" unicode="&#x165;" 
d="M85 0zM455 -9q-94 0 -147 50.5t-53 146.5v349h-170v63h170v200h70v-200h260v-63h-260v-340q0 -72 33.5 -106.5t102.5 -34.5q29 0 60 6.5t61 16.5l14 -63q-32 -12 -68 -18.5t-73 -6.5zM454 735l81 265h99l-126 -265h-54z" />
    <glyph glyph-name="tcommaaccent" unicode="&#x21b;" 
d="M85 0zM455 -9q-94 0 -147 50.5t-53 146.5v349h-170v63h170v200h70v-200h260v-63h-260v-340q0 -72 33.5 -106.5t102.5 -34.5q29 0 60 6.5t61 16.5l14 -63q-32 -12 -68 -18.5t-73 -6.5zM228 -300l96 200h108l-143 -200h-61z" />
    <glyph glyph-name="u" unicode="u" 
d="M306 -10q-87 0 -139 56t-52 149v405h70v-385q0 -80 33.5 -120t99.5 -40q50 0 99.5 26.5t97.5 81.5v437h70v-600h-70v100h-18q-31 -53 -80.5 -81.5t-110.5 -28.5z" />
    <glyph glyph-name="ugrave" unicode="&#xf9;" 
d="M115 0zM306 -10q-87 0 -139 56t-52 149v405h70v-385q0 -80 33.5 -120t99.5 -40q50 0 99.5 26.5t97.5 81.5v437h70v-600h-70v100h-18q-31 -53 -80.5 -81.5t-110.5 -28.5zM336 700l-189 200h108l142 -200h-61z" />
    <glyph glyph-name="uacute" unicode="&#xfa;" 
d="M115 0zM306 -10q-87 0 -139 56t-52 149v405h70v-385q0 -80 33.5 -120t99.5 -40q50 0 99.5 26.5t97.5 81.5v437h70v-600h-70v100h-18q-31 -53 -80.5 -81.5t-110.5 -28.5zM304 700l142 200h108l-189 -200h-61z" />
    <glyph glyph-name="ucircumflex" unicode="&#xfb;" 
d="M115 0zM306 -10q-87 0 -139 56t-52 149v405h70v-385q0 -80 33.5 -120t99.5 -40q50 0 99.5 26.5t97.5 81.5v437h70v-600h-70v100h-18q-31 -53 -80.5 -81.5t-110.5 -28.5zM179 715l-27 42l173 160h48l175 -160l-28 -42l-171 135z" />
    <glyph glyph-name="udieresis" unicode="&#xfc;" 
d="M115 0zM306 -10q-87 0 -139 56t-52 149v405h70v-385q0 -80 33.5 -120t99.5 -40q50 0 99.5 26.5t97.5 81.5v437h70v-600h-70v100h-18q-31 -53 -80.5 -81.5t-110.5 -28.5zM241 722q-24 0 -38.5 9.5t-14.5 35.5v7q0 27 14.5 37t38.5 10t38.5 -10t14.5 -37v-7
q0 -26 -15 -35.5t-38 -9.5zM459 722q-24 0 -38.5 9.5t-14.5 35.5v7q0 27 14.5 37t38.5 10t38.5 -10t14.5 -37v-7q0 -26 -15 -35.5t-38 -9.5z" />
    <glyph glyph-name="utilde" unicode="&#x169;" 
d="M115 0zM306 -10q-87 0 -139 56t-52 149v405h70v-385q0 -80 33.5 -120t99.5 -40q50 0 99.5 26.5t97.5 81.5v437h70v-600h-70v100h-18q-31 -53 -80.5 -81.5t-110.5 -28.5zM434 710q-34 0 -57 18.5t-48 58.5q-19 33 -34 49t-32 16q-26 0 -40 -27.5t-12 -93.5v-11h-56v15
q0 82 28.5 128.5t82.5 46.5q36 0 59 -18.5t45 -55.5q22 -34 36.5 -51t30.5 -17q25 0 38.5 27.5t13.5 93.5v11h56v-15q0 -82 -28.5 -128.5t-82.5 -46.5z" />
    <glyph glyph-name="umacron" unicode="&#x16b;" 
d="M115 0zM306 -10q-87 0 -139 56t-52 149v405h70v-385q0 -80 33.5 -120t99.5 -40q50 0 99.5 26.5t97.5 81.5v437h70v-600h-70v100h-18q-31 -53 -80.5 -81.5t-110.5 -28.5zM165 770v63h370v-63h-370z" />
    <glyph glyph-name="ubreve" unicode="&#x16d;" 
d="M115 0zM306 -10q-87 0 -139 56t-52 149v405h70v-385q0 -80 33.5 -120t99.5 -40q50 0 99.5 26.5t97.5 81.5v437h70v-600h-70v100h-18q-31 -53 -80.5 -81.5t-110.5 -28.5zM350 693q-98 0 -155.5 51.5t-58.5 158.5h70q2 -81 36.5 -116t107.5 -35t107.5 35t36.5 116h70
q-1 -107 -58.5 -158.5t-155.5 -51.5z" />
    <glyph glyph-name="uring" unicode="&#x16f;" 
d="M115 0zM306 -10q-87 0 -139 56t-52 149v405h70v-385q0 -80 33.5 -120t99.5 -40q50 0 99.5 26.5t97.5 81.5v437h70v-600h-70v100h-18q-31 -53 -80.5 -81.5t-110.5 -28.5zM350 685q-69 0 -108.5 36.5t-39.5 108.5v32q0 73 39.5 110.5t108.5 37.5t108.5 -37.5t39.5 -110.5
v-32q0 -72 -39.5 -108.5t-108.5 -36.5zM350 738q46 0 67 21.5t21 70.5v32q0 49 -21 72t-67 23t-67 -23t-21 -72v-32q0 -49 21 -70.5t67 -21.5z" />
    <glyph glyph-name="uhungarumlaut" unicode="&#x171;" 
d="M115 0zM306 -10q-87 0 -139 56t-52 149v405h70v-385q0 -80 33.5 -120t99.5 -40q50 0 99.5 26.5t97.5 81.5v437h70v-600h-70v100h-18q-31 -53 -80.5 -81.5t-110.5 -28.5zM426 700l56 200h110l-113 -200h-53zM220 700l56 200h110l-113 -200h-53z" />
    <glyph glyph-name="uogonek" unicode="&#x173;" 
d="M115 0zM306 -10q-87 0 -139 56t-52 149v405h70v-385q0 -80 33.5 -120t99.5 -40q50 0 99.5 26.5t97.5 81.5v437h70v-600h-70v100h-18q-31 -53 -80.5 -81.5t-110.5 -28.5zM585 -215q-60 0 -99.5 30.5t-39.5 82.5q0 46 34.5 83.5t85.5 57.5l18 -16q-38 -23 -55 -50t-17 -56
q0 -35 20 -52t61 -17q19 0 40.5 2.5t39.5 6.5v-63q-19 -4 -44 -6.5t-44 -2.5z" />
    <glyph glyph-name="v" unicode="v" 
d="M391 0h-83l-219 600h75l187 -539l187 539h72z" />
    <glyph glyph-name="w" unicode="w" 
d="M456 0l-107 414l-101 -414h-78l-125 600h69l97 -528l96 428h82l103 -415l94 515h69l-125 -600h-74z" />
    <glyph glyph-name="wcircumflex" unicode="&#x175;" 
d="M45 0zM456 0l-107 414l-101 -414h-78l-125 600h69l97 -528l96 428h82l103 -415l94 515h69l-125 -600h-74zM179 715l-27 42l173 160h48l175 -160l-28 -42l-171 135z" />
    <glyph glyph-name="wgrave" unicode="&#x1e81;" 
d="M45 0zM456 0l-107 414l-101 -414h-78l-125 600h69l97 -528l96 428h82l103 -415l94 515h69l-125 -600h-74zM366 700l-189 200h108l142 -200h-61z" />
    <glyph glyph-name="wacute" unicode="&#x1e83;" 
d="M45 0zM456 0l-107 414l-101 -414h-78l-125 600h69l97 -528l96 428h82l103 -415l94 515h69l-125 -600h-74zM264 700l142 200h108l-189 -200h-61z" />
    <glyph glyph-name="wdieresis" unicode="&#x1e85;" 
d="M45 0zM456 0l-107 414l-101 -414h-78l-125 600h69l97 -528l96 428h82l103 -415l94 515h69l-125 -600h-74zM241 722q-24 0 -38.5 9.5t-14.5 35.5v7q0 27 14.5 37t38.5 10t38.5 -10t14.5 -37v-7q0 -26 -15 -35.5t-38 -9.5zM459 722q-24 0 -38.5 9.5t-14.5 35.5v7
q0 27 14.5 37t38.5 10t38.5 -10t14.5 -37v-7q0 -26 -15 -35.5t-38 -9.5z" />
    <glyph glyph-name="x" unicode="x" 
d="M516 0l-171 252l-168 -252h-76l208 305l-201 295h79l166 -245l170 245h76l-210 -297l206 -303h-79z" />
    <glyph glyph-name="y" unicode="y" 
d="M173 -206q-18 0 -37.5 2t-42.5 7l11 62q22 -5 40.5 -7t39.5 -2q49 0 81.5 26.5t57.5 94.5l9 23h-22l-221 600h75l190 -536l184 536h72l-228 -635q-33 -91 -83 -131t-126 -40z" />
    <glyph glyph-name="yacute" unicode="&#xfd;" 
d="M89 0zM173 -206q-18 0 -37.5 2t-42.5 7l11 62q22 -5 40.5 -7t39.5 -2q49 0 81.5 26.5t57.5 94.5l9 23h-22l-221 600h75l190 -536l184 536h72l-228 -635q-33 -91 -83 -131t-126 -40zM264 700l142 200h108l-189 -200h-61z" />
    <glyph glyph-name="ydieresis" unicode="&#xff;" 
d="M89 0zM173 -206q-18 0 -37.5 2t-42.5 7l11 62q22 -5 40.5 -7t39.5 -2q49 0 81.5 26.5t57.5 94.5l9 23h-22l-221 600h75l190 -536l184 536h72l-228 -635q-33 -91 -83 -131t-126 -40zM241 722q-24 0 -38.5 9.5t-14.5 35.5v7q0 27 14.5 37t38.5 10t38.5 -10t14.5 -37v-7
q0 -26 -15 -35.5t-38 -9.5zM459 722q-24 0 -38.5 9.5t-14.5 35.5v7q0 27 14.5 37t38.5 10t38.5 -10t14.5 -37v-7q0 -26 -15 -35.5t-38 -9.5z" />
    <glyph glyph-name="ycircumflex" unicode="&#x177;" 
d="M89 0zM173 -206q-18 0 -37.5 2t-42.5 7l11 62q22 -5 40.5 -7t39.5 -2q49 0 81.5 26.5t57.5 94.5l9 23h-22l-221 600h75l190 -536l184 536h72l-228 -635q-33 -91 -83 -131t-126 -40zM179 715l-27 42l173 160h48l175 -160l-28 -42l-171 135z" />
    <glyph glyph-name="ygrave" unicode="&#x1ef3;" 
d="M89 0zM173 -206q-18 0 -37.5 2t-42.5 7l11 62q22 -5 40.5 -7t39.5 -2q49 0 81.5 26.5t57.5 94.5l9 23h-22l-221 600h75l190 -536l184 536h72l-228 -635q-33 -91 -83 -131t-126 -40zM366 700l-189 200h108l142 -200h-61z" />
    <glyph glyph-name="z" unicode="z" 
d="M565 0h-430v63l347 474h-347v63h430v-63l-348 -474h348v-63z" />
    <glyph glyph-name="zacute" unicode="&#x17a;" 
d="M135 0zM565 0h-430v63l347 474h-347v63h430v-63l-348 -474h348v-63zM264 700l142 200h108l-189 -200h-61z" />
    <glyph glyph-name="zdotaccent" unicode="&#x17c;" 
d="M135 0zM565 0h-430v63l347 474h-347v63h430v-63l-348 -474h348v-63zM350 722q-28 0 -46 9.5t-18 35.5v7q0 27 18 37t46 10t46 -10t18 -37v-7q0 -26 -18 -35.5t-46 -9.5z" />
    <glyph glyph-name="zcaron" unicode="&#x17e;" 
d="M135 0zM565 0h-430v63l347 474h-347v63h430v-63l-348 -474h348v-63zM326 704l-174 160l27 42l171 -135l170 135l28 -42l-174 -160h-48z" />
    <glyph glyph-name="ordfeminine" unicode="&#xaa;" 
d="M290 376q47 0 83 17t59 49v88h-149q-48 0 -73 -16.5t-25 -54.5q0 -42 25 -62.5t80 -20.5zM276 321q-66 0 -109.5 34t-43.5 99q0 58 40.5 91t94.5 33h174v65q0 53 -30 82.5t-88 29.5q-55 0 -81 -16.5t-42 -69.5l-54 17q14 63 57 93.5t122 30.5q81 0 129 -40t48 -117v-200
q0 -47 20.5 -60t74.5 -6v-61q-60 -5 -92.5 11t-35.5 71h-11q-26 -38 -70 -62.5t-103 -24.5z" />
    <glyph glyph-name="ordmasculine" unicode="&#xba;" 
d="M350 321q-96 0 -150 47t-54 138v114q0 93 54 141.5t150 48.5t149.5 -48.5t53.5 -141.5v-114q0 -91 -54 -138t-149 -47zM350 379q71 0 105 30.5t34 96.5v114q0 68 -34 100t-105 32q-72 0 -106 -32t-34 -100v-114q0 -66 34 -96.5t106 -30.5z" />
    <glyph glyph-name="germandbls" unicode="&#xdf;" 
d="M463 -6q-60 0 -114.5 21t-91.5 60l37 55q36 -34 79.5 -53.5t92.5 -19.5q59 0 94.5 24t35.5 75q0 50 -31 73t-108 39q-104 22 -150 60t-46 104q0 72 62 115t155 46q-4 76 -48.5 113t-124.5 37q-78 0 -124 -43.5t-46 -136.5v-563h-70v576q0 112 68 172t173 60
q111 0 176.5 -61.5t65.5 -164.5v-43q-106 0 -162 -23t-56 -78q0 -46 36 -67.5t120 -38.5q96 -19 138 -59.5t42 -111.5q0 -82 -58 -124.5t-145 -42.5z" />
    <glyph glyph-name="ae" unicode="&#xe6;" 
d="M655 131q-13 -72 -50 -106.5t-112 -34.5q-51 0 -87.5 23.5t-55.5 66.5h-10q-27 -39 -63.5 -64.5t-87.5 -25.5q-62 0 -104.5 43t-42.5 128q0 73 41 116.5t101 43.5h138v95q0 62 -25.5 98.5t-77.5 36.5q-47 0 -67.5 -20t-36.5 -76l-57 18q13 65 52.5 101t110.5 36
q47 0 83.5 -22t51.5 -63q18 40 53.5 62.5t79.5 22.5q77 0 123 -49.5t46 -153.5v-118h-274v-107q0 -72 25.5 -103.5t78.5 -31.5q51 0 73 20t32 74zM384 414v-74h208v65q0 78 -26 113t-78 35q-51 0 -77.5 -34t-26.5 -105zM322 117v154h-110q-49 0 -76.5 -25t-27.5 -79
q0 -60 22 -91t71 -31q37 0 67 20t54 52z" />
    <glyph glyph-name="aeacute" unicode="&#x1fd;" 
d="M42 0zM655 131q-13 -72 -50 -106.5t-112 -34.5q-51 0 -87.5 23.5t-55.5 66.5h-10q-27 -39 -63.5 -64.5t-87.5 -25.5q-62 0 -104.5 43t-42.5 128q0 73 41 116.5t101 43.5h138v95q0 62 -25.5 98.5t-77.5 36.5q-47 0 -67.5 -20t-36.5 -76l-57 18q13 65 52.5 101t110.5 36
q47 0 83.5 -22t51.5 -63q18 40 53.5 62.5t79.5 22.5q77 0 123 -49.5t46 -153.5v-118h-274v-107q0 -72 25.5 -103.5t78.5 -31.5q51 0 73 20t32 74zM384 414v-74h208v65q0 78 -26 113t-78 35q-51 0 -77.5 -34t-26.5 -105zM322 117v154h-110q-49 0 -76.5 -25t-27.5 -79
q0 -60 22 -91t71 -31q37 0 67 20t54 52zM315 700l142 200h108l-189 -200h-61z" />
    <glyph glyph-name="eth" unicode="&#xf0;" 
d="M350 -10q-105 0 -170 57t-65 173v72q0 96 62.5 152t162.5 56q67 0 110.5 -23.5t59.5 -56.5h14q-4 68 -22.5 123t-53.5 98l-183 -83v56l144 65q-35 31 -83.5 53.5t-109.5 38.5l19 50q74 -19 131.5 -48.5t98.5 -67.5l170 77v-56l-133 -60q43 -54 63 -126t20 -163v-151
q0 -123 -65 -179.5t-170 -56.5zM351 53q87 0 125.5 40t38.5 125v63q0 80 -38.5 117.5t-125.5 37.5t-125.5 -37.5t-38.5 -117.5v-63q0 -85 38.5 -125t125.5 -40z" />
    <glyph glyph-name="oslash" unicode="&#xf8;" 
d="M185 217q0 -40 9 -70t26 -49l216 433q-17 8 -39 12t-47 4q-84 0 -124.5 -40.5t-40.5 -127.5v-162zM350 53q84 0 124.5 38.5t40.5 125.5v162q0 40 -9 70.5t-26 50.5l-216 -432q17 -7 39 -11t47 -4zM350 -10q-31 0 -59 5t-53 15l-46 -95h-68l62 124q-34 28 -52.5 72.5
t-18.5 105.5v162q0 117 64.5 174t171.5 57q31 0 59 -5t52 -15l47 95h68l-63 -124q34 -28 52.5 -74t18.5 -108v-162q0 -116 -64 -171.5t-171 -55.5z" />
    <glyph glyph-name="oslashacute" unicode="&#x1ff;" 
d="M115 0zM185 217q0 -40 9 -70t26 -49l216 433q-17 8 -39 12t-47 4q-84 0 -124.5 -40.5t-40.5 -127.5v-162zM350 53q84 0 124.5 38.5t40.5 125.5v162q0 40 -9 70.5t-26 50.5l-216 -432q17 -7 39 -11t47 -4zM350 -10q-31 0 -59 5t-53 15l-46 -95h-68l62 124
q-34 28 -52.5 72.5t-18.5 105.5v162q0 117 64.5 174t171.5 57q31 0 59 -5t52 -15l47 95h68l-63 -124q34 -28 52.5 -74t18.5 -108v-162q0 -116 -64 -171.5t-171 -55.5zM264 700l142 200h108l-189 -200h-61z" />
    <glyph glyph-name="thorn" unicode="&#xfe;" 
d="M341 51q90 0 132 41.5t42 128.5v162q0 84 -33 123t-102 39q-55 0 -102.5 -26t-92.5 -82v-342q37 -22 75 -33t81 -11zM342 -10q-34 0 -76.5 9t-80.5 25v-224h-70v1000h70v-300h18q26 53 77.5 81.5t112.5 28.5q89 0 140.5 -61t51.5 -167v-163q0 -107 -65 -168t-178 -61z
" />
    <glyph glyph-name="dcroat" unicode="&#x111;" 
d="M320 55q56 0 103 26t92 82v292q-38 22 -75.5 33t-80.5 11q-90 0 -131.5 -38t-41.5 -120v-131q0 -80 32.5 -117.5t101.5 -37.5zM497 94q-31 -49 -79.5 -76.5t-113.5 -27.5q-90 0 -139.5 56.5t-49.5 159.5v137q0 103 63.5 160t179.5 57q37 0 78.5 -9.5t78.5 -26.5v117h-200
v59h200v100h70v-100h100v-59h-100v-641h-70v94h-18z" />
    <glyph glyph-name="hbar" unicode="&#x127;" 
d="M185 384v-384h-70v641h-100v59h100v100h70v-100h200v-59h-200v-191h18q33 54 82 82t112 28q82 0 135 -50t53 -139v-371h-70v355q0 70 -36 105t-97 35q-52 0 -100 -27t-97 -84z" />
    <glyph glyph-name="dotlessi" unicode="&#x131;" 
d="M115 0v63h200v474h-200v63h270v-537h200v-63h-470z" />
    <glyph glyph-name="ij" unicode="&#x133;" 
d="M170 722q-28 0 -46 10t-18 35v7q0 26 18 36.5t46 10.5t46 -10.5t18 -36.5v-7q0 -25 -18 -35t-46 -10zM546 722q-29 0 -46.5 10t-17.5 35v7q0 26 17.5 36.5t46.5 10.5q28 0 46 -10.5t18 -36.5v-7q0 -25 -18 -35t-46 -10zM205 0h-70v600h70v-600zM391 -208q-31 0 -61.5 5
t-61.5 16l15 65q28 -12 54 -16t51 -4q61 0 94.5 35.5t33.5 110.5v533h-131v63h201v-606q0 -99 -53.5 -150.5t-141.5 -51.5z" />
    <glyph glyph-name="kgreenlandic" unicode="&#x138;" 
d="M165 0zM235 285v-285h-70v600h70v-254h81l199 254h85l-227 -280l224 -320h-80l-200 285h-82z" />
    <glyph glyph-name="ldot" unicode="&#x140;" 
d="M115 0zM115 0v63h200v674h-200v63h270v-737h200v-63h-470zM670 322q-28 0 -46 9.5t-18 35.5v7q0 27 18 37t46 10t46 -10t18 -37v-7q0 -26 -18 -35.5t-46 -9.5z" />
    <glyph glyph-name="lslash" unicode="&#x142;" 
d="M150 322v59l400 110v-59zM115 0v63h200v674h-200v63h270v-737h200v-63h-470z" />
    <glyph glyph-name="napostrophe" unicode="&#x149;" 
d="M14 0zM115 0v600h70v-100h18q25 51 77 80.5t114 29.5q88 0 139.5 -53.5t51.5 -145.5v-411h-70v397q0 72 -34 109.5t-99 37.5q-52 0 -101.5 -27t-95.5 -80v-437h-70zM14 700l142 200h108l-189 -200h-61z" />
    <glyph glyph-name="eng" unicode="&#x14b;" 
d="M397 -208q-25 0 -53 5t-58 14l15 66q27 -10 52 -14.5t47 -4.5q52 0 83.5 35t31.5 114v397q0 69 -33.5 105t-99.5 36q-54 0 -102 -26.5t-95 -81.5v-437h-70v600h70v-100h18q25 52 77.5 81t121.5 29q85 0 134 -52.5t49 -143.5v-420q0 -103 -53.5 -152.5t-134.5 -49.5z" />
    <glyph glyph-name="oe" unicode="&#x153;" 
d="M655 125q-18 -67 -57 -101t-108 -34q-50 0 -88.5 25t-52.5 71q-19 -46 -56.5 -71t-84.5 -25q-78 0 -122 57t-44 170v162q0 114 44.5 172.5t122.5 58.5q47 0 85.5 -23.5t54.5 -68.5q19 44 55 68t82 24q81 0 126.5 -56.5t45.5 -167.5v-97h-277v-86q0 -83 25.5 -119.5
t78.5 -36.5q48 0 70 20t38 70zM381 393v-53h211v44q0 88 -26.5 128t-80.5 40q-51 0 -77.5 -39t-26.5 -120zM212 49q54 0 80.5 39t26.5 129v162q0 88 -26.5 130t-80.5 42q-52 0 -78 -42t-26 -130v-162q0 -90 26 -129t78 -39z" />
    <glyph glyph-name="tbar" unicode="&#x167;" 
d="M101 295v63h469v-63h-469zM455 -9q-94 0 -147 50.5t-53 146.5v349h-170v63h170v200h70v-200h260v-63h-260v-340q0 -72 33.5 -106.5t102.5 -34.5q29 0 60 6.5t61 16.5l14 -63q-32 -12 -68 -18.5t-73 -6.5z" />
    <glyph glyph-name="longs" unicode="&#x17f;" 
d="M315 0v537h-120v63h120v40q0 81 46 125.5t112 44.5q28 0 60 -7t55 -17l-14 -59q-21 8 -46.5 14t-51.5 6q-42 0 -66.5 -25t-24.5 -81v-641h-70z" />
    <glyph glyph-name="dotlessj" unicode="&#xf6be;" 
d="M264 -208q-37 0 -74.5 5.5t-74.5 15.5l15 66q34 -12 67 -16.5t64 -4.5q75 0 114.5 38.5t39.5 119.5v521h-280v63h350v-594q0 -104 -60.5 -159t-160.5 -55z" />
    <glyph glyph-name="dotlessj" unicode="&#x237;" 
d="M264 -208q-37 0 -74.5 5.5t-74.5 15.5l15 66q34 -12 67 -16.5t64 -4.5q75 0 114.5 38.5t39.5 119.5v521h-280v63h350v-594q0 -104 -60.5 -159t-160.5 -55z" />
    <glyph glyph-name="alpha" unicode="&#x3b1;" 
d="M306 56q51 0 93.5 27t85.5 80v274q-43 53 -85.5 80t-93.5 27q-65 0 -97 -43t-32 -129v-144q0 -86 32.5 -129t96.5 -43zM503 110h-18q-34 -58 -81 -89t-111 -31q-87 0 -137.5 60.5t-50.5 167.5v164q0 107 50.5 167.5t137.5 60.5q54 0 99 -29.5t75 -80.5h18v100h70v-440
q0 -69 24 -88.5t82 -9.5v-65q-75 -10 -114 16t-44 97z" />
    <glyph glyph-name="alphatonos" unicode="&#x3ac;" 
d="M105 0zM306 56q51 0 93.5 27t85.5 80v274q-43 53 -85.5 80t-93.5 27q-65 0 -97 -43t-32 -129v-144q0 -86 32.5 -129t96.5 -43zM503 110h-18q-34 -58 -81 -89t-111 -31q-87 0 -137.5 60.5t-50.5 167.5v164q0 107 50.5 167.5t137.5 60.5q54 0 99 -29.5t75 -80.5h18v100h70
v-440q0 -69 24 -88.5t82 -9.5v-65q-75 -10 -114 16t-44 97zM338 700l82 200h104l-129 -200h-57z" />
    <glyph glyph-name="beta" unicode="&#x3b2;" 
d="M341 51q88 0 130 40t42 124v42q0 72 -39.5 106t-123.5 34h-51v61h45q72 0 106.5 30.5t34.5 94.5v18q0 75 -35 110.5t-110 35.5q-80 0 -117.5 -42t-37.5 -129v-486q34 -20 72 -29.5t84 -9.5zM342 -10q-41 0 -82.5 8.5t-74.5 22.5v-221h-70v773q0 116 62 176.5t163 60.5
q96 0 154.5 -52t58.5 -145v-26q0 -58 -29 -97.5t-86 -49.5v-17q69 -7 107.5 -52t39.5 -111v-47q0 -110 -70 -166.5t-173 -56.5z" />
    <glyph glyph-name="gamma" unicode="&#x3b3;" 
d="M390 -200h-80l6 215l-227 585h77l186 -497l181 497h77l-226 -585z" />
    <glyph glyph-name="delta" unicode="&#x3b4;" 
d="M350 -10q-110 0 -172.5 57t-62.5 170v92q0 61 37 109t108 79q-61 26 -89 62.5t-28 90.5q0 75 49.5 112.5t142.5 37.5h182v-63h-182q-61 0 -93 -19.5t-32 -66.5q0 -46 32.5 -71t141.5 -59q116 -36 158.5 -79.5t42.5 -122.5v-102q0 -113 -62.5 -170t-172.5 -57zM350 53
q85 0 125 38.5t40 125.5v102q0 61 -39.5 92t-163.5 66q-62 -28 -94.5 -70.5t-32.5 -97.5v-92q0 -87 40 -125.5t125 -38.5z" />
    <glyph glyph-name="epsilon" unicode="&#x3b5;" 
d="M354 -10q-132 0 -195 43t-63 134v10q0 55 35 96t106 45v11q-57 4 -90 34t-33 81v14q0 78 57 115t177 37q114 0 171 -40.5t64 -126.5l-69 -6q-7 60 -45 85.5t-121 25.5q-90 0 -127 -21.5t-37 -74.5v-14q0 -46 37 -65t125 -19h56v-57h-56q-102 0 -141 -23.5t-39 -86.5v-10
q0 -68 43 -96.5t145 -28.5q89 0 129.5 28t48.5 94l69 -6q-7 -92 -67 -135t-180 -43z" />
    <glyph glyph-name="epsilontonos" unicode="&#x3ad;" 
d="M96 0zM354 -10q-132 0 -195 43t-63 134v10q0 55 35 96t106 45v11q-57 4 -90 34t-33 81v14q0 78 57 115t177 37q114 0 171 -40.5t64 -126.5l-69 -6q-7 60 -45 85.5t-121 25.5q-90 0 -127 -21.5t-37 -74.5v-14q0 -46 37 -65t125 -19h56v-57h-56q-102 0 -141 -23.5
t-39 -86.5v-10q0 -68 43 -96.5t145 -28.5q89 0 129.5 28t48.5 94l69 -6q-7 -92 -67 -135t-180 -43zM288 700l82 200h104l-129 -200h-57z" />
    <glyph glyph-name="zeta" unicode="&#x3b6;" 
d="M421 -200h-106v63h110q47 0 71 20t24 66t-24 66t-71 20h-85q-113 0 -171.5 61.5t-58.5 156.5q0 57 22 109.5t67 105.5l156 185l-4 11q-104 -10 -169.5 31t-84.5 113l62 14q14 -64 85 -90.5t165 1.5l173 81l30 -78l-160 -55l-200 -244q-39 -49 -55.5 -87.5t-16.5 -91.5
q0 -75 41 -117.5t119 -42.5h84q75 0 118 -38t43 -111q0 -71 -44 -110t-120 -39z" />
    <glyph glyph-name="eta" unicode="&#x3b7;" 
d="M515 -200v605q0 69 -33.5 104t-99.5 35q-53 0 -102 -26.5t-95 -80.5v-437h-70v600h70v-100h18q25 51 78 80.5t116 29.5q86 0 137 -51.5t51 -138.5v-620h-70z" />
    <glyph glyph-name="etatonos" unicode="&#x3ae;" 
d="M115 0zM515 -200v605q0 69 -33.5 104t-99.5 35q-53 0 -102 -26.5t-95 -80.5v-437h-70v600h70v-100h18q25 51 78 80.5t116 29.5q86 0 137 -51.5t51 -138.5v-620h-70zM288 700l82 200h104l-129 -200h-57z" />
    <glyph glyph-name="theta" unicode="&#x3b8;" 
d="M350 -10q-110 0 -172.5 57.5t-62.5 169.5v362q0 113 63 172t173 59q109 0 171.5 -59t62.5 -172v-362q0 -112 -62.5 -169.5t-172.5 -57.5zM185 579v-141h330v141q0 85 -40.5 126.5t-124.5 41.5t-124.5 -41.5t-40.5 -126.5zM350 53q84 0 124.5 40.5t40.5 123.5v158h-330
v-158q0 -83 40.5 -123.5t124.5 -40.5z" />
    <glyph glyph-name="iota" unicode="&#x3b9;" 
d="M95 0zM483 -5q-79 0 -123.5 53t-44.5 146v343h-220v63h290v-407q0 -66 24.5 -100t74.5 -34q23 0 52.5 6t50.5 15l16 -61q-24 -10 -54.5 -17t-65.5 -7z" />
    <glyph glyph-name="iotadieresistonos" unicode="&#x390;" 
d="M95 0zM483 -5q-79 0 -123.5 53t-44.5 146v343h-220v63h290v-407q0 -66 24.5 -100t74.5 -34q23 0 52.5 6t50.5 15l16 -61q-24 -10 -54.5 -17t-65.5 -7zM282 700l58 200h84l-93 -200h-49zM165 712q-19 0 -31 9.5t-12 35.5v7q0 27 12 37t31 10t31 -10t12 -37v-7
q0 -26 -12 -35.5t-31 -9.5zM515 712q-19 0 -31 9.5t-12 35.5v7q0 27 12 37t31 10t31 -10t12 -37v-7q0 -26 -12 -35.5t-31 -9.5z" />
    <glyph glyph-name="iotatonos" unicode="&#x3af;" 
d="M95 0zM483 -5q-79 0 -123.5 53t-44.5 146v343h-220v63h290v-407q0 -66 24.5 -100t74.5 -34q23 0 52.5 6t50.5 15l16 -61q-24 -10 -54.5 -17t-65.5 -7zM283 700l82 200h104l-129 -200h-57z" />
    <glyph glyph-name="iotadieresis" unicode="&#x3ca;" 
d="M95 0zM483 -5q-79 0 -123.5 53t-44.5 146v343h-220v63h290v-407q0 -66 24.5 -100t74.5 -34q23 0 52.5 6t50.5 15l16 -61q-24 -10 -54.5 -17t-65.5 -7zM236 722q-24 0 -38.5 9.5t-14.5 35.5v7q0 27 14.5 37t38.5 10t38.5 -10t14.5 -37v-7q0 -26 -15 -35.5t-38 -9.5z
M454 722q-24 0 -38.5 9.5t-14.5 35.5v7q0 27 14.5 37t38.5 10t38.5 -10t14.5 -37v-7q0 -26 -15 -35.5t-38 -9.5z" />
    <glyph glyph-name="kappa" unicode="&#x3ba;" 
d="M235 285v-285h-70v600h70v-254h81l199 254h85l-227 -280l224 -320h-80l-200 285h-82z" />
    <glyph glyph-name="lambda" unicode="&#x3bb;" 
d="M536 0l-184 536l-190 -536h-73l221 600h20l-11 29q-23 61 -52.5 88t-81.5 27q-22 0 -40.5 -2.5t-40.5 -7.5l-11 63q21 4 41.5 6.5t39.5 2.5q72 0 122 -35.5t80 -118.5l234 -652h-74z" />
    <glyph glyph-name="mu" unicode="&#x3bc;" 
d="M185 20l7 -220h-84l7 220v580h70v-404q0 -70 36 -105t97 -35q50 0 88 20t69 57v467h70v-440q0 -69 22.5 -88.5t77.5 -9.5v-65q-66 -10 -101 14t-40 83h-14q-24 -38 -70 -71t-109 -33q-40 0 -72 17.5t-54 48.5v-36z" />
    <glyph glyph-name="nu" unicode="&#x3bd;" 
d="M381 0h-63l-229 600h74l196 -543q78 137 125.5 275.5t58.5 267.5h67q-17 -155 -75 -302t-154 -298z" />
    <glyph glyph-name="xi" unicode="&#x3be;" 
d="M605 -51q0 -73 -43 -111t-122 -38h-120v63h125q48 0 71.5 19t23.5 67q0 47 -23.5 66.5t-71.5 19.5h-105q-102 0 -163.5 47t-61.5 125v27q0 67 46.5 114.5t130.5 53.5v12q-54 0 -85.5 32.5t-31.5 83.5q0 42 24.5 76.5t70.5 52.5l-1 13q-86 1 -143 37.5t-73 98.5l62 14
q16 -56 84.5 -80t163.5 -8l207 80l30 -78l-217 -60l-67 -34q-36 -19 -53.5 -46.5t-17.5 -63.5q0 -48 25.5 -71t68.5 -23h176v-63h-174q-78 0 -117 -34t-39 -92v-27q0 -58 39 -91t116 -33h104q78 0 119.5 -37t41.5 -112z" />
    <glyph glyph-name="omicron" unicode="&#x3bf;" 
d="M115 0zM350 -10q-113 0 -174 58.5t-61 168.5v162q0 112 61.5 171.5t174.5 59.5t173.5 -59.5t60.5 -171.5v-162q0 -110 -61 -168.5t-174 -58.5zM350 53q84 0 124.5 40t40.5 124v162q0 86 -40.5 127t-124.5 41t-124.5 -41t-40.5 -127v-162q0 -84 40.5 -124t124.5 -40z" />
    <glyph glyph-name="omicrontonos" unicode="&#x3cc;" 
d="M115 0zM350 -10q-113 0 -174 58.5t-61 168.5v162q0 112 61.5 171.5t174.5 59.5t173.5 -59.5t60.5 -171.5v-162q0 -110 -61 -168.5t-174 -58.5zM350 53q84 0 124.5 40t40.5 124v162q0 86 -40.5 127t-124.5 41t-124.5 -41t-40.5 -127v-162q0 -84 40.5 -124t124.5 -40z
M288 700l82 200h104l-129 -200h-57z" />
    <glyph glyph-name="pi" unicode="&#x3c0;" 
d="M615 600v-63h-120v-399q0 -54 25.5 -69.5t94.5 -6.5v-65q-99 -11 -144.5 19.5t-45.5 108.5v412h-200v-537h-70v537h-100v63h560z" />
    <glyph glyph-name="rho" unicode="&#x3c1;" 
d="M380 58q69 0 102 42t33 128v151q0 85 -40.5 126.5t-124.5 41.5t-124.5 -41.5t-40.5 -126.5v-216q43 -54 91 -79.5t104 -25.5zM115 -200v579q0 113 63 172t173 59q109 0 171.5 -59t62.5 -172v-161q0 -109 -52 -168.5t-143 -59.5q-60 0 -108 29t-79 81h-18v-300h-70z" />
    <glyph glyph-name="sigma1" unicode="&#x3c2;" 
d="M304 -200v63h125q49 0 72 17t23 63q0 43 -23 60t-72 17h-85q-119 0 -174 59t-55 178v120q0 116 57.5 174.5t180.5 58.5q112 0 164 -47.5t59 -153.5l-63 -4q-4 78 -40.5 109.5t-120.5 31.5q-90 0 -128.5 -37.5t-38.5 -125.5v-136q0 -88 36.5 -125.5t122.5 -37.5h85
q78 0 119 -34.5t41 -106.5t-42 -107.5t-121 -35.5h-122z" />
    <glyph glyph-name="sigma" unicode="&#x3c3;" 
d="M330 53q72 0 108.5 40t36.5 124v132q0 95 -36.5 141.5t-108.5 46.5t-108.5 -41.5t-36.5 -126.5v-152q0 -84 36.5 -124t108.5 -40zM330 -10q-99 0 -157 58.5t-58 168.5v152q0 110 58.5 170.5t157.5 60.5h354v-73l-219 14q39 -25 59 -75t20 -117v-132q0 -110 -58 -168.5
t-157 -58.5z" />
    <glyph glyph-name="tau" unicode="&#x3c4;" 
d="M505 -3q-101 -10 -145.5 19t-44.5 104v417h-200v63h480v-63h-210v-399q0 -54 24.5 -69.5t95.5 -6.5v-65z" />
    <glyph glyph-name="upsilon" unicode="&#x3c5;" 
d="M350 -10q-114 0 -174.5 58.5t-60.5 168.5v383h70v-383q0 -87 40.5 -125.5t124.5 -38.5t124.5 38.5t40.5 125.5v383h70v-383q0 -110 -60.5 -168.5t-174.5 -58.5z" />
    <glyph glyph-name="upsilondieresistonos" unicode="&#x3b0;" 
d="M115 0zM350 -10q-114 0 -174.5 58.5t-60.5 168.5v383h70v-383q0 -87 40.5 -125.5t124.5 -38.5t124.5 38.5t40.5 125.5v383h70v-383q0 -110 -60.5 -168.5t-174.5 -58.5zM292 700l58 200h84l-93 -200h-49zM175 712q-19 0 -31 9.5t-12 35.5v7q0 27 12 37t31 10t31 -10
t12 -37v-7q0 -26 -12 -35.5t-31 -9.5zM525 712q-19 0 -31 9.5t-12 35.5v7q0 27 12 37t31 10t31 -10t12 -37v-7q0 -26 -12 -35.5t-31 -9.5z" />
    <glyph glyph-name="upsilondieresis" unicode="&#x3cb;" 
d="M115 0zM350 -10q-114 0 -174.5 58.5t-60.5 168.5v383h70v-383q0 -87 40.5 -125.5t124.5 -38.5t124.5 38.5t40.5 125.5v383h70v-383q0 -110 -60.5 -168.5t-174.5 -58.5zM241 722q-24 0 -38.5 9.5t-14.5 35.5v7q0 27 14.5 37t38.5 10t38.5 -10t14.5 -37v-7q0 -26 -15 -35.5
t-38 -9.5zM459 722q-24 0 -38.5 9.5t-14.5 35.5v7q0 27 14.5 37t38.5 10t38.5 -10t14.5 -37v-7q0 -26 -15 -35.5t-38 -9.5z" />
    <glyph glyph-name="upsilontonos" unicode="&#x3cd;" 
d="M115 0zM350 -10q-114 0 -174.5 58.5t-60.5 168.5v383h70v-383q0 -87 40.5 -125.5t124.5 -38.5t124.5 38.5t40.5 125.5v383h70v-383q0 -110 -60.5 -168.5t-174.5 -58.5zM288 700l82 200h104l-129 -200h-57z" />
    <glyph glyph-name="phi" unicode="&#x3c6;" 
d="M383 -200h-66v192q-113 10 -180.5 81t-67.5 196v80q0 81 19 145.5t59 118.5l63 -23q-34 -47 -54 -107t-20 -134v-80q0 -98 45 -153t136 -65v549h68q115 0 180.5 -71.5t65.5 -209.5v-50q0 -125 -67.5 -196t-180.5 -81v-192zM383 541v-490q90 10 135.5 65t45.5 153v50
q0 115 -45.5 168.5t-135.5 53.5z" />
    <glyph glyph-name="chi" unicode="&#x3c7;" 
d="M509 -200l-165 341l-163 -341h-75l206 402l-195 398h73l163 -335l166 335h75l-208 -398l196 -402h-73z" />
    <glyph glyph-name="psi" unicode="&#x3c8;" 
d="M383 -200h-66v192q-125 9 -186.5 76t-61.5 181v351h67v-351q0 -94 42.5 -140.5t138.5 -53.5v545h66v-545q96 7 138.5 53.5t42.5 140.5v351h67v-351q0 -114 -61.5 -181t-186.5 -76v-192z" />
    <glyph glyph-name="omega" unicode="&#x3c9;" 
d="M216 -10q-68 0 -107.5 65t-39.5 184v84q0 89 19 169.5t44 118.5l61 -23q-17 -34 -37 -108.5t-20 -156.5v-84q0 -96 22 -141t69 -45q46 0 68 37t22 119v251h66v-251q0 -82 22 -119t68 -37q47 0 69 45t22 141v84q0 82 -20 156.5t-37 108.5l61 23q24 -39 43.5 -119
t19.5 -169v-84q0 -119 -39.5 -184t-107.5 -65q-45 0 -80.5 32.5t-51.5 95.5h-6q-16 -63 -50.5 -95.5t-79.5 -32.5z" />
    <glyph glyph-name="omegatonos" unicode="&#x3ce;" 
d="M69 0zM216 -10q-68 0 -107.5 65t-39.5 184v84q0 89 19 169.5t44 118.5l61 -23q-17 -34 -37 -108.5t-20 -156.5v-84q0 -96 22 -141t69 -45q46 0 68 37t22 119v251h66v-251q0 -82 22 -119t68 -37q47 0 69 45t22 141v84q0 82 -20 156.5t-37 108.5l61 23q24 -39 43.5 -119
t19.5 -169v-84q0 -119 -39.5 -184t-107.5 -65q-45 0 -80.5 32.5t-51.5 95.5h-6q-16 -63 -50.5 -95.5t-79.5 -32.5zM298 700l82 200h104l-129 -200h-57z" />
    <glyph glyph-name="acyrillic" unicode="&#x430;" 
d="M85 0zM284 49q55 0 100 21.5t81 70.5v126h-201q-50 0 -81 -21.5t-31 -78.5q0 -56 31.5 -87t100.5 -31zM276 -10q-83 0 -137 43.5t-54 127.5q0 75 46.5 118t121.5 43h212v101q0 53 -35.5 88.5t-107.5 35.5t-105.5 -22.5t-53.5 -88.5l-62 17q21 81 74 119t146 38
q96 0 155 -46.5t59 -135.5v-268q0 -69 27 -89t93 -9v-65q-66 -10 -110 11.5t-50 88.5h-14q-30 -47 -83.5 -77t-121.5 -30z" />
    <glyph glyph-name="becyrillic" unicode="&#x431;" 
d="M350 -10q-109 0 -172 59.5t-63 176.5v291q0 116 59.5 178.5t168.5 81.5l198 35l11 -61l-194 -33q-97 -16 -140 -65.5t-43 -153.5v-39h13q19 36 66 58t118 22q103 0 158 -55t55 -153v-112q0 -113 -63 -171.5t-172 -58.5zM349 53q87 0 125.5 40t38.5 125v103
q0 80 -38.5 117.5t-125.5 37.5t-125.5 -37.5t-38.5 -117.5v-103q0 -85 38.5 -125t125.5 -40z" />
    <glyph glyph-name="vecyrillic" unicode="&#x432;" 
d="M115 0v600h231q123 0 181.5 -35.5t58.5 -111.5v-14q0 -55 -31.5 -83.5t-93.5 -32.5v-12q73 -5 108 -39.5t35 -95.5v-9q0 -86 -62.5 -126.5t-195.5 -40.5h-231zM185 344h169q93 0 127.5 19t34.5 69v14q0 53 -36.5 73t-133.5 20h-161v-195zM185 61h161q107 0 147.5 23
t40.5 86v10q0 61 -38.5 84t-141.5 23h-169v-226z" />
    <glyph glyph-name="gecyrillic" unicode="&#x433;" 
d="M165 0v600h430v-63h-360v-537h-70z" />
    <glyph glyph-name="gjecyrillic" unicode="&#x453;" 
d="M165 0zM165 0v600h430v-63h-360v-537h-70zM339 700l142 200h108l-189 -200h-61z" />
    <glyph glyph-name="decyrillic" unicode="&#x434;" 
d="M197 78v-15h284v474h-227l-3 -278q-1 -70 -12.5 -110.5t-41.5 -70.5zM125 0v-150h-70v213h62q35 26 51 72.5t17 129.5l3 335h363v-537h94v-213h-70v150h-450z" />
    <glyph glyph-name="iecyrillic" unicode="&#x435;" 
d="M115 0zM582 124q-25 -71 -77.5 -102.5t-153.5 -31.5q-111 0 -173.5 57.5t-62.5 170.5v161q0 116 65.5 173.5t170.5 57.5q106 0 170 -58.5t64 -179.5v-83h-400v-72q0 -88 41 -127t124 -39q76 0 110.5 22t53.5 72zM185 379v-35h330v26q0 93 -41.5 135.5t-123.5 42.5
t-123.5 -41t-41.5 -128z" />
    <glyph glyph-name="iegravecyrillic" unicode="&#x450;" 
d="M115 0zM582 124q-25 -71 -77.5 -102.5t-153.5 -31.5q-111 0 -173.5 57.5t-62.5 170.5v161q0 116 65.5 173.5t170.5 57.5q106 0 170 -58.5t64 -179.5v-83h-400v-72q0 -88 41 -127t124 -39q76 0 110.5 22t53.5 72zM185 379v-35h330v26q0 93 -41.5 135.5t-123.5 42.5
t-123.5 -41t-41.5 -128zM367 700l-189 200h108l142 -200h-61z" />
    <glyph glyph-name="iocyrillic" unicode="&#x451;" 
d="M115 0zM582 124q-25 -71 -77.5 -102.5t-153.5 -31.5q-111 0 -173.5 57.5t-62.5 170.5v161q0 116 65.5 173.5t170.5 57.5q106 0 170 -58.5t64 -179.5v-83h-400v-72q0 -88 41 -127t124 -39q76 0 110.5 22t53.5 72zM185 379v-35h330v26q0 93 -41.5 135.5t-123.5 42.5
t-123.5 -41t-41.5 -128zM242 722q-24 0 -38.5 9.5t-14.5 35.5v7q0 27 14.5 37t38.5 10t38.5 -10t14.5 -37v-7q0 -26 -15 -35.5t-38 -9.5zM460 722q-24 0 -38.5 9.5t-14.5 35.5v7q0 27 14.5 37t38.5 10t38.5 -10t14.5 -37v-7q0 -26 -15 -35.5t-38 -9.5z" />
    <glyph glyph-name="zhecyrillic" unicode="&#x436;" 
d="M273 293l-159 -293h-73l178 322l-183 278h73l161 -252h51v252h60v-252h47l163 252h73l-184 -276l179 -324h-73l-158 293h-47v-293h-60v293h-48z" />
    <glyph glyph-name="zecyrillic" unicode="&#x437;" 
d="M352 -10q-128 0 -188 45t-68 147l69 7q10 -78 50 -107.5t131 -29.5q104 0 146 26t42 92v10q0 61 -39 85t-135 24h-50v58h50q85 0 120.5 20.5t35.5 71.5v14q0 53 -38.5 74t-131.5 21q-82 0 -118 -27t-45 -99l-69 8q7 96 63 138t175 42q113 0 173.5 -37.5t60.5 -118.5v-14
q0 -54 -31.5 -83.5t-91.5 -33.5v-12q71 -5 106 -41t35 -96v-10q0 -85 -60 -129.5t-192 -44.5z" />
    <glyph glyph-name="iicyrillic" unicode="&#x438;" 
d="M517 0v502l-320 -502h-82v600h68v-506l323 506h79v-600h-68z" />
    <glyph glyph-name="iishortcyrillic" unicode="&#x439;" 
d="M115 0zM517 0v502l-320 -502h-82v600h68v-506l323 506h79v-600h-68zM350 693q-86 0 -145.5 45.5t-60.5 157.5l70 7q2 -82 33 -117t103 -35t103 35t33 117l70 -7q-1 -112 -60.5 -157.5t-145.5 -45.5z" />
    <glyph glyph-name="igravecyrillic" unicode="&#x45d;" 
d="M115 0zM517 0v502l-320 -502h-82v600h68v-506l323 506h79v-600h-68zM366 700l-189 200h108l142 -200h-61z" />
    <glyph glyph-name="kacyrillic" unicode="&#x43a;" 
d="M235 285v-285h-70v600h70v-254h81l199 254h85l-227 -280l224 -320h-80l-200 285h-82z" />
    <glyph glyph-name="kjecyrillic" unicode="&#x45c;" 
d="M165 0zM235 285v-285h-70v600h70v-254h81l199 254h85l-227 -280l224 -320h-80l-200 285h-82zM327 700l142 200h108l-189 -200h-61z" />
    <glyph glyph-name="elcyrillic" unicode="&#x43b;" 
d="M515 0v537h-251l-3 -302q-1 -124 -42.5 -184.5t-119.5 -60.5q-19 0 -36.5 3t-32.5 8l13 61q15 -4 27 -6.5t25 -2.5q54 0 76.5 44t23.5 151l3 352h387v-600h-70z" />
    <glyph glyph-name="emcyrillic" unicode="&#x43c;" 
d="M313 150l-148 367v-517h-66v600h102l151 -384l150 384h99v-600h-66l-1 516l-147 -366h-74z" />
    <glyph glyph-name="encyrillic" unicode="&#x43d;" 
d="M115 0v600h70v-222h330v222h70v-600h-70v315h-330v-315h-70z" />
    <glyph glyph-name="ocyrillic" unicode="&#x43e;" 
d="M115 0zM350 -10q-113 0 -174 58.5t-61 168.5v162q0 112 61.5 171.5t174.5 59.5t173.5 -59.5t60.5 -171.5v-162q0 -110 -61 -168.5t-174 -58.5zM350 53q84 0 124.5 40t40.5 124v162q0 86 -40.5 127t-124.5 41t-124.5 -41t-40.5 -127v-162q0 -84 40.5 -124t124.5 -40z" />
    <glyph glyph-name="pecyrillic" unicode="&#x43f;" 
d="M115 0v600h470v-600h-70v537h-330v-537h-70z" />
    <glyph glyph-name="ercyrillic" unicode="&#x440;" 
d="M115 0zM341 51q90 0 132 41t42 129v162q0 84 -33 123t-102 39q-55 0 -102 -25.5t-93 -82.5v-342q36 -22 74.5 -33t81.5 -11zM342 -10q-34 0 -76 9t-81 25v-224h-70v800h70v-100h18q26 53 77.5 81.5t112.5 28.5q90 0 141 -61t51 -167v-163q0 -107 -65 -168t-178 -61z" />
    <glyph glyph-name="escyrillic" unicode="&#x441;" 
d="M115 0zM364 -10q-122 0 -185.5 58t-63.5 169v162q0 113 63 172t185 59q112 0 169 -47.5t64 -143.5l-68 -5q-7 72 -44.5 102.5t-121.5 30.5q-90 0 -133.5 -41t-43.5 -127v-162q0 -84 44 -124.5t135 -40.5q84 0 122 26.5t42 87.5l68 -5q-6 -87 -63 -129t-169 -42z" />
    <glyph glyph-name="tecyrillic" unicode="&#x442;" 
d="M315 0v537h-230v63h530v-63h-230v-537h-70z" />
    <glyph glyph-name="ucyrillic" unicode="&#x443;" 
d="M89 0zM173 -206q-18 0 -37.5 2t-42.5 7l11 62q22 -5 40.5 -7t39.5 -2q49 0 81.5 26.5t57.5 94.5l9 23h-22l-221 600h75l190 -536l184 536h72l-228 -635q-33 -91 -83 -131t-126 -40z" />
    <glyph glyph-name="ushortcyrillic" unicode="&#x45e;" 
d="M89 0zM173 -206q-18 0 -37.5 2t-42.5 7l11 62q22 -5 40.5 -7t39.5 -2q49 0 81.5 26.5t57.5 94.5l9 23h-22l-221 600h75l190 -536l184 536h72l-228 -635q-33 -91 -83 -131t-126 -40zM350 693q-86 0 -145.5 45.5t-60.5 157.5l70 7q2 -82 33 -117t103 -35t103 35t33 117
l70 -7q-1 -112 -60.5 -157.5t-145.5 -45.5z" />
    <glyph glyph-name="efcyrillic" unicode="&#x444;" 
d="M442 0h-59v-200h-66v200h-59q-89 0 -139 60t-50 167v146q0 107 50 167t139 60h59v200h66v-200h59q89 0 139 -60t50 -167v-146q0 -107 -50 -167t-139 -60zM269 61h50v478h-50q-67 0 -100 -42.5t-33 -127.5v-140q0 -84 33 -126t100 -42zM431 539h-50v-478h50q67 0 100 42
t33 126v140q0 85 -33 127.5t-100 42.5z" />
    <glyph glyph-name="khacyrillic" unicode="&#x445;" 
d="M101 0zM516 0l-171 252l-168 -252h-76l208 305l-201 295h79l166 -245l170 245h76l-210 -297l206 -303h-79z" />
    <glyph glyph-name="tsecyrillic" unicode="&#x446;" 
d="M570 -150v150h-455v600h70v-537h280v537h70v-537h100v-213h-65z" />
    <glyph glyph-name="checyrillic" unicode="&#x447;" 
d="M535 600v-600h-70v216q-30 -11 -64.5 -18.5t-74.5 -7.5q-117 0 -174 54.5t-57 166.5v189h70v-187q0 -87 40 -124t122 -38q41 -1 76.5 8t61.5 25v316h70z" />
    <glyph glyph-name="shacyrillic" unicode="&#x448;" 
d="M69 0v600h67v-540h181v540h66v-540h181v540h67v-600h-562z" />
    <glyph glyph-name="shchacyrillic" unicode="&#x449;" 
d="M683 -150h-62v150h-552v600h67v-540h181v540h66v-540h181v540h67v-537h52v-213z" />
    <glyph glyph-name="hardsigncyrillic" unicode="&#x44a;" 
d="M421 0h-256v537h-150v63h220v-212h185q91 0 143 -43t52 -122v-54q0 -81 -52 -125t-142 -44zM235 63h165q77 0 111 25t34 81v54q0 55 -34 79t-111 24h-165v-263z" />
    <glyph glyph-name="yericyrillic" unicode="&#x44b;" 
d="M92 0v600h67v-212h104q77 0 121 -43.5t44 -121.5v-54q0 -80 -44 -124.5t-120 -44.5h-172zM541 0v600h67v-600h-67zM159 61h84q63 0 90.5 25.5t27.5 82.5v54q0 56 -27.5 80t-90.5 24h-84v-266z" />
    <glyph glyph-name="softsigncyrillic" unicode="&#x44c;" 
d="M115 0v600h70v-212h235q91 0 143 -44t52 -121v-54q0 -79 -52 -124t-142 -45h-306zM185 63h215q77 0 111 25t34 81v54q0 55 -34 79t-111 24h-215v-263z" />
    <glyph glyph-name="ereversedcyrillic" unicode="&#x44d;" 
d="M336 -10q-112 0 -169 42t-63 129l68 4q7 -62 43.5 -87t120.5 -25q92 0 135.5 39t43.5 125v65h-242v59h242v40q0 88 -43.5 127t-133.5 39q-85 0 -122 -29.5t-44 -103.5l-68 5q7 98 63.5 144.5t169.5 46.5q128 0 188 -59.5t60 -172.5v-155q0 -114 -60 -173.5t-189 -59.5z
" />
    <glyph glyph-name="iucyrillic" unicode="&#x44e;" 
d="M442 -10q-91 0 -137 57t-46 162v90h-114v-299h-70v600h70v-238h114v26q0 107 46 164.5t138 57.5t137 -58t45 -165v-178q0 -105 -45.5 -162t-137.5 -57zM442 53q62 0 89.5 36.5t27.5 119.5v178q0 85 -27.5 122.5t-89.5 37.5t-89.5 -37.5t-27.5 -122.5v-178
q0 -83 27.5 -119.5t89.5 -36.5z" />
    <glyph glyph-name="iacyrillic" unicode="&#x44f;" 
d="M300 271h215v266h-215q-61 0 -88 -27.5t-27 -90.5v-22q0 -67 27 -96.5t88 -29.5zM515 210h-134l-191 -210h-84l189 210q-89 2 -134.5 49.5t-45.5 133.5v22q0 91 46.5 138t137.5 47h286v-600h-70v210z" />
    <glyph glyph-name="djecyrillic" unicode="&#x452;" 
d="M404 -208q-27 0 -56 5.5t-57 15.5l15 65q24 -10 47.5 -15t47.5 -5q55 0 84.5 35.5t29.5 110.5v351q0 66 -35 103t-98 37q-49 0 -100.5 -29t-96.5 -82v-384h-70v641h-100v59h100v100h70v-100h200v-59h-200v-191h18q30 50 84 80t113 30q84 0 134.5 -51.5t50.5 -137.5v-377
q0 -99 -49.5 -150.5t-131.5 -51.5z" />
    <glyph glyph-name="ecyrillic" unicode="&#x454;" 
d="M595 161q-6 -86 -63.5 -128.5t-168.5 -42.5q-125 0 -187 58t-62 175v155q0 117 61.5 174.5t186.5 57.5q111 0 169 -47.5t65 -143.5l-68 -5q-7 73 -45 103t-122 30q-92 0 -134.5 -39.5t-42.5 -126.5v-40h242v-59h-242v-65q0 -86 43 -125t136 -39q83 0 120 25.5t45 86.5z
" />
    <glyph glyph-name="dzecyrillic" unicode="&#x455;" 
d="M94 0zM364 -10q-74 0 -143.5 22t-126.5 68l34 56q50 -40 110.5 -61.5t125.5 -21.5q66 0 111 24.5t45 78.5q0 49 -39 72t-147 40q-113 18 -166 56.5t-53 112.5q0 81 59 127t146 46q67 0 128.5 -23.5t115.5 -64.5l-33 -55q-46 35 -99.5 57.5t-111.5 22.5q-59 0 -97.5 -25
t-38.5 -76t38 -74.5t145 -39.5q116 -18 169 -57.5t53 -111.5q0 -83 -65 -128t-160 -45z" />
    <glyph glyph-name="icyrillic" unicode="&#x456;" 
d="M115 0zM115 0v63h200v474h-200v63h270v-537h200v-63h-470zM350 722q-28 0 -46 9.5t-18 35.5v7q0 27 18 37t46 10t46 -10t18 -37v-7q0 -26 -18 -35.5t-46 -9.5z" />
    <glyph glyph-name="yicyrillic" unicode="&#x457;" 
d="M115 0zM115 0v63h200v474h-200v63h270v-537h200v-63h-470zM241 722q-24 0 -38.5 9.5t-14.5 35.5v7q0 27 14.5 37t38.5 10t38.5 -10t14.5 -37v-7q0 -26 -15 -35.5t-38 -9.5zM459 722q-24 0 -38.5 9.5t-14.5 35.5v7q0 27 14.5 37t38.5 10t38.5 -10t14.5 -37v-7
q0 -26 -15 -35.5t-38 -9.5z" />
    <glyph glyph-name="jecyrillic" unicode="&#x458;" 
d="M115 0zM264 -208q-37 0 -74.5 5.5t-74.5 15.5l15 66q34 -12 67 -16.5t64 -4.5q75 0 114.5 38.5t39.5 119.5v521h-280v63h350v-594q0 -104 -60.5 -159t-160.5 -55zM447 722q-28 0 -46 9.5t-18 35.5v7q0 27 18 37t46 10t46 -10t18 -37v-7q0 -26 -18 -35.5t-46 -9.5z" />
    <glyph glyph-name="ljecyrillic" unicode="&#x459;" 
d="M195 537l-6 -381q-1 -87 -35.5 -125t-83.5 -38q-16 0 -31.5 3t-31.5 8l16 69q10 -4 20.5 -6.5t19.5 -2.5q24 0 41.5 20t18.5 82l8 434h262v-200h73q80 0 122.5 -43t42.5 -122v-72q0 -78 -42.5 -120.5t-121.5 -42.5h-140v537h-132zM393 61h65q51 1 79 25.5t28 83.5v63
q0 58 -28 82t-79 24h-65v-278z" />
    <glyph glyph-name="njecyrillic" unicode="&#x45a;" 
d="M383 61h71q50 0 78.5 23.5t28.5 77.5v68q0 57 -28.5 80t-78.5 23h-71v-272zM139 323v-323h-66v600h66v-216h178v216h66v-206h79q80 0 122.5 -42t42.5 -120v-72q0 -77 -42 -118.5t-122 -41.5h-146v323h-178z" />
    <glyph glyph-name="tshecyrillic" unicode="&#x45b;" 
d="M15 0zM185 384v-384h-70v641h-100v59h100v100h70v-100h200v-59h-200v-191h18q33 54 82 82t112 28q82 0 135 -50t53 -139v-371h-70v355q0 70 -36 105t-97 35q-52 0 -100 -27t-97 -84z" />
    <glyph glyph-name="dzhecyrillic" unicode="&#x45f;" 
d="M316 -150v150h-201v600h70v-537h330v537h70v-600h-201v-150h-68z" />
    <glyph glyph-name="gheupturncyrillic" unicode="&#x491;" 
d="M165 0v600h365v135h65v-198h-360v-537h-70z" />
    <glyph glyph-name="nsuperior" unicode="&#x207f;" 
d="M162 303v499h59v-83h15q24 47 64.5 69t83.5 22q67 0 110.5 -46t43.5 -124v-337h-59v326q0 63 -27.5 94.5t-77.5 31.5q-43 0 -80.5 -23.5t-72.5 -63.5v-365h-59z" />
    <glyph glyph-name="gravecmb" unicode="&#x300;" horiz-adv-x="0" 
d="M16 700l-189 200h108l142 -200h-61z" />
    <glyph glyph-name="acutecmb" unicode="&#x301;" horiz-adv-x="0" 
d="M-86 700l142 200h108l-189 -200h-61z" />
    <glyph glyph-name="circumflexcmb" unicode="&#x302;" horiz-adv-x="0" 
d="M-171 715l-27 42l173 160h48l175 -160l-28 -42l-171 135z" />
    <glyph glyph-name="tildecmb" unicode="&#x303;" horiz-adv-x="0" 
d="M84 710q-34 0 -57 18.5t-48 58.5q-19 33 -34 49t-32 16q-26 0 -40 -27.5t-12 -93.5v-11h-56v15q0 82 28.5 128.5t82.5 46.5q36 0 59 -18.5t45 -55.5q22 -34 36.5 -51t30.5 -17q25 0 38.5 27.5t13.5 93.5v11h56v-15q0 -82 -28.5 -128.5t-82.5 -46.5z" />
    <glyph glyph-name="macroncmb" unicode="&#x304;" horiz-adv-x="0" 
d="M-185 770v63h370v-63h-370z" />
    <glyph glyph-name="brevecmb" unicode="&#x306;" horiz-adv-x="0" 
d="M0 693q-98 0 -155.5 51.5t-58.5 158.5h70q2 -81 36.5 -116t107.5 -35t107.5 35t36.5 116h70q-1 -107 -58.5 -158.5t-155.5 -51.5z" />
    <glyph glyph-name="dotaccentcmb" unicode="&#x307;" horiz-adv-x="0" 
d="M0 722q-28 0 -46 9.5t-18 35.5v7q0 27 18 37t46 10t46 -10t18 -37v-7q0 -26 -18 -35.5t-46 -9.5z" />
    <glyph glyph-name="dieresiscmb" unicode="&#x308;" horiz-adv-x="0" 
d="M-109 722q-24 0 -38.5 9.5t-14.5 35.5v7q0 27 14.5 37t38.5 10t38.5 -10t14.5 -37v-7q0 -26 -15 -35.5t-38 -9.5zM109 722q-24 0 -38.5 9.5t-14.5 35.5v7q0 27 14.5 37t38.5 10t38.5 -10t14.5 -37v-7q0 -26 -15 -35.5t-38 -9.5z" />
    <glyph glyph-name="ringcmb" unicode="&#x30a;" horiz-adv-x="0" 
d="M0 685q-69 0 -108.5 36.5t-39.5 108.5v32q0 73 39.5 110.5t108.5 37.5t108.5 -37.5t39.5 -110.5v-32q0 -72 -39.5 -108.5t-108.5 -36.5zM0 738q46 0 67 21.5t21 70.5v32q0 49 -21 72t-67 23t-67 -23t-21 -72v-32q0 -49 21 -70.5t67 -21.5z" />
    <glyph glyph-name="hungarumlautcmb" unicode="&#x30b;" horiz-adv-x="0" 
d="M76 700l56 200h110l-113 -200h-53zM-130 700l56 200h110l-113 -200h-53z" />
    <glyph glyph-name="caroncmb" unicode="&#x30c;" horiz-adv-x="0" 
d="M-24 704l-174 160l27 42l171 -135l170 135l28 -42l-174 -160h-48z" />
    <glyph glyph-name="commaturnedabovecmb" unicode="&#x312;" horiz-adv-x="0" 
d="M-104 700l143 200h61l-96 -200h-108z" />
    <glyph glyph-name="commaaccentcmb" unicode="&#x326;" horiz-adv-x="0" 
d="M-122 -300l96 200h108l-143 -200h-61z" />
    <glyph glyph-name="cedillacmb" unicode="&#x327;" horiz-adv-x="0" 
d="M-30 0l14 30q54 -10 89 -41t35 -86q0 -58 -39.5 -88.5t-100.5 -30.5q-60 0 -98.5 25t-42.5 84l64 6q4 -31 20 -44t52 -13q42 0 60.5 15t18.5 54q0 38 -16.5 58t-55.5 31z" />
    <glyph glyph-name="ogonekcmb" unicode="&#x328;" horiz-adv-x="0" 
d="M55 -215q-60 0 -99.5 30.5t-39.5 82.5q0 46 34.5 83.5t85.5 57.5l18 -16q-38 -23 -55 -50t-17 -56q0 -35 20 -52t61 -17q19 0 40.5 2.5t39.5 6.5v-63q-19 -4 -44 -6.5t-44 -2.5z" />
    <glyph glyph-name="zero" unicode="0" 
d="M350 -10q-125 0 -190 90t-65 263v110q0 175 65.5 266t190.5 91t189.5 -91t64.5 -266v-110q0 -173 -65 -263t-190 -90zM350 53q97 0 141 71t44 225v98q0 157 -44 228.5t-141 71.5t-141 -71.5t-44 -228.5v-98q0 -154 44 -225t141 -71zM350 334q-27 0 -43.5 10t-16.5 37v37
q0 27 16.5 37t43.5 10t43 -10t16 -37v-37q0 -27 -16.5 -37t-42.5 -10z" />
    <glyph glyph-name="one" unicode="1" 
d="M145 0v63h220v620h-17q-27 -60 -84.5 -93.5t-132.5 -29.5l-10 71q89 -3 154.5 42.5t92.5 126.5h67v-737h200v-63h-490z" />
    <glyph glyph-name="two" unicode="2" 
d="M95 0v170q0 88 39 139t123 73l160 40q59 15 83.5 45t24.5 86v41q0 81 -39.5 117t-135.5 36q-91 0 -128.5 -39.5t-46.5 -140.5l-70 7q7 123 65 179.5t179 56.5q123 0 184.5 -51.5t61.5 -154.5v-66q0 -72 -41.5 -115.5t-125.5 -65.5l-152 -38q-55 -13 -83 -46.5t-28 -100.5
v-109h440v-63h-510z" />
    <glyph glyph-name="three" unicode="3" 
d="M340 -10q-135 0 -191.5 51t-63.5 161l70 8q10 -93 48.5 -126t136.5 -33q107 0 151 37.5t44 128.5v27q0 83 -42 117t-143 34h-88v63h88q90 0 127.5 26.5t37.5 91.5v32q0 78 -39.5 109.5t-135.5 31.5q-86 0 -122 -31t-43 -113l-70 8q7 104 63.5 150.5t171.5 46.5
q122 0 183.5 -47.5t61.5 -154.5v-32q0 -63 -38 -99.5t-104 -41.5v-17q79 -6 120.5 -53t41.5 -121v-27q0 -115 -61 -171t-204 -56z" />
    <glyph glyph-name="four" unicode="4" 
d="M164 288h301v440zM655 225h-120v-225h-70v225h-380v63l347 512h103v-512h120v-63z" />
    <glyph glyph-name="five" unicode="5" 
d="M343 -10q-131 0 -189.5 49.5t-68.5 168.5l70 7q10 -94 49.5 -128t139.5 -34q99 0 145 40.5t46 122.5v48q0 78 -36.5 114.5t-113.5 36.5h-270v385h450v-63h-380v-257h200q109 0 164.5 -52.5t55.5 -154.5v-67q0 -103 -67 -159.5t-195 -56.5z" />
    <glyph glyph-name="six" unicode="6" 
d="M350 -10q-128 0 -191.5 71.5t-63.5 214.5v243q0 144 66 217.5t191 73.5q111 0 166.5 -40.5t74.5 -132.5l-73 -15q-15 70 -50 97.5t-120 27.5q-99 0 -142 -53t-43 -175v-120h14q26 40 71 62.5t118 22.5q119 0 178 -61.5t59 -160.5v-22q0 -120 -66.5 -185t-188.5 -65z
M349 53q94 0 139 45t45 140v13q0 87 -45 128.5t-139 41.5t-139 -41.5t-45 -128.5v-13q0 -95 45 -140t139 -45z" />
    <glyph glyph-name="seven" unicode="7" 
d="M265 0q53 244 98.5 396.5t171.5 336.5h-440v67h510v-67q-130 -213 -178 -373.5t-82 -359.5h-80z" />
    <glyph glyph-name="eight" unicode="8" 
d="M350 -10q-131 0 -193 53t-62 164v22q0 83 39.5 130t108.5 54v17q-57 5 -92.5 45t-35.5 111v32q0 99 57 145.5t178 46.5t178 -46.5t57 -145.5v-32q0 -71 -35.5 -111t-92.5 -45v-17q69 -7 108.5 -54.5t39.5 -129.5v-22q0 -111 -62 -164t-193 -53zM350 450q91 0 128 29.5
t37 101.5v27q0 78 -37 109.5t-128 31.5t-128 -31.5t-37 -109.5v-27q0 -72 37 -101.5t128 -29.5zM350 51q102 0 143.5 37t41.5 129v17q0 84 -41.5 118.5t-143.5 34.5t-143.5 -34.5t-41.5 -118.5v-17q0 -92 41.5 -129t143.5 -37z" />
    <glyph glyph-name="nine" unicode="9" 
d="M351 379q93 0 138.5 41.5t45.5 128.5v13q0 94 -45.5 139.5t-138.5 45.5t-138.5 -45.5t-45.5 -139.5v-13q0 -87 45.5 -128.5t138.5 -41.5zM348 -10q-111 0 -166.5 40.5t-74.5 132.5l73 17q16 -73 51.5 -100t118.5 -27q99 0 142 53t43 175v120h-14q-29 -41 -75.5 -63
t-115.5 -22q-113 0 -174 60t-61 162v22q0 120 66.5 185t188.5 65q129 0 192 -71.5t63 -214.5v-243q0 -139 -63.5 -215t-193.5 -76z" />
    <glyph glyph-name="onequarter" unicode="&#xbc;" 
d="M194 410v53h136v258h-9q-12 -40 -49.5 -64t-84.5 -25l-6 55q47 2 92.5 30.5t58.5 88.5h61v-343h124v-53h-323zM0 264v72l318 -13v-46zM700 264l-304 13v46l304 13v-72zM476 -210h-63v105h-260v52l241 269h82v-269h93v-52h-93v-105zM217 -53h196v216z" />
    <glyph glyph-name="onehalf" unicode="&#xbd;" 
d="M194 410v53h136v258h-9q-12 -40 -49.5 -64t-84.5 -25l-6 55q47 2 92.5 30.5t58.5 88.5h61v-343h124v-53h-323zM0 264v72l318 -13v-46zM700 264l-304 13v46l304 13v-72zM537 -211h-373v84q0 48 26 77t90 42l109 22q45 9 62 20.5t17 38.5v19q0 35 -26 51t-92 16
t-89.5 -15.5t-26.5 -57.5l-65 5q4 62 45.5 91t135.5 29q96 0 138 -29.5t42 -86.5v-34q0 -41 -28.5 -64.5t-85.5 -35.5l-108 -22q-43 -8 -62 -24.5t-19 -71.5h310v-54z" />
    <glyph glyph-name="threequarters" unicode="&#xbe;" 
d="M348 403q-102 0 -144.5 28t-46.5 84l64 4q4 -35 26.5 -49t100.5 -14q71 0 98.5 15t27.5 48v16q0 29 -27.5 42t-96.5 13h-56v53h56q60 0 86 9.5t26 34.5v20q0 28 -29 39.5t-89 11.5q-56 0 -82 -11.5t-28 -40.5l-65 5q4 54 46 77t129 23t133.5 -22t46.5 -76v-16
q0 -32 -22 -50.5t-58 -22.5v-12q41 -3 67 -25t26 -56v-14q0 -59 -45.5 -86.5t-143.5 -27.5zM0 264v72l318 -13v-46zM700 264l-304 13v46l304 13v-72zM476 -210h-63v105h-260v52l241 269h82v-269h93v-52h-93v-105zM217 -53h196v216z" />
    <glyph glyph-name="oneeighth" unicode="&#x215b;" 
d="M194 410v53h136v258h-9q-12 -40 -49.5 -64t-84.5 -25l-6 55q47 2 92.5 30.5t58.5 88.5h61v-343h124v-53h-323zM0 264v72l318 -13v-46zM700 264l-304 13v46l304 13v-72zM352 -216q-107 0 -147 32.5t-40 88.5v10q0 39 23 63t64 27v12q-32 4 -53.5 23t-21.5 50v14
q0 57 45.5 82.5t129.5 25.5t129.5 -24.5t45.5 -83.5v-14q0 -31 -21.5 -50t-53.5 -23v-12q42 -3 65 -28t23 -62v-10q0 -57 -40.5 -89t-147.5 -32zM352 36q60 0 85.5 11.5t25.5 38.5v15q0 32 -25.5 45t-85.5 13q-59 0 -84.5 -13t-25.5 -45v-15q0 -27 25.5 -38.5t84.5 -11.5z
M352 -163q72 0 97.5 18t25.5 55v9q0 34 -25.5 49.5t-97.5 15.5t-97 -15.5t-25 -49.5v-9q0 -37 25 -55t97 -18z" />
    <glyph glyph-name="threeeighths" unicode="&#x215c;" 
d="M348 403q-102 0 -144.5 28t-46.5 84l64 4q4 -35 26.5 -49t100.5 -14q71 0 98.5 15t27.5 48v16q0 29 -27.5 42t-96.5 13h-56v53h56q60 0 86 9.5t26 34.5v20q0 28 -29 39.5t-89 11.5q-56 0 -82 -11.5t-28 -40.5l-65 5q4 54 46 77t129 23t133.5 -22t46.5 -76v-16
q0 -32 -22 -50.5t-58 -22.5v-12q41 -3 67 -25t26 -56v-14q0 -59 -45.5 -86.5t-143.5 -27.5zM0 264v72l318 -13v-46zM700 264l-304 13v46l304 13v-72zM352 -216q-107 0 -147 32.5t-40 88.5v10q0 39 23 63t64 27v12q-32 4 -53.5 23t-21.5 50v14q0 57 45.5 82.5t129.5 25.5
t129.5 -24.5t45.5 -83.5v-14q0 -31 -21.5 -50t-53.5 -23v-12q42 -3 65 -28t23 -62v-10q0 -57 -40.5 -89t-147.5 -32zM352 36q60 0 85.5 11.5t25.5 38.5v15q0 32 -25.5 45t-85.5 13q-59 0 -84.5 -13t-25.5 -45v-15q0 -27 25.5 -38.5t84.5 -11.5zM352 -163q72 0 97.5 18
t25.5 55v9q0 34 -25.5 49.5t-97.5 15.5t-97 -15.5t-25 -49.5v-9q0 -37 25 -55t97 -18z" />
    <glyph glyph-name="fiveeighths" unicode="&#x215d;" 
d="M350 403q-102 0 -145.5 25.5t-46.5 91.5l63 6q4 -43 30.5 -57t98.5 -14q69 0 96.5 15.5t27.5 49.5v25q0 31 -27 45.5t-93 14.5h-179v200h341v-52h-276v-94h123q84 0 129.5 -27t45.5 -81v-33q0 -54 -48 -84.5t-140 -30.5zM0 264v72l318 -13v-46zM700 264l-304 13v46
l304 13v-72zM352 -216q-107 0 -147 32.5t-40 88.5v10q0 39 23 63t64 27v12q-32 4 -53.5 23t-21.5 50v14q0 57 45.5 82.5t129.5 25.5t129.5 -24.5t45.5 -83.5v-14q0 -31 -21.5 -50t-53.5 -23v-12q42 -3 65 -28t23 -62v-10q0 -57 -40.5 -89t-147.5 -32zM352 36q60 0 85.5 11.5
t25.5 38.5v15q0 32 -25.5 45t-85.5 13q-59 0 -84.5 -13t-25.5 -45v-15q0 -27 25.5 -38.5t84.5 -11.5zM352 -163q72 0 97.5 18t25.5 55v9q0 34 -25.5 49.5t-97.5 15.5t-97 -15.5t-25 -49.5v-9q0 -37 25 -55t97 -18z" />
    <glyph glyph-name="seveneighths" unicode="&#x215e;" 
d="M290 410q28 112 69 185.5t114 156.5h-310v54h375v-54q-72 -91 -116.5 -170t-63.5 -172h-68zM0 264v72l318 -13v-46zM700 264l-304 13v46l304 13v-72zM352 -216q-107 0 -147 32.5t-40 88.5v10q0 39 23 63t64 27v12q-32 4 -53.5 23t-21.5 50v14q0 57 45.5 82.5t129.5 25.5
t129.5 -24.5t45.5 -83.5v-14q0 -31 -21.5 -50t-53.5 -23v-12q42 -3 65 -28t23 -62v-10q0 -57 -40.5 -89t-147.5 -32zM352 36q60 0 85.5 11.5t25.5 38.5v15q0 32 -25.5 45t-85.5 13q-59 0 -84.5 -13t-25.5 -45v-15q0 -27 25.5 -38.5t84.5 -11.5zM352 -163q72 0 97.5 18
t25.5 55v9q0 34 -25.5 49.5t-97.5 15.5t-97 -15.5t-25 -49.5v-9q0 -37 25 -55t97 -18z" />
    <glyph glyph-name="underscore" unicode="_" 
d="M70 -185v70h560v-70h-560z" />
    <glyph glyph-name="hyphen" unicode="&#x2011;" 
d="M70 315v70h560v-70h-560z" />
    <glyph glyph-name="hyphen" unicode="&#x2010;" 
d="M70 315v70h560v-70h-560z" />
    <glyph glyph-name="hyphen" unicode="&#xad;" 
d="M70 315v70h560v-70h-560z" />
    <glyph glyph-name="hyphen" unicode="-" 
d="M70 315v70h560v-70h-560z" />
    <glyph glyph-name="endash" unicode="&#x2013;" 
d="M100 315v70h500v-70h-500z" />
    <glyph glyph-name="emdash" unicode="&#x2014;" 
d="M0 315v70h700v-70h-700z" />
    <glyph glyph-name="horizontalbar" unicode="&#x2015;" 
d="M0 315v70h700v-70h-700z" />
    <glyph glyph-name="parenleft" unicode="(" 
d="M535 -210q-146 35 -233 170.5t-87 339.5t87 339.5t233 170.5l8 -56q-128 -35 -193 -154.5t-65 -299.5t65 -299t193 -155z" />
    <glyph glyph-name="parenright" unicode=")" 
d="M165 -210l-8 56q128 36 193 155.5t65 298.5t-65 299t-193 155l8 56q146 -35 233 -170.5t87 -339.5t-87 -339.5t-233 -170.5z" />
    <glyph glyph-name="bracketleft" unicode="[" 
d="M215 -200v1000h320v-63h-250v-879h250v-58h-320z" />
    <glyph glyph-name="bracketright" unicode="]" 
d="M165 -200v58h250v879h-250v63h320v-1000h-320z" />
    <glyph glyph-name="braceleft" unicode="{" 
d="M535 -210q-195 -3 -282.5 38t-87.5 128q0 43 17.5 75t51.5 68q29 31 45 51.5t16 42.5q0 50 -50 71t-180 24v48q129 3 179.5 23.5t50.5 69.5q0 20 -16 38.5t-45 43.5q-34 31 -51.5 61.5t-17.5 73.5q0 86 89.5 126.5t280.5 37.5v-63q-165 3 -232.5 -22t-67.5 -84
q0 -25 14.5 -47.5t51.5 -55.5q36 -33 50 -56.5t14 -51.5q0 -56 -45.5 -83.5t-131.5 -31.5v-5q86 -8 131.5 -40.5t45.5 -87.5q0 -26 -15 -50.5t-53 -61.5q-34 -32 -48 -56t-14 -52q0 -62 67.5 -88t232.5 -23v-61z" />
    <glyph glyph-name="braceright" unicode="}" 
d="M535 -44q0 -87 -87.5 -128t-282.5 -38v61q165 -3 232.5 23t67.5 88q0 28 -14 52t-48 56q-38 37 -53 61.5t-15 50.5q0 55 45.5 87.5t131.5 40.5v5q-86 4 -131.5 31.5t-45.5 83.5q0 28 14 51.5t50 56.5q37 33 51.5 55.5t14.5 47.5q0 59 -67.5 84t-232.5 22v63
q191 3 280.5 -37.5t89.5 -126.5q0 -43 -17.5 -73.5t-51.5 -61.5q-29 -25 -45 -43.5t-16 -38.5q0 -49 50.5 -69.5t179.5 -23.5v-48q-130 -3 -180 -24t-50 -71q0 -22 16 -42.5t45 -51.5q34 -36 51.5 -68t17.5 -75z" />
    <glyph glyph-name="numbersign" unicode="#" 
d="M428 278l12 247h-167l-12 -247h167zM413 0l11 215h-167l-11 -215h-63l11 215h-129v63h133l12 247h-145v63h148l10 212h63l-10 -212h167l10 212h63l-10 -212h129v-63h-132l-12 -247h144v-63h-148l-11 -215h-63z" />
    <glyph glyph-name="percent" unicode="%" 
d="M195 448q-63 0 -102.5 38t-39.5 117v60q0 80 39.5 118.5t102.5 38.5t102 -38.5t39 -118.5v-60q0 -79 -39 -117t-102 -38zM195 505q36 0 56.5 22.5t20.5 73.5v64q0 51 -20.5 74.5t-56.5 23.5t-57 -23.5t-21 -74.5v-64q0 -51 21 -73.5t57 -22.5zM52 161l560 529l41 -44
l-561 -529zM506 -22q-63 0 -102.5 38t-39.5 117v60q0 80 39.5 118.5t102.5 38.5t102 -38.5t39 -118.5v-60q0 -79 -39 -117t-102 -38zM506 35q36 0 56.5 22.5t20.5 73.5v64q0 51 -20.5 74.5t-56.5 23.5t-57 -23.5t-21 -74.5v-64q0 -51 21 -73.5t57 -22.5z" />
    <glyph glyph-name="perthousand" unicode="&#x2030;" 
d="M175 448q-55 0 -89 35.5t-34 109.5v80q0 75 34.5 111t88.5 36q55 0 88.5 -36t33.5 -111v-80q0 -74 -34 -109.5t-88 -35.5zM118 591q0 -46 15.5 -66t41.5 -20q27 0 41.5 20t14.5 66v84q0 46 -14.5 67t-41.5 21q-26 0 -41.5 -21t-15.5 -67v-84zM623 646l-561 -529l-40 44
l560 529zM574 -22q-27 0 -48 13t-33 40q-13 -27 -34.5 -40t-47.5 -13q-47 0 -76 35.5t-29 109.5v80q0 75 29.5 111t75.5 36q27 0 48 -13.5t34 -40.5q12 27 33.5 40.5t47.5 13.5q47 0 75.5 -36t28.5 -111v-80q0 -74 -29 -109.5t-75 -35.5zM368 117q0 -46 12.5 -66t34.5 -20
t34 20t12 66v92q0 46 -12 67t-34 21t-34.5 -21t-12.5 -67v-92zM523 117q0 -46 12.5 -66t34.5 -20t34 20t12 66v92q0 46 -12 67t-34 21t-34.5 -21t-12.5 -67v-92z" />
    <glyph glyph-name="quotesingle" unicode="'" 
d="M318 430l-24 370h112l-24 -370h-64z" />
    <glyph glyph-name="quotedbl" unicode="&#x22;" 
d="M468 430l-24 370h112l-24 -370h-64zM168 430l-24 370h112l-24 -370h-64z" />
    <glyph glyph-name="quoteleft" unicode="&#x2018;" 
d="M237 430l195 370h60l-116 -370h-139z" />
    <glyph glyph-name="quoteleft" unicode="&#x2bb;" 
d="M237 430l195 370h60l-116 -370h-139z" />
    <glyph glyph-name="quoteright" unicode="&#x2019;" 
d="M208 430l116 370h139l-195 -370h-60z" />
    <glyph glyph-name="quotedblleft" unicode="&#x201c;" 
d="M387 430l189 370h56l-116 -370h-129zM87 430l189 370h56l-116 -370h-129z" />
    <glyph glyph-name="quotedblright" unicode="&#x201d;" 
d="M368 430l116 370h129l-189 -370h-56zM68 430l116 370h129l-189 -370h-56z" />
    <glyph glyph-name="quotereversed" unicode="&#x201b;" 
d="M206 430zM401 430l-195 370h139l116 -370h-60z" />
    <glyph glyph-name="quotesinglbase" unicode="&#x201a;" 
d="M212 0zM212 -200l108 370h139l-187 -370h-60z" />
    <glyph glyph-name="quotedblbase" unicode="&#x201e;" 
d="M0 0zM268 -200l116 370h129l-189 -370h-56zM-32 -200l116 370h129l-189 -370h-56z" />
    <glyph glyph-name="guilsinglleft" unicode="&#x2039;" 
d="M500 112l-300 212v52l300 212v-71l-238 -167l238 -167v-71z" />
    <glyph glyph-name="guilsinglright" unicode="&#x203a;" 
d="M200 112v71l238 167l-238 167v71l300 -212v-52z" />
    <glyph glyph-name="guillemotleft" unicode="&#xab;" 
d="M630 112l-260 212v52l260 212v-71l-207 -167l207 -167v-71zM330 112l-260 212v52l260 212v-71l-207 -167l207 -167v-71z" />
    <glyph glyph-name="guillemotright" unicode="&#xbb;" 
d="M70 112v71l208 167l-208 167v71l260 -212v-52zM370 112v71l208 167l-208 167v71l260 -212v-52z" />
    <glyph glyph-name="asterisk" unicode="*" 
d="M574 325l-204 155l19 -244h-80l19 243l-203 -154l-40 69l228 125l-228 125l40 69l203 -155l-19 242h80l-19 -243l204 156l40 -69l-228 -125l228 -125z" />
    <glyph glyph-name="dagger" unicode="&#x2020;" 
d="M315 -200v737h-130l-34 -237h-56l30 300h190l-7 200h84l-7 -200h190l30 -300h-56l-34 237h-130v-737h-70z" />
    <glyph glyph-name="daggerdbl" unicode="&#x2021;" 
d="M305 -200l7 200h-187l-30 230h56l34 -167h130v474h-130l-34 -167h-56l30 230h190l-7 200h84l-7 -200h190l30 -230h-56l-34 167h-130v-474h130l34 167h56l-30 -230h-187l7 -200h-90z" />
    <glyph glyph-name="period" unicode="." 
d="M351 -10q-37 0 -59.5 17t-22.5 53v28q0 37 22.5 54.5t59.5 17.5t59 -17.5t22 -54.5v-28q0 -36 -22.5 -53t-58.5 -17z" />
    <glyph glyph-name="comma" unicode="," 
d="M212 -200l108 370h139l-187 -370h-60z" />
    <glyph glyph-name="colon" unicode=":" 
d="M351 438q-37 0 -59.5 16t-22.5 50v36q0 35 22.5 51.5t59.5 16.5t59 -16.5t22 -51.5v-36q0 -34 -22.5 -50t-58.5 -16zM351 -10q-37 0 -59.5 16t-22.5 50v36q0 35 22.5 51.5t59.5 16.5t59 -16.5t22 -51.5v-36q0 -34 -22.5 -50t-58.5 -16z" />
    <glyph glyph-name="semicolon" unicode=";" 
d="M351 438q-37 0 -59.5 16t-22.5 50v36q0 35 22.5 51.5t59.5 16.5t59 -16.5t22 -51.5v-36q0 -34 -22.5 -50t-58.5 -16zM212 -200l108 370h139l-187 -370h-60z" />
    <glyph glyph-name="ellipsis" unicode="&#x2026;" 
d="M590 -10q-27 0 -43.5 16t-16.5 50v36q0 35 16.5 51.5t43.5 16.5q26 0 42.5 -16.5t16.5 -51.5v-36q0 -34 -17 -50t-42 -16zM351 -10q-27 0 -43.5 16t-16.5 50v36q0 35 16.5 51.5t43.5 16.5q26 0 42.5 -16.5t16.5 -51.5v-36q0 -34 -17 -50t-42 -16zM111 -10q-26 0 -43 16
t-17 50v36q0 35 17 51.5t43 16.5q27 0 43 -16.5t16 -51.5v-36q0 -34 -16.5 -50t-42.5 -16z" />
    <glyph glyph-name="exclam" unicode="!" 
d="M322 300l-18 500h92l-18 -500h-56zM351 -10q-40 0 -61 16t-21 50v28q0 35 21 51.5t61 16.5t60.5 -16.5t20.5 -51.5v-28q0 -34 -21.5 -50t-59.5 -16z" />
    <glyph glyph-name="exclamdown" unicode="&#xa1;" 
d="M351 809q39 0 60 -16t21 -51v-28q0 -34 -21 -50.5t-60 -16.5q-40 0 -61 16.5t-21 50.5v28q0 35 21.5 51t60.5 16zM379 500l18 -500h-92l18 500h56z" />
    <glyph glyph-name="exclamdbl" unicode="&#x203c;" 
d="M462 300l-18 500h92l-18 -500h-56zM182 300l-18 500h92l-18 -500h-56zM491 -10q-40 0 -61 16t-21 50v28q0 35 21 51.5t61 16.5t60.5 -16.5t20.5 -51.5v-28q0 -34 -21.5 -50t-59.5 -16zM211 -10q-40 0 -61 16t-21 50v28q0 35 21 51.5t61 16.5t60.5 -16.5t20.5 -51.5v-28
q0 -34 -21.5 -50t-59.5 -16z" />
    <glyph glyph-name="question" unicode="?" 
d="M270 313l-14 56q168 27 233.5 68.5t65.5 114.5v30q0 83 -44 124t-161 41q-125 0 -165.5 -38t-49.5 -142l-70 7q7 132 68.5 184t215.5 52q145 0 210.5 -57.5t65.5 -158.5v-46q0 -104 -82.5 -154.5t-272.5 -80.5zM303 -10q-40 0 -61 16t-21 50v28q0 35 21 51.5t61 16.5
q39 0 60 -16.5t21 -51.5v-28q0 -34 -21.5 -50t-59.5 -16z" />
    <glyph glyph-name="questiondown" unicode="&#xbf;" 
d="M397 810q40 0 61 -16t21 -50v-28q0 -35 -21 -51.5t-61 -16.5q-39 0 -60 16.5t-21 51.5v28q0 34 21.5 50t59.5 16zM430 487l14 -56q-168 -27 -233.5 -68.5t-65.5 -114.5v-30q0 -83 44 -124t161 -41q125 0 165.5 38t49.5 142l70 -7q-7 -132 -68.5 -184t-215.5 -52
q-145 0 -210.5 57.5t-65.5 158.5v46q0 104 82 154.5t273 80.5z" />
    <glyph glyph-name="slash" unicode="/" 
d="M115 -200l400 1000h70l-400 -1000h-70z" />
    <glyph glyph-name="backslash" unicode="\" 
d="M515 -200l-400 1000h70l400 -1000h-70z" />
    <glyph glyph-name="fraction" unicode="&#x2215;" 
d="M115 0l400 800h70l-400 -800h-70z" />
    <glyph glyph-name="fraction" unicode="&#x2044;" 
d="M115 0l400 800h70l-400 -800h-70z" />
    <glyph glyph-name="bar" unicode="|" 
d="M320 -200v1000h60v-1000h-60z" />
    <glyph glyph-name="brokenbar" unicode="&#xa6;" 
d="M320 400v400h60v-400h-60zM320 -200v400h60v-400h-60z" />
    <glyph glyph-name="at" unicode="@" 
d="M411 -110q-152 0 -230.5 83t-78.5 236v298q0 143 66 223t191 80q113 0 174.5 -78t61.5 -215v-244q-6 -84 -45 -123.5t-113 -39.5q-78 0 -115 45.5t-37 126.5v122q0 80 40 128t99 48q37 0 60 -16t35 -39h16q0 113 -43.5 174t-133.5 61q-104 0 -152 -63t-48 -190v-298
q0 -131 61 -198.5t192 -67.5q51 0 92 7.5t78 18.5v-54q-40 -11 -81 -18t-89 -7zM439 166q48 0 71.5 27.5t23.5 90.5v112q0 65 -24.5 96.5t-70.5 31.5t-69.5 -31.5t-23.5 -98.5v-102q0 -65 23.5 -95.5t69.5 -30.5z" />
    <glyph glyph-name="ampersand" unicode="&#x26;" 
d="M661 -6q-57 25 -111 54t-102 66q-43 -55 -98.5 -89.5t-121.5 -34.5q-81 0 -130.5 56t-49.5 155q0 72 40 133t103 97q-26 54 -38.5 101.5t-12.5 80.5q0 90 47.5 144t128.5 54q72 0 115.5 -48t43.5 -117q0 -78 -53 -130t-161 -100q10 -18 23.5 -38.5t28.5 -42.5
q26 -37 58.5 -75t69.5 -70q29 44 55.5 97.5t51.5 116.5l58 -28q-31 -69 -64.5 -121.5t-68.5 -98.5l200 -100zM207 612q0 -37 9.5 -76.5t26.5 -80.5q82 38 126.5 83.5t44.5 101.5q0 47 -28 77.5t-69 30.5q-55 0 -82.5 -36.5t-27.5 -99.5zM236 52q43 0 88.5 25.5t81.5 69.5
q-37 32 -72 73.5t-66 84.5q-15 21 -28.5 42t-26.5 41q-45 -31 -71.5 -80.5t-26.5 -102.5q0 -70 32 -111.5t89 -41.5z" />
    <glyph glyph-name="section" unicode="&#xa7;" 
d="M340 187l18 -4l18 -4q64 1 104 29.5t40 85.5q0 51 -38.5 75.5t-116.5 40.5l-18 4l-18 4q-64 -1 -104 -29.5t-40 -85.5q0 -51 38.5 -75.5t116.5 -40.5zM368 -207q-66 0 -126.5 23t-105.5 65l36 57q50 -42 96.5 -62t104.5 -20q67 0 110 29t43 85q0 66 -50 98.5t-148 52.5
q-108 22 -160.5 62t-52.5 115q0 58 36 94.5t91 52.5q-58 25 -92.5 67t-34.5 108q0 90 64.5 137t157.5 47q66 0 126.5 -23t105.5 -65l-37 -56q-50 41 -96.5 60.5t-103.5 19.5q-69 0 -111 -30t-42 -83q0 -66 50 -98t148 -53q108 -22 160.5 -61.5t52.5 -114.5q0 -59 -36 -96
t-92 -54q61 -27 94.5 -67t33.5 -102q0 -90 -62.5 -139t-159.5 -49z" />
    <glyph glyph-name="paragraph" unicode="&#xb6;" 
d="M515 340h-130v-540h-70v540q-108 0 -176.5 49t-68.5 148v52q0 104 68 157.5t176 53.5h271v-1000h-70v540z" />
    <glyph glyph-name="lsquare" unicode="&#x2113;" 
d="M335 313q51 0 84.5 21t42.5 73l38 222q9 51 -10 84.5t-88 33.5q-51 0 -84.5 -23t-43.5 -75l-40 -229q-8 -47 13.5 -77t87.5 -30zM472 26q-34 -14 -72 -23.5t-81 -9.5q-101 0 -156 55t-38 152l79 449q14 82 71.5 121.5t133.5 39.5q93 0 134 -49t27 -132l-38 -222
q-13 -81 -67 -119t-126 -38q-43 0 -74.5 13t-52.5 38l-15 -92q-11 -72 25 -109t105 -37q29 0 64.5 8t76.5 24z" />
    <glyph glyph-name="numero" unicode="&#x2116;" 
d="M178 733v-323h-66v390h87l323 -320v320h66v-390h-87zM440 -14q-66 0 -106.5 37.5t-40.5 114.5v53q0 78 40.5 116.5t106.5 38.5q67 0 107 -38.5t40 -116.5v-53q0 -77 -40.5 -114.5t-106.5 -37.5zM440 42q42 0 64 22.5t22 73.5v53q0 50 -21.5 74.5t-64.5 24.5t-64.5 -24.5
t-21.5 -74.5v-53q0 -51 21.5 -73.5t64.5 -22.5z" />
    <glyph glyph-name="periodcentered" unicode="&#x2219;" 
d="M351 314q-37 0 -59.5 17t-22.5 53v28q0 37 22.5 54.5t59.5 17.5t59 -17.5t22 -54.5v-28q0 -36 -22.5 -53t-58.5 -17z" />
    <glyph glyph-name="periodcentered" unicode="&#xb7;" 
d="M351 314q-37 0 -59.5 17t-22.5 53v28q0 37 22.5 54.5t59.5 17.5t59 -17.5t22 -54.5v-28q0 -36 -22.5 -53t-58.5 -17z" />
    <glyph glyph-name="bullet" unicode="&#x2022;" 
d="M351 260q-64 0 -104 25t-40 77v72q0 54 40 79.5t104 25.5q65 0 104 -25.5t39 -79.5v-72q0 -52 -40 -77t-103 -25z" />
    <glyph glyph-name="anoteleia" unicode="&#x387;" 
d="M269 314zM351 314q-37 0 -59.5 17t-22.5 53v28q0 37 22.5 54.5t59.5 17.5t59 -17.5t22 -54.5v-28q0 -36 -22.5 -53t-58.5 -17z" />
    <glyph glyph-name="underscoredbl" unicode="&#x2017;" 
d="M70 0zM70 15v70h560v-70h-560zM70 -185v70h560v-70h-560z" />
    <glyph glyph-name="minute" unicode="&#x2032;" 
d="M208 430zM208 430l116 370h139l-195 -370h-60z" />
    <glyph glyph-name="second" unicode="&#x2033;" 
d="M28 430zM328 430l116 370h129l-189 -370h-56zM28 430l116 370h129l-189 -370h-56z" />
    <glyph glyph-name="overline" unicode="&#x203e;" 
d="M70 915zM70 915v70h560v-70h-560z" />
    <glyph glyph-name="plus" unicode="+" 
d="M315 40v275h-245v70h245v275h70v-275h245v-70h-245v-275h-70z" />
    <glyph glyph-name="minus" unicode="&#x2212;" 
d="M70 315v70h560v-70h-560z" />
    <glyph glyph-name="plusminus" unicode="&#xb1;" 
d="M70 15zM315 140v275h-245v70h245v275h70v-275h245v-70h-245v-275h-70zM70 15v70h560v-70h-560z" />
    <glyph glyph-name="divide" unicode="&#xf7;" 
d="M350 538q-33 0 -53.5 12.5t-20.5 39.5v17q0 28 20.5 41t53.5 13t53 -13t20 -41v-17q0 -27 -20.5 -39.5t-52.5 -12.5zM70 315v70h560v-70h-560zM350 38q-33 0 -53.5 12.5t-20.5 39.5v17q0 28 20.5 41t53.5 13t53 -13t20 -41v-17q0 -27 -20.5 -39.5t-52.5 -12.5z" />
    <glyph glyph-name="multiply" unicode="&#xd7;" 
d="M125 55l-45 45l225 250l-225 250l45 45l225 -250l225 245l45 -45l-225 -245l225 -245l-45 -45l-225 245z" />
    <glyph glyph-name="equal" unicode="=" 
d="M70 455v70h560v-70h-560zM70 175v70h560v-70h-560z" />
    <glyph glyph-name="less" unicode="&#x3c;" 
d="M600 23l-494 292v70l494 292v-65l-442 -262l442 -262v-65z" />
    <glyph glyph-name="greater" unicode="&#x3e;" 
d="M106 23v65l442 262l-442 262v65l494 -292v-70z" />
    <glyph glyph-name="lessequal" unicode="&#x2264;" 
d="M600 200l-500 250v70l500 250v-65l-435 -220l435 -220v-65zM100 0v60h500v-60h-500z" />
    <glyph glyph-name="greaterequal" unicode="&#x2265;" 
d="M100 200v65l435 220l-435 220v65l500 -250v-70zM600 0h-500v60h500v-60z" />
    <glyph glyph-name="approxequal" unicode="&#x2248;" 
d="M488 390q-49 0 -83.5 30.5t-74.5 99.5q-43 73 -65 98t-60 25q-31 0 -49 -32t-18 -100v-111h-66v117q0 94 40 143.5t102 49.5q48 0 83 -30.5t76 -99.5q42 -72 63.5 -98t58.5 -26q28 0 47.5 30t19.5 104v110h66v-117q0 -94 -39.5 -143.5t-100.5 -49.5zM488 -10
q-49 0 -83.5 30.5t-74.5 99.5q-43 73 -65 98t-60 25q-31 0 -49 -32t-18 -100v-111h-66v117q0 94 40 143.5t102 49.5q48 0 83 -30.5t76 -99.5q42 -72 63.5 -98t58.5 -26q28 0 47.5 30t19.5 104v110h66v-117q0 -94 -39.5 -143.5t-100.5 -49.5z" />
    <glyph glyph-name="notequal" unicode="&#x2260;" 
d="M630 205h-293l-52 -205h-70l52 205h-197v70h214l63 250h-277v70h294l51 205h70l-51 -205h196v-70h-213l-63 -250h276v-70z" />
    <glyph glyph-name="logicalnot" unicode="&#xac;" 
d="M545 0v315h-475v70h545v-385h-70z" />
    <glyph glyph-name="uni23af" unicode="&#x23af;" 
d="M0 365v70h700v-70h-700z" />
    <glyph glyph-name="arrowleft" unicode="&#x2190;" 
d="M330 75l-330 315v20l330 315h20v-290h350v-70h-350v-290h-20z" />
    <glyph glyph-name="arrowup" unicode="&#x2191;" 
d="M315 0v450h-290v20l315 330h20l315 -330v-20h-290v-450h-70z" />
    <glyph glyph-name="arrowright" unicode="&#x2192;" 
d="M350 75v290h-350v70h350v290h20l330 -315v-20l-330 -315h-20z" />
    <glyph glyph-name="arrowdown" unicode="&#x2193;" 
d="M340 0l-315 330v20h290v450h70v-450h290v-20l-315 -330h-20z" />
    <glyph glyph-name="arrowboth" unicode="&#x2194;" 
d="M280 365v-290h-20l-260 315v20l260 315h20v-290h140v290h20l260 -315v-20l-260 -315h-20v290h-140z" />
    <glyph glyph-name="partialdiff" unicode="&#x2202;" 
d="M295 -10q-106 0 -166 56.5t-36 169.5l15 71q20 94 86.5 149t163.5 55q79 0 125 -27t58 -65h11q25 147 -25 228.5t-217 127.5l30 52q184 -51 243 -152.5t21 -284.5l-31 -148q-25 -120 -97.5 -176t-180.5 -56zM305 51q89 0 133 41t62 122l14 62q16 76 -16 114.5t-125 38.5
q-90 0 -133.5 -38t-59.5 -115l-13 -62q-17 -81 14 -121.5t124 -41.5z" />
    <glyph glyph-name="Delta#1" unicode="&#x2206;" 
d="M55 0zM55 0v63l259 737h63l268 -737v-63h-590zM574 63l-226 652l-225 -652h451z" />
    <glyph glyph-name="product" unicode="&#x220f;" 
d="M115 -200v1000h470v-1000h-70v937h-330v-937h-70z" />
    <glyph glyph-name="summation" unicode="&#x2211;" 
d="M605 -137v-63h-520v63l347 449l-347 425v63h520v-63h-439l324 -399v-49l-329 -426h444z" />
    <glyph glyph-name="mu1" unicode="&#xb5;" 
d="M98 0zM175 20l7 -220h-84l7 220v580h70v-404q0 -70 36 -105t97 -35q50 0 88 20t69 57v467h70v-440q0 -69 22.5 -88.5t77.5 -9.5v-65q-66 -10 -101 14t-40 83h-14q-24 -38 -70 -71t-109 -33q-40 0 -72 17.5t-54 48.5v-36z" />
    <glyph glyph-name="radical" unicode="&#x221a;" 
d="M364 0l-197 433l-101 -21v58l142 30l188 -432l205 832h61l-227 -900h-71z" />
    <glyph glyph-name="infinity" unicode="&#x221e;" 
d="M204 132q-61 0 -101.5 72t-40.5 196q0 125 40.5 196.5t102.5 71.5q51 0 87 -49.5t64 -146.5q25 99 59.5 147.5t80.5 48.5q61 0 101.5 -72t40.5 -195q0 -125 -41.5 -197t-105.5 -72q-49 0 -82 49.5t-65 148.5q-24 -101 -58.5 -149.5t-81.5 -48.5zM494 191q36 0 57 52
t21 157q-1 106 -23.5 157.5t-60.5 51.5q-36 0 -59.5 -49.5t-49.5 -149.5q31 -108 55 -163.5t60 -55.5zM212 191q33 0 56 49.5t51 148.5q-30 108 -54 164t-59 56q-36 0 -57 -52t-21 -157q1 -106 23.5 -157.5t60.5 -51.5z" />
    <glyph glyph-name="orthogonal" unicode="&#x221f;" 
d="M115 0v700h70v-637h420v-63h-490z" />
    <glyph glyph-name="intersection" unicode="&#x2229;" 
d="M115 0v433q0 137 62.5 207t172.5 70t172.5 -70t62.5 -207v-433h-70v433q0 112 -40.5 163t-124.5 51t-124.5 -51t-40.5 -163v-433h-70z" />
    <glyph glyph-name="integral" unicode="&#x222b;" 
d="M203 -205q-32 0 -60.5 6.5t-50.5 15.5l14 61q23 -9 48.5 -14.5t47.5 -5.5q57 0 85 33.5t28 114.5v602q0 95 49.5 148.5t130.5 53.5q32 0 61.5 -7t51.5 -16l-14 -60q-21 9 -46 14.5t-50 5.5q-57 0 -85 -34t-28 -115v-602q0 -94 -50 -147.5t-132 -53.5z" />
    <glyph glyph-name="equivalence" unicode="&#x2261;" 
d="M70 515v70h560v-70h-560zM70 315v70h560v-70h-560zM70 115v70h560v-70h-560z" />
    <glyph glyph-name="integralbt" unicode="&#x2321;" 
d="M206 -205q-25 0 -58.5 6.5t-55.5 15.5l14 61q23 -9 48.5 -14.5t47.5 -5.5q58 0 85.5 35t27.5 113v794h70v-804q0 -96 -50.5 -148.5t-128.5 -52.5z" />
    <glyph glyph-name="dollar" unicode="$" 
d="M178 579q0 -45 34.5 -77t113.5 -59v250q-70 -1 -109 -28.5t-39 -85.5zM526 224q0 46 -35.5 78t-116.5 60v-258q72 2 112 32t40 88zM378 -50h-56v96q-57 4 -111.5 23t-98.5 52l27 57q40 -31 89 -49.5t98 -22.5v270q-114 35 -162.5 82t-48.5 120q0 81 53.5 127t153.5 49v96
h56v-97q51 -5 99 -22t85 -41l-27 -58q-35 21 -76.5 37.5t-84.5 21.5v-263q116 -37 165.5 -83t49.5 -118q0 -82 -55.5 -130t-155.5 -52v-95z" />
    <glyph glyph-name="cent" unicode="&#xa2;" 
d="M185 317q0 -81 38 -120t113 -44v493q-75 -4 -113 -42.5t-38 -122.5v-164zM332 -50v141q-108 7 -162.5 64t-54.5 166v157q0 108 55 166t162 65v141h56v-140q102 -5 151.5 -53t56.5 -142l-66 -5q-7 76 -40.5 105t-105.5 32v-494q72 1 106.5 26.5t39.5 94.5l66 -5
q-6 -88 -56 -131.5t-152 -47.5v-140h-56z" />
    <glyph glyph-name="sterling" unicode="&#xa3;" 
d="M625 202q-6 -105 -52.5 -158.5t-130.5 -53.5q-29 0 -62.5 15t-81.5 37q-41 17 -67 21t-51 -12l-92 -60l-40 51l80 46q37 21 63 76.5t26 106.5q0 37 -11 68t-25 61h-126v63h93q-14 29 -24 62t-10 72q0 96 60.5 154.5t173.5 58.5q117 0 174 -49t63 -157l-71 -8
q-7 86 -43.5 118.5t-122.5 32.5q-87 0 -125.5 -36.5t-38.5 -115.5q0 -36 12.5 -68.5t28.5 -63.5h212v-63h-179q12 -28 20.5 -58.5t8.5 -63.5q0 -50 -18.5 -92t-68.5 -77l7 -10q30 18 57 14.5t62 -16.5q32 -11 61 -26t58 -15q56 0 79 33t31 121z" />
    <glyph glyph-name="currency" unicode="&#xa4;" 
d="M344 153q64 0 96.5 38.5t32.5 125.5v162q0 87 -32.5 127.5t-96.5 40.5t-96.5 -40.5t-32.5 -127.5v-162q0 -87 32.5 -125.5t96.5 -38.5zM344 90q-50 0 -88.5 16.5t-65.5 52.5l-89 -88l-45 45l102 101q-6 21 -9.5 46t-3.5 54v162q0 28 4 54t11 48l-104 103l45 45l92 -91
q27 34 64.5 53t87.5 19q49 0 87 -18t66 -54l89 86l45 -45l-103 -100q7 -21 10.5 -46.5t3.5 -53.5v-162q0 -27 -3.5 -51t-10.5 -45l103 -100l-45 -45l-89 86q-27 -34 -65 -53t-89 -19z" />
    <glyph glyph-name="yen" unicode="&#xa5;" 
d="M585 112h-200v-112h-70v112h-200v63h200v137h-200v63h165l-251 425h78l244 -426l243 426h76l-250 -425h165v-63h-200v-137h200v-63z" />
    <glyph glyph-name="franc" unicode="&#x20a3;" 
d="M385 210h-200v-210h-70v210h-100v63h100v527h490v-63h-420v-249h350v-63h-350v-152h200v-63z" />
    <glyph glyph-name="lira" unicode="&#x20a4;" 
d="M655 202q-6 -104 -55 -158t-140 -54q-45 0 -87 17.5t-81 34.5q-39 16 -75 23t-67 -14l-92 -60l-40 51l80 46q37 21 62.5 76.5t25.5 107.5q0 10 -1 19t-3 19h-172v56h155q-5 13 -12 27.5t-14 29.5q-10 20 -19 39t-16 38h-94v56h78q-2 10 -3 20.5t-1 20.5q0 96 69 154.5
t199 58.5q129 0 193 -49t70 -157l-71 -8q-7 86 -49.5 118.5t-142.5 32.5q-105 0 -151 -36.5t-46 -115.5q0 -10 1.5 -19.5t3.5 -19.5h290v-56h-271q6 -14 14 -29.5t16 -31.5q10 -19 18 -37.5t14 -35.5h209v-56l-194 1q1 -8 1.5 -16t0.5 -15q0 -50 -19.5 -93.5t-68.5 -77.5
l7 -10q34 20 68.5 17t74.5 -19q37 -13 72.5 -27t67.5 -14q72 0 95 39t30 115z" />
    <glyph glyph-name="peseta" unicode="&#x20a7;" 
d="M98 331h42q25 0 38.5 24t13.5 88v192q0 64 -13.5 88t-38.5 24h-42v-416zM668 141q0 -70 -33 -110.5t-91 -40.5q-17 0 -32 3t-29 10q-18 -7 -33 -9.5t-31 -2.5q-37 0 -62 31.5t-25 106.5v418h-84v-106q0 -81 -27 -121t-81 -40h-42v-280h-56v800h99q54 0 80.5 -40
t26.5 -121v-39h84v200h56v-200h98v-42q13 25 35 38.5t54 13.5q25 0 46 -7.5t43 -24.5l-27 -47q-17 13 -32.5 19.5t-32.5 6.5q-25 0 -37 -22.5t-12 -66.5q0 -43 23 -80t51 -74q31 -41 51 -82.5t20 -90.5zM477 73l13 -11q13 -10 26 -14.5t28 -4.5q35 0 52 23.5t17 71.5
q0 42 -21.5 77t-46.5 72q-28 40 -52.5 81.5t-24.5 92.5q0 25 3 47t10 39h-93v-429l1 -23q3 -25 13 -37.5t23 -12.5q10 0 20.5 2.5t19.5 6.5z" />
    <glyph glyph-name="Euro" unicode="&#x20ac;" 
d="M386 -10q-126 0 -188.5 71t-62.5 201v14h-100v59h100v128h-100v59h100v14q0 131 63 202.5t189 71.5q114 0 170 -52.5t66 -153.5l-68 -8q-12 79 -46.5 115t-122.5 36q-99 0 -140 -51.5t-41 -159.5v-14h200v-59h-200v-128h200v-59h-200v-14q0 -108 41 -158.5t140 -50.5
q87 0 121.5 34.5t47.5 112.5l68 -8q-10 -99 -66.5 -150.5t-170.5 -51.5z" />
    <glyph glyph-name="florin" unicode="&#x192;" 
d="M222 -6q-27 0 -66.5 6t-64.5 17l15 60q30 -11 58 -15.5t50 -4.5q57 0 79 29t22 104v235h-210v60h210v155q0 76 45 123t118 47q27 0 66.5 -6t64.5 -17l-15 -60q-30 11 -58 15.5t-50 4.5q-56 0 -78.5 -29.5t-22.5 -103.5v-129h220v-60h-220v-261q0 -78 -44 -124t-119 -46z
" />
    <glyph glyph-name="asciicircum" unicode="^" 
d="M574 200l-224 532l-220 -532h-65l250 600h70l254 -600h-65z" />
    <glyph glyph-name="asciitilde" unicode="~" 
d="M488 210q-52 0 -88.5 39t-75.5 129q-35 81 -58.5 112.5t-57.5 31.5t-53 -36.5t-19 -112.5v-153h-64v159q0 101 39 156t102 55q53 0 90 -39.5t75 -130.5q34 -81 57 -111.5t57 -30.5t53 36.5t19 113.5v152h64v-159q0 -101 -38.5 -156t-101.5 -55z" />
    <glyph glyph-name="acute" unicode="&#xb4;" 
d="M264 700zM264 700l142 200h108l-189 -200h-61z" />
    <glyph glyph-name="grave" unicode="`" 
d="M401 430l-195 370h139l116 -370h-60z" />
    <glyph glyph-name="hungarumlaut" unicode="&#x2dd;" 
d="M220 700zM426 700l56 200h110l-113 -200h-53zM220 700l56 200h110l-113 -200h-53z" />
    <glyph glyph-name="circumflex" unicode="&#x2c6;" 
d="M152 715zM179 715l-27 42l173 160h48l175 -160l-28 -42l-171 135z" />
    <glyph glyph-name="caron" unicode="&#x2c7;" 
d="M152 704zM326 704l-174 160l27 42l171 -135l170 135l28 -42l-174 -160h-48z" />
    <glyph glyph-name="breve" unicode="&#x2d8;" 
d="M136 693zM350 693q-98 0 -155.5 51.5t-58.5 158.5h70q2 -81 36.5 -116t107.5 -35t107.5 35t36.5 116h70q-1 -107 -58.5 -158.5t-155.5 -51.5z" />
    <glyph glyph-name="tilde" unicode="&#x2dc;" 
d="M155 710zM434 710q-34 0 -57 18.5t-48 58.5q-19 33 -34 49t-32 16q-26 0 -40 -27.5t-12 -93.5v-11h-56v15q0 82 28.5 128.5t82.5 46.5q36 0 59 -18.5t45 -55.5q22 -34 36.5 -51t30.5 -17q25 0 38.5 27.5t13.5 93.5v11h56v-15q0 -82 -28.5 -128.5t-82.5 -46.5z" />
    <glyph glyph-name="macron" unicode="&#x2c9;" 
d="M165 770zM165 770v63h370v-63h-370z" />
    <glyph glyph-name="macron" unicode="&#xaf;" 
d="M165 770zM165 770v63h370v-63h-370z" />
    <glyph glyph-name="dieresis" unicode="&#xa8;" 
d="M188 722zM241 722q-24 0 -38.5 9.5t-14.5 35.5v7q0 27 14.5 37t38.5 10t38.5 -10t14.5 -37v-7q0 -26 -15 -35.5t-38 -9.5zM459 722q-24 0 -38.5 9.5t-14.5 35.5v7q0 27 14.5 37t38.5 10t38.5 -10t14.5 -37v-7q0 -26 -15 -35.5t-38 -9.5z" />
    <glyph glyph-name="dotaccent" unicode="&#x2d9;" 
d="M286 722zM350 722q-28 0 -46 9.5t-18 35.5v7q0 27 18 37t46 10t46 -10t18 -37v-7q0 -26 -18 -35.5t-46 -9.5z" />
    <glyph glyph-name="ring" unicode="&#x2da;" 
d="M202 685zM350 685q-69 0 -108.5 36.5t-39.5 108.5v32q0 73 39.5 110.5t108.5 37.5t108.5 -37.5t39.5 -110.5v-32q0 -72 -39.5 -108.5t-108.5 -36.5zM350 738q46 0 67 21.5t21 70.5v32q0 49 -21 72t-67 23t-67 -23t-21 -72v-32q0 -49 21 -70.5t67 -21.5z" />
    <glyph glyph-name="cedilla" unicode="&#xb8;" 
d="M177 0zM320 0l14 30q54 -10 89 -41t35 -86q0 -58 -39.5 -88.5t-100.5 -30.5q-60 0 -98.5 25t-42.5 84l64 6q4 -31 20 -44t52 -13q42 0 60.5 15t18.5 54q0 38 -16.5 58t-55.5 31z" />
    <glyph glyph-name="ogonek" unicode="&#x2db;" 
d="M266 0zM405 -215q-60 0 -99.5 30.5t-39.5 82.5q0 46 34.5 83.5t85.5 57.5l18 -16q-38 -23 -55 -50t-17 -56q0 -35 20 -52t61 -17q19 0 40.5 2.5t39.5 6.5v-63q-19 -4 -44 -6.5t-44 -2.5z" />
    <glyph glyph-name="tonos" unicode="&#x384;" 
d="M288 700zM288 700l82 200h104l-129 -200h-57z" />
    <glyph glyph-name="dieresistonos" unicode="&#x385;" 
d="M132 700zM292 700l58 200h84l-93 -200h-49zM175 712q-19 0 -31 9.5t-12 35.5v7q0 27 12 37t31 10t31 -10t12 -37v-7q0 -26 -12 -35.5t-31 -9.5zM525 712q-19 0 -31 9.5t-12 35.5v7q0 27 12 37t31 10t31 -10t12 -37v-7q0 -26 -12 -35.5t-31 -9.5z" />
    <glyph glyph-name="copyright" unicode="&#xa9;" 
d="M350 -110q-164 0 -242.5 92.5t-78.5 274.5v222q0 184 78.5 277.5t243.5 93.5q164 0 242 -93.5t78 -277.5v-222q0 -182 -78.5 -274.5t-242.5 -92.5zM350 -61q143 0 206 77.5t63 252.5v198q0 177 -63 255.5t-206 78.5t-206 -78.5t-63 -255.5v-198q0 -175 63 -252.5
t206 -77.5zM359 100q-75 0 -110.5 49t-35.5 148v149q0 97 35 145.5t110 48.5q66 0 96 -42.5t36 -120.5l-59 -4q-4 62 -20 86t-54 24q-40 0 -59 -30t-19 -101v-164q0 -70 19 -100.5t61 -30.5q37 0 52.5 22t19.5 79l59 -4q-6 -75 -35.5 -114.5t-95.5 -39.5z" />
    <glyph glyph-name="registered" unicode="&#xae;" 
d="M350 138q-140 0 -206 70t-66 203v173q0 134 66.5 205t206.5 71t205.5 -71t65.5 -205v-173q0 -133 -66 -203t-206 -70zM350 183q119 0 173 56.5t54 181.5v153q0 128 -54 185t-173 57t-173 -57t-54 -185v-153q0 -125 54 -181.5t173 -56.5zM290 488h69q31 0 46 13.5t15 41.5
v28q0 33 -15 49t-46 16h-69v-148zM290 323h-49v358h118q54 0 82.5 -28t28.5 -82v-28q0 -39 -19 -63.5t-56 -32.5l83 -124h-59l-80 120h-49v-120z" />
    <glyph glyph-name="trademark" unicode="&#x2122;" 
d="M111 351v398h-92v51h234v-51h-87v-398h-55zM371 716l1 -365h-52v449h69l93 -242l94 242h65v-449h-52v364l-88 -227h-40z" />
    <glyph glyph-name="degree" unicode="&#xb0;" 
d="M350 346q-83 0 -134 44.5t-51 137.5v93q0 93 51 139t134 46q84 0 134.5 -46t50.5 -139v-93q0 -93 -51 -137.5t-134 -44.5zM350 406q59 0 89.5 28t30.5 94v93q0 64 -30.5 94.5t-89.5 30.5q-60 0 -90 -30.5t-30 -94.5v-93q0 -66 30 -94t90 -28z" />
    <glyph glyph-name="careof" unicode="&#x2105;" 
d="M272 575l64 -7q-4 -61 -43.5 -90.5t-97.5 -29.5q-63 0 -102.5 38t-39.5 117v60q0 80 39.5 118.5t102.5 38.5q59 0 98 -30t43 -93l-64 -6q-4 37 -22.5 54.5t-54.5 17.5t-57 -23.5t-21 -74.5v-64q0 -51 21 -73.5t57 -22.5t54.5 16.5t22.5 53.5zM52 161l560 529l41 -44
l-561 -529zM506 -22q-63 0 -102.5 38t-39.5 117v60q0 80 39.5 118.5t102.5 38.5t102 -38.5t39 -118.5v-60q0 -79 -39 -117t-102 -38zM506 35q36 0 56.5 22.5t20.5 73.5v64q0 51 -20.5 74.5t-56.5 23.5t-57 -23.5t-21 -74.5v-64q0 -51 21 -73.5t57 -22.5z" />
    <glyph glyph-name="uni2117" unicode="&#x2117;" 
d="M350 -110q-165 0 -243 92.5t-78 274.5v222q0 184 78.5 277.5t243.5 93.5t242.5 -93.5t77.5 -277.5v-222q0 -182 -78 -274.5t-243 -92.5zM350 -61q141 0 205 78.5t64 251.5v198q0 175 -64 254.5t-205 79.5t-205 -79.5t-64 -254.5v-198q0 -173 64 -251.5t205 -78.5z
M227 122v504h134q78 0 116.5 -42t38.5 -121v-38q0 -74 -38.5 -112.5t-116.5 -38.5h-68v-152h-66zM293 330h68q50 0 69.5 22t19.5 73v38q0 56 -19.5 81t-69.5 25h-68v-239z" />
    <glyph glyph-name="estimated" unicode="&#x212e;" 
d="M345 -12q-138 0 -227.5 117t-89.5 297q0 184 89 298.5t232 114.5q139 0 227.5 -129t92.5 -336h-457v-230q31 -25 62 -38.5t71 -13.5q78 0 133 30.5t90 85.5l48 -60q-43 -65 -109.5 -100.5t-161.5 -35.5zM212 430h269v250q-30 24 -61 39.5t-73 15.5q-39 0 -71.5 -12
t-63.5 -40v-253z" />
    <glyph glyph-name="arrowupdn" unicode="&#x2195;" 
d="M360 -100h-20l-315 330v20h290v300h-290v20l315 330h20l315 -330v-20h-290v-300h290v-20z" />
    <glyph glyph-name="arrowupdnbse" unicode="&#x21a8;" 
d="M25 0zM360 -100h-20l-315 330v20h290v300h-290v20l315 330h20l315 -330v-20h-290v-300h290v-20zM70 -185v70h560v-70h-560z" />
    <glyph glyph-name="logicalnotreversed" unicode="&#x2310;" 
d="M85 0v385h545v-70h-475v-315h-70z" />
    <glyph glyph-name="lighthorzbxd" unicode="&#x2500;" 
d="M-20 335h740v-70h-740v70z" />
    <glyph glyph-name="heavyhorzbxd" unicode="&#x2501;" 
d="M-20 370h740v-140h-740v140z" />
    <glyph glyph-name="lightvertbxd" unicode="&#x2502;" 
d="M315 1050h70v-1500h-70v1500z" />
    <glyph glyph-name="heavyvertbxd" unicode="&#x2503;" 
d="M280 1050h140v-1500h-140v1500z" />
    <glyph glyph-name="lighttrpldashhorzbxd" unicode="&#x2504;" 
d="M38 335h156v-70h-156v70zM271 335h156v-70h-156v70zM504 335h156v-70h-156v70z" />
    <glyph glyph-name="heavytrpldashhorzbxd" unicode="&#x2505;" 
d="M38 370h156v-140h-156v140zM271 370h156v-140h-156v140zM504 370h156v-140h-156v140z" />
    <glyph glyph-name="lighttrpldashvertbxd" unicode="&#x2506;" 
d="M315 55h70v-244h-70v244zM315 421h70v-244h-70v244zM315 787h70v-244h-70v244zM315 1153h70v-244h-70v244z" />
    <glyph glyph-name="heavytrpldashvertbxd" unicode="&#x2507;" 
d="M280 55h140v-244h-140v244zM280 421h140v-244h-140v244zM280 787h140v-244h-140v244zM280 1153h140v-244h-140v244z" />
    <glyph glyph-name="lightquaddashhorzbxd" unicode="&#x2508;" 
d="M21 335h132v-70h-132v70zM196 335h132v-70h-132v70zM371 335h132v-70h-132v70zM546 335h132v-70h-132v70z" />
    <glyph glyph-name="heavyquaddashhorzbxd" unicode="&#x2509;" 
d="M21 370h132v-140h-132v140zM196 370h132v-140h-132v140zM371 370h132v-140h-132v140zM546 370h132v-140h-132v140z" />
    <glyph glyph-name="lightquaddashvertbxd" unicode="&#x250a;" 
d="M315 -9h70v-207h-70v207zM315 266h70v-207h-70v207zM315 541h70v-207h-70v207zM315 816h70v-207h-70v207z" />
    <glyph glyph-name="heavyquaddashvertbxd" unicode="&#x250b;" 
d="M280 -9h140v-207h-140v207zM280 266h140v-207h-140v207zM280 541h140v-207h-140v207zM280 816h140v-207h-140v207z" />
    <glyph glyph-name="lightdnrightbxd" unicode="&#x250c;" 
d="M315 335h405v-70h-335v-715h-70v785z" />
    <glyph glyph-name="dnlightrightheavybxd" unicode="&#x250d;" 
d="M315 370h405v-140h-335v-680h-70v820z" />
    <glyph glyph-name="dnheavyrightlightbxd" unicode="&#x250e;" 
d="M280 335h440v-70h-300v-715h-140v785z" />
    <glyph glyph-name="heavydnrightbxd" unicode="&#x250f;" 
d="M280 370h440v-140h-300v-680h-140v820z" />
    <glyph glyph-name="lightdnleftbxd" unicode="&#x2510;" 
d="M-20 335h405v-785h-70v715h-335v70z" />
    <glyph glyph-name="dnlightleftheavybxd" unicode="&#x2511;" 
d="M-20 370h405v-820h-70v680h-335v140z" />
    <glyph glyph-name="dnheavyleftlightbxd" unicode="&#x2512;" 
d="M-20 335h440v-785h-140v715h-300v70z" />
    <glyph glyph-name="heavydnleftbxd" unicode="&#x2513;" 
d="M-20 370h440v-820h-140v680h-300v140z" />
    <glyph glyph-name="lightuprightbxd" unicode="&#x2514;" 
d="M315 1050h70v-715h335v-70h-405v785z" />
    <glyph glyph-name="uplightrightheavybxd" unicode="&#x2515;" 
d="M315 1050h70v-680h335v-140h-405v820z" />
    <glyph glyph-name="upheavyrightlightbxd" unicode="&#x2516;" 
d="M280 1050h140v-715h300v-70h-440v785z" />
    <glyph glyph-name="heavyuprightbxd" unicode="&#x2517;" 
d="M280 1050h140v-680h300v-140h-440v820z" />
    <glyph glyph-name="lightupleftbxd" unicode="&#x2518;" 
d="M-20 335h335v715h70v-785h-405v70z" />
    <glyph glyph-name="uplightleftheavybxd" unicode="&#x2519;" 
d="M-20 370h335v680h70v-820h-405v140z" />
    <glyph glyph-name="upheavyleftlightbxd" unicode="&#x251a;" 
d="M-20 335h300v715h140v-785h-440v70z" />
    <glyph glyph-name="heavyupleftbxd" unicode="&#x251b;" 
d="M-20 370h300v680h140v-820h-440v140z" />
    <glyph glyph-name="lightvertrightbxd" unicode="&#x251c;" 
d="M315 1050h70v-715h335v-70h-335v-715h-70v1500z" />
    <glyph glyph-name="vertlightrightheavybxd" unicode="&#x251d;" 
d="M315 1050h70v-680h335v-140h-335v-680h-70v1500z" />
    <glyph glyph-name="upheavyrightdnlightbxd" unicode="&#x251e;" 
d="M280 1050h140v-715h300v-70h-335v-715h-70v715h-35v785z" />
    <glyph glyph-name="dnheavyrightuplightbxd" unicode="&#x251f;" 
d="M280 335h35v715h70v-715h335v-70h-300v-715h-140v785z" />
    <glyph glyph-name="vertheavyrightlightbxd" unicode="&#x2520;" 
d="M280 1050h140v-715h300v-70h-300v-715h-140v1500z" />
    <glyph glyph-name="dnlightrightupheavybxd" unicode="&#x2521;" 
d="M280 1050h140v-680h300v-140h-335v-680h-70v680h-35v820z" />
    <glyph glyph-name="uplightrightdnheavybxd" unicode="&#x2522;" 
d="M280 370h35v680h70v-680h335v-140h-300v-680h-140v820z" />
    <glyph glyph-name="heavyvertrightbxd" unicode="&#x2523;" 
d="M280 1050h140v-680h300v-140h-300v-680h-140v1500z" />
    <glyph glyph-name="lightvertleftbxd" unicode="&#x2524;" 
d="M-20 335h335v715h70v-1500h-70v715h-335v70z" />
    <glyph glyph-name="vertlightleftheavybxd" unicode="&#x2525;" 
d="M-20 370h335v680h70v-1500h-70v680h-335v140z" />
    <glyph glyph-name="upheavyleftdnlightbxd" unicode="&#x2526;" 
d="M-20 335h300v715h140v-785h-35v-715h-70v715h-335v70z" />
    <glyph glyph-name="dnheavyleftuplightbxd" unicode="&#x2527;" 
d="M-20 335h335v715h70v-715h35v-785h-140v715h-300v70z" />
    <glyph glyph-name="vertheavyleftlightbxd" unicode="&#x2528;" 
d="M-20 335h300v715h140v-1500h-140v715h-300v70z" />
    <glyph glyph-name="dnlightleftupheavybxd" unicode="&#x2529;" 
d="M-20 370h300v680h140v-820h-35v-680h-70v680h-335v140z" />
    <glyph glyph-name="uplightleftdnheavybxd" unicode="&#x252a;" 
d="M-20 370h335v680h70v-680h35v-820h-140v680h-300v140z" />
    <glyph glyph-name="heavyvertleftbxd" unicode="&#x252b;" 
d="M-20 370h300v680h140v-1500h-140v680h-300v140z" />
    <glyph glyph-name="lightdnhorzbxd" unicode="&#x252c;" 
d="M-20 335h740v-70h-335v-715h-70v715h-335v70z" />
    <glyph glyph-name="leftheavyrightdnlightbxd" unicode="&#x252d;" 
d="M-20 370h405v-35h335v-70h-335v-715h-70v680h-335v140z" />
    <glyph glyph-name="rightheavyleftdnlightbxd" unicode="&#x252e;" 
d="M-20 335h335v35h405v-140h-335v-680h-70v715h-335v70z" />
    <glyph glyph-name="dnlighthorzheavybxd" unicode="&#x252f;" 
d="M-20 370h740v-140h-335v-680h-70v680h-335v140z" />
    <glyph glyph-name="dnheavyhorzlightbxd" unicode="&#x2530;" 
d="M-20 335h740v-70h-300v-715h-140v715h-300v70z" />
    <glyph glyph-name="rightlightleftdnheavybxd" unicode="&#x2531;" 
d="M-20 370h440v-35h300v-70h-300v-715h-140v680h-300v140z" />
    <glyph glyph-name="leftlightrightdnheavybxd" unicode="&#x2532;" 
d="M-20 335h300v35h440v-140h-300v-680h-140v715h-300v70z" />
    <glyph glyph-name="heavydnhorzbxd" unicode="&#x2533;" 
d="M-20 370h740v-140h-300v-680h-140v680h-300v140z" />
    <glyph glyph-name="lightuphorzbxd" unicode="&#x2534;" 
d="M-20 335h335v715h70v-715h335v-70h-740v70z" />
    <glyph glyph-name="leftheavyrightuplightbxd" unicode="&#x2535;" 
d="M-20 370h335v680h70v-715h335v-70h-335v-35h-405v140z" />
    <glyph glyph-name="rightheavyleftuplightbxd" unicode="&#x2536;" 
d="M-20 335h335v715h70v-680h335v-140h-405v35h-335v70z" />
    <glyph glyph-name="uplighthorzheavybxd" unicode="&#x2537;" 
d="M-20 370h335v680h70v-680h335v-140h-740v140z" />
    <glyph glyph-name="upheavyhorzlightbxd" unicode="&#x2538;" 
d="M-20 335h300v715h140v-715h300v-70h-740v70z" />
    <glyph glyph-name="rightlightleftupheavybxd" unicode="&#x2539;" 
d="M-20 370h300v680h140v-715h300v-70h-300v-35h-440v140z" />
    <glyph glyph-name="leftlightrightupheavybxd" unicode="&#x253a;" 
d="M-20 335h300v715h140v-680h300v-140h-440v35h-300v70z" />
    <glyph glyph-name="heavyuphorzbxd" unicode="&#x253b;" 
d="M-20 370h300v680h140v-680h300v-140h-740v140z" />
    <glyph glyph-name="lightverthorzbxd" unicode="&#x253c;" 
d="M-20 335h335v715h70v-715h335v-70h-335v-715h-70v715h-335v70z" />
    <glyph glyph-name="leftheavyrightvertlightbxd" unicode="&#x253d;" 
d="M-20 370h335v680h70v-715h335v-70h-335v-715h-70v680h-335v140z" />
    <glyph glyph-name="rightheavyleftvertlightbxd" unicode="&#x253e;" 
d="M-20 335h335v715h70v-680h335v-140h-335v-680h-70v715h-335v70z" />
    <glyph glyph-name="vertlighthorzheavybxd" unicode="&#x253f;" 
d="M-20 370h335v680h70v-680h335v-140h-335v-680h-70v680h-335v140z" />
    <glyph glyph-name="upheavydnhorzlightbxd" unicode="&#x2540;" 
d="M-20 335h300v715h140v-715h300v-70h-335v-715h-70v715h-335v70z" />
    <glyph glyph-name="dnheavyuphorzlightbxd" unicode="&#x2541;" 
d="M-20 335h335v715h70v-715h335v-70h-300v-715h-140v715h-300v70z" />
    <glyph glyph-name="vertheavyhorzlightbxd" unicode="&#x2542;" 
d="M-20 335h300v715h140v-715h300v-70h-300v-715h-140v715h-300v70z" />
    <glyph glyph-name="leftupheavyrightdnlightbxd" unicode="&#x2543;" 
d="M-20 370h300v680h140v-715h300v-70h-300v-35h-35v-680h-70v680h-335v140z" />
    <glyph glyph-name="rightupheavyleftdnlightbxd" unicode="&#x2544;" 
d="M-20 335h300v715h140v-680h300v-140h-335v-680h-70v680h-35v35h-300v70z" />
    <glyph glyph-name="leftdnheavyrightuplightbxd" unicode="&#x2545;" 
d="M-20 370h335v680h70v-680h35v-35h300v-70h-300v-715h-140v680h-300v140z" />
    <glyph glyph-name="rightdnheavyleftuplightbxd" unicode="&#x2546;" 
d="M-20 335h300v35h35v680h70v-680h335v-140h-300v-680h-140v715h-300v70z" />
    <glyph glyph-name="dnlightuphorzheavybxd" unicode="&#x2547;" 
d="M-20 370h300v680h140v-680h300v-140h-335v-680h-70v680h-335v140z" />
    <glyph glyph-name="uplightdnhorzheavybxd" unicode="&#x2548;" 
d="M-20 370h335v680h70v-680h335v-140h-300v-680h-140v680h-300v140z" />
    <glyph glyph-name="rightlightleftvertheavybxd" unicode="&#x2549;" 
d="M-20 370h300v680h140v-715h300v-70h-300v-715h-140v680h-300v140z" />
    <glyph glyph-name="leftlightrightvertheavybxd" unicode="&#x254a;" 
d="M-20 335h300v715h140v-680h300v-140h-300v-680h-140v715h-300v70z" />
    <glyph glyph-name="heavyverthorzbxd" unicode="&#x254b;" 
d="M-20 370h300v680h140v-680h300v-140h-300v-680h-140v680h-300v140z" />
    <glyph glyph-name="lightdbldashhorzbxd" unicode="&#x254c;" 
d="M87 335h175v-70h-175v70zM437 335h175v-70h-175v70z" />
    <glyph glyph-name="heavydbldashhorzbxd" unicode="&#x254d;" 
d="M87 370h175v-140h-175v140zM437 370h175v-140h-175v140z" />
    <glyph glyph-name="lightdbldashvertbxd" unicode="&#x254e;" 
d="M315 162h70v-275h-70v275zM315 712h70v-275h-70v275z" />
    <glyph glyph-name="heavydbldashvertbxd" unicode="&#x254f;" 
d="M280 162h140v-275h-140v275zM280 712h140v-275h-140v275z" />
    <glyph glyph-name="dblhorzbxd" unicode="&#x2550;" 
d="M-20 405h740v-70h-740v70zM-20 265h740v-70h-740v70z" />
    <glyph glyph-name="dblvertbxd" unicode="&#x2551;" 
d="M245 1050h70v-1500h-70v1500zM385 1050h70v-1500h-70v1500z" />
    <glyph glyph-name="dnsngrightdblbxd" unicode="&#x2552;" 
d="M315 405h405v-70h-335v-70h335v-70h-335v-645h-70v855z" />
    <glyph glyph-name="dndblrightsngbxd" unicode="&#x2553;" 
d="M245 335h475v-70h-265v-715h-70v715h-70v-715h-70v785z" />
    <glyph glyph-name="dbldnrightbxd" unicode="&#x2554;" 
d="M245 405h475v-70h-405v-785h-70v855zM385 265h335v-70h-265v-645h-70v715z" />
    <glyph glyph-name="dnsngleftdblbxd" unicode="&#x2555;" 
d="M-20 405h405v-855h-70v645h-335v70h335v70h-335v70z" />
    <glyph glyph-name="dndblleftsngbxd" unicode="&#x2556;" 
d="M-20 335h475v-785h-70v715h-70v-715h-70v715h-265v70z" />
    <glyph glyph-name="dbldnleftbxd" unicode="&#x2557;" 
d="M-20 405h475v-855h-70v785h-405v70zM-20 265h335v-715h-70v645h-265v70z" />
    <glyph glyph-name="upsngrightdblbxd" unicode="&#x2558;" 
d="M315 1050h70v-645h335v-70h-335v-70h335v-70h-405v855z" />
    <glyph glyph-name="updblrightsngbxd" unicode="&#x2559;" 
d="M245 1050h70v-715h70v715h70v-715h265v-70h-475v785z" />
    <glyph glyph-name="dbluprightbxd" unicode="&#x255a;" 
d="M245 1050h70v-785h405v-70h-475v855zM385 1050h70v-645h265v-70h-335v715z" />
    <glyph glyph-name="upsngleftdblbxd" unicode="&#x255b;" 
d="M-20 405h335v645h70v-855h-405v70h335v70h-335v70z" />
    <glyph glyph-name="updblleftsngbxd" unicode="&#x255c;" 
d="M-20 335h265v715h70v-715h70v715h70v-785h-475v70z" />
    <glyph glyph-name="dblupleftbxd" unicode="&#x255d;" 
d="M-20 265h405v785h70v-855h-475v70zM-20 405h265v645h70v-715h-335v70z" />
    <glyph glyph-name="vertsngrightdblbxd" unicode="&#x255e;" 
d="M315 1050h70v-645h335v-70h-335v-70h335v-70h-335v-645h-70v1500z" />
    <glyph glyph-name="vertdblrightsngbxd" unicode="&#x255f;" 
d="M385 1050h70v-715h265v-70h-265v-715h-70v1500zM245 1050h70v-1500h-70v1500z" />
    <glyph glyph-name="dblvertrightbxd" unicode="&#x2560;" 
d="M245 1050h70v-1500h-70v1500zM385 1050h70v-645h265v-70h-335v715zM385 265h335v-70h-265v-645h-70v715z" />
    <glyph glyph-name="vertsngleftdblbxd" unicode="&#x2561;" 
d="M-20 405h335v645h70v-1500h-70v645h-335v70h335v70h-335v70z" />
    <glyph glyph-name="vertdblleftsngbxd" unicode="&#x2562;" 
d="M-20 335h265v715h70v-1500h-70v715h-265v70zM385 1050h70v-1500h-70v1500z" />
    <glyph glyph-name="dblvertleftbxd" unicode="&#x2563;" 
d="M385 1050h70v-1500h-70v1500zM-20 265h335v-715h-70v645h-265v70zM-20 405h265v645h70v-715h-335v70z" />
    <glyph glyph-name="dnsnghorzdblbxd" unicode="&#x2564;" 
d="M-20 265h740v-70h-335v-645h-70v645h-335v70zM-20 405h740v-70h-740v70z" />
    <glyph glyph-name="dndblhorzsngbxd" unicode="&#x2565;" 
d="M-20 335h740v-70h-265v-715h-70v715h-70v-715h-70v715h-265v70z" />
    <glyph glyph-name="dbldnhorzbxd" unicode="&#x2566;" 
d="M-20 265h335v-715h-70v645h-265v70zM385 265h335v-70h-265v-645h-70v715zM-20 405h740v-70h-740v70z" />
    <glyph glyph-name="upsnghorzdblbxd" unicode="&#x2567;" 
d="M-20 405h335v645h70v-645h335v-70h-740v70zM-20 265h740v-70h-740v70z" />
    <glyph glyph-name="updblhorzsngbxd" unicode="&#x2568;" 
d="M-20 335h265v715h70v-715h70v715h70v-715h265v-70h-740v70z" />
    <glyph glyph-name="dbluphorzbxd" unicode="&#x2569;" 
d="M-20 405h265v645h70v-715h-335v70zM385 1050h70v-645h265v-70h-335v715zM-20 265h740v-70h-740v70z" />
    <glyph glyph-name="vertsnghorzdblbxd" unicode="&#x256a;" 
d="M-20 405h335v645h70v-645h335v-70h-335v-70h335v-70h-335v-645h-70v645h-335v70h335v70h-335v70z" />
    <glyph glyph-name="vertdblhorzsngbxd" unicode="&#x256b;" 
d="M-20 335h265v715h70v-715h70v715h70v-715h265v-70h-265v-715h-70v715h-70v-715h-70v715h-265v70z" />
    <glyph glyph-name="dblverthorzbxd" unicode="&#x256c;" 
d="M-20 405h265v645h70v-715h-335v70zM-20 265h335v-715h-70v645h-265v70zM385 1050h70v-645h265v-70h-335v715zM385 265h335v-70h-265v-645h-70v715z" />
    <glyph glyph-name="lightarcdnrightbxd" unicode="&#x256d;" 
d="M315 -50q0 80 30 150t82.5 122.5t122.5 82.5t150 30h20v-70h-20q-65 0 -122.5 -25t-100.5 -67.5t-67.5 -100t-24.5 -122.5v-400h-70v400z" />
    <glyph glyph-name="lightarcdnleftbxd" unicode="&#x256e;" 
d="M385 -450h-70v400q0 65 -25 122.5t-67.5 100t-100 67.5t-122.5 25h-20v70h20q80 0 150 -30t122.5 -82.5t82.5 -122.5t30 -150v-400z" />
    <glyph glyph-name="lightarcupleftbxd" unicode="&#x256f;" 
d="M385 650q0 -80 -30 -150t-82.5 -122.5t-122.5 -82.5t-150 -30h-20v70h20q65 0 122.5 24.5t100 67.5t67.5 100.5t25 122.5v400h70v-400z" />
    <glyph glyph-name="lightarcuprightbxd" unicode="&#x2570;" 
d="M315 1050h70v-400q0 -65 24.5 -122.5t67.5 -100.5t100.5 -67.5t122.5 -24.5h20v-70h-20q-80 0 -150 30t-122.5 82.5t-82.5 122.5t-30 150v400z" />
    <glyph glyph-name="lightdiaguprightdnleftbxd" unicode="&#x2571;" 
d="M659 850h41v-65l-659 -1035h-41v65z" />
    <glyph glyph-name="lightdiagupleftdnrightbxd" unicode="&#x2572;" 
d="M700 -185v-65h-41l-659 1035v65h41z" />
    <glyph glyph-name="lightdiagcrossbxd" unicode="&#x2573;" 
d="M309 300l-309 485v65h41l309 -486l309 486h41v-65l-309 -485l309 -485v-65h-41l-309 485l-309 -485h-41v65z" />
    <glyph glyph-name="lightleftbxd" unicode="&#x2574;" 
d="M-20 335h405v-70h-405v70z" />
    <glyph glyph-name="lightupbxd" unicode="&#x2575;" 
d="M315 1050h70v-785h-70v785z" />
    <glyph glyph-name="lightrightbxd" unicode="&#x2576;" 
d="M315 335h405v-70h-405v70z" />
    <glyph glyph-name="lightdnbxd" unicode="&#x2577;" 
d="M315 335h70v-785h-70v785z" />
    <glyph glyph-name="heavyleftbxd" unicode="&#x2578;" 
d="M-20 370h405v-140h-405v140z" />
    <glyph glyph-name="heavyupbxd" unicode="&#x2579;" 
d="M280 1050h140v-785h-140v785z" />
    <glyph glyph-name="heavyrightbxd" unicode="&#x257a;" 
d="M315 370h405v-140h-405v140z" />
    <glyph glyph-name="heavydnbxd" unicode="&#x257b;" 
d="M280 335h140v-785h-140v785z" />
    <glyph glyph-name="lightleftheavyrightbxd" unicode="&#x257c;" 
d="M-20 335h335v35h405v-140h-405v35h-335v70z" />
    <glyph glyph-name="lightupheavydnbxd" unicode="&#x257d;" 
d="M280 335h35v715h70v-715h35v-785h-140v785z" />
    <glyph glyph-name="heavyleftlightrightbxd" unicode="&#x257e;" 
d="M-20 370h405v-35h335v-70h-335v-35h-405v140z" />
    <glyph glyph-name="heavyuplightdnbxd" unicode="&#x257f;" 
d="M280 1050h140v-785h-35v-715h-70v715h-35v785z" />
    <glyph glyph-name="uphalfblock" unicode="&#x2580;" 
d="M0 850h700v-550h-700v550z" />
    <glyph glyph-name="dneighthblock" unicode="&#x2581;" 
d="M0 -113h700v-137h-700v137z" />
    <glyph glyph-name="dnquarterblock" unicode="&#x2582;" 
d="M0 25h700v-275h-700v275z" />
    <glyph glyph-name="dnthreeeighthsblock" unicode="&#x2583;" 
d="M0 162h700v-412h-700v412z" />
    <glyph glyph-name="dnhalfblock" unicode="&#x2584;" 
d="M0 300h700v-550h-700v550z" />
    <glyph glyph-name="dnfiveeighthsblock" unicode="&#x2585;" 
d="M0 437h700v-687h-700v687z" />
    <glyph glyph-name="dnthreequartersblock" unicode="&#x2586;" 
d="M0 575h700v-825h-700v825z" />
    <glyph glyph-name="dnseveneighthsblock" unicode="&#x2587;" 
d="M0 712h700v-962h-700v962z" />
    <glyph glyph-name="fullblock" unicode="&#x2588;" 
d="M0 850h700v-1100h-700v1100z" />
    <glyph glyph-name="leftseveneighthsblock" unicode="&#x2589;" 
d="M0 850h612v-1100h-612v1100z" />
    <glyph glyph-name="leftthreequartersblock" unicode="&#x258a;" 
d="M0 850h525v-1100h-525v1100z" />
    <glyph glyph-name="leftfiveeighthsblock" unicode="&#x258b;" 
d="M0 850h437v-1100h-437v1100z" />
    <glyph glyph-name="lefthalfblock" unicode="&#x258c;" 
d="M0 850h350v-1100h-350v1100z" />
    <glyph glyph-name="leftthreeeighthsblock" unicode="&#x258d;" 
d="M0 850h262v-1100h-262v1100z" />
    <glyph glyph-name="leftquarterblock" unicode="&#x258e;" 
d="M0 850h175v-1100h-175v1100z" />
    <glyph glyph-name="lefteighthblock" unicode="&#x258f;" 
d="M0 850h87v-1100h-87v1100z" />
    <glyph glyph-name="righthalfblock" unicode="&#x2590;" 
d="M350 850h350v-1100h-350v1100z" />
    <glyph glyph-name="lightshade" unicode="&#x2591;" 
d="M0 -220h20v-30h-20v30zM50 -170h20v-30h-20v30zM0 -120h20v-30h-20v30zM50 -70h20v-30h-20v30zM0 -20h20v-30h-20v30zM50 30h20v-30h-20v30zM0 80h20v-30h-20v30zM50 130h20v-30h-20v30zM0 180h20v-30h-20v30zM50 230h20v-30h-20v30zM0 280h20v-30h-20v30zM50 330h20v-30
h-20v30zM0 380h20v-30h-20v30zM50 430h20v-30h-20v30zM0 480h20v-30h-20v30zM50 530h20v-30h-20v30zM0 580h20v-30h-20v30zM50 630h20v-30h-20v30zM0 680h20v-30h-20v30zM50 730h20v-30h-20v30zM0 780h20v-30h-20v30zM50 830h20v-30h-20v30zM100 -220h20v-30h-20v30z
M150 -170h20v-30h-20v30zM100 -120h20v-30h-20v30zM150 -70h20v-30h-20v30zM100 -20h20v-30h-20v30zM150 30h20v-30h-20v30zM100 80h20v-30h-20v30zM150 130h20v-30h-20v30zM100 180h20v-30h-20v30zM150 230h20v-30h-20v30zM100 280h20v-30h-20v30zM150 330h20v-30h-20v30z
M100 380h20v-30h-20v30zM150 430h20v-30h-20v30zM100 480h20v-30h-20v30zM150 530h20v-30h-20v30zM100 580h20v-30h-20v30zM150 630h20v-30h-20v30zM100 680h20v-30h-20v30zM150 730h20v-30h-20v30zM100 780h20v-30h-20v30zM150 830h20v-30h-20v30zM200 -220h20v-30h-20v30z
M250 -170h20v-30h-20v30zM200 -120h20v-30h-20v30zM250 -70h20v-30h-20v30zM200 -20h20v-30h-20v30zM250 30h20v-30h-20v30zM200 80h20v-30h-20v30zM250 130h20v-30h-20v30zM200 180h20v-30h-20v30zM250 230h20v-30h-20v30zM200 280h20v-30h-20v30zM250 330h20v-30h-20v30z
M200 380h20v-30h-20v30zM250 430h20v-30h-20v30zM200 480h20v-30h-20v30zM250 530h20v-30h-20v30zM200 580h20v-30h-20v30zM250 630h20v-30h-20v30zM200 680h20v-30h-20v30zM250 730h20v-30h-20v30zM200 780h20v-30h-20v30zM250 830h20v-30h-20v30zM300 -220h20v-30h-20v30z
M350 -170h20v-30h-20v30zM300 -120h20v-30h-20v30zM350 -70h20v-30h-20v30zM300 -20h20v-30h-20v30zM350 30h20v-30h-20v30zM300 80h20v-30h-20v30zM350 130h20v-30h-20v30zM300 180h20v-30h-20v30zM350 230h20v-30h-20v30zM300 280h20v-30h-20v30zM350 330h20v-30h-20v30z
M300 380h20v-30h-20v30zM350 430h20v-30h-20v30zM300 480h20v-30h-20v30zM350 530h20v-30h-20v30zM300 580h20v-30h-20v30zM350 630h20v-30h-20v30zM300 680h20v-30h-20v30zM350 730h20v-30h-20v30zM300 780h20v-30h-20v30zM350 830h20v-30h-20v30zM400 -220h20v-30h-20v30z
M450 -170h20v-30h-20v30zM400 -120h20v-30h-20v30zM450 -70h20v-30h-20v30zM400 -20h20v-30h-20v30zM450 30h20v-30h-20v30zM400 80h20v-30h-20v30zM450 130h20v-30h-20v30zM400 180h20v-30h-20v30zM450 230h20v-30h-20v30zM400 280h20v-30h-20v30zM450 330h20v-30h-20v30z
M400 380h20v-30h-20v30zM450 430h20v-30h-20v30zM400 480h20v-30h-20v30zM450 530h20v-30h-20v30zM400 580h20v-30h-20v30zM450 630h20v-30h-20v30zM400 680h20v-30h-20v30zM450 730h20v-30h-20v30zM400 780h20v-30h-20v30zM450 830h20v-30h-20v30zM500 -220h20v-30h-20v30z
M550 -170h20v-30h-20v30zM500 -120h20v-30h-20v30zM550 -70h20v-30h-20v30zM500 -20h20v-30h-20v30zM550 30h20v-30h-20v30zM500 80h20v-30h-20v30zM550 130h20v-30h-20v30zM500 180h20v-30h-20v30zM550 230h20v-30h-20v30zM500 280h20v-30h-20v30zM550 330h20v-30h-20v30z
M500 380h20v-30h-20v30zM550 430h20v-30h-20v30zM500 480h20v-30h-20v30zM550 530h20v-30h-20v30zM500 580h20v-30h-20v30zM550 630h20v-30h-20v30zM500 680h20v-30h-20v30zM550 730h20v-30h-20v30zM500 780h20v-30h-20v30zM550 830h20v-30h-20v30zM600 -220h20v-30h-20v30z
M650 -170h20v-30h-20v30zM600 -120h20v-30h-20v30zM650 -70h20v-30h-20v30zM600 -20h20v-30h-20v30zM650 30h20v-30h-20v30zM600 80h20v-30h-20v30zM650 130h20v-30h-20v30zM600 180h20v-30h-20v30zM650 230h20v-30h-20v30zM600 280h20v-30h-20v30zM650 330h20v-30h-20v30z
M600 380h20v-30h-20v30zM650 430h20v-30h-20v30zM600 480h20v-30h-20v30zM650 530h20v-30h-20v30zM600 580h20v-30h-20v30zM650 630h20v-30h-20v30zM600 680h20v-30h-20v30zM650 730h20v-30h-20v30zM600 780h20v-30h-20v30zM650 830h20v-30h-20v30z" />
    <glyph glyph-name="mediumshade" unicode="&#x2592;" 
d="M0 -200h40v-50h-40v50zM50 -150h40v-50h-40v50zM0 -100h40v-50h-40v50zM50 -50h40v-50h-40v50zM0 0h40v-50h-40v50zM50 50h40v-50h-40v50zM0 100h40v-50h-40v50zM50 150h40v-50h-40v50zM0 200h40v-50h-40v50zM50 250h40v-50h-40v50zM0 300h40v-50h-40v50zM50 350h40v-50
h-40v50zM0 400h40v-50h-40v50zM50 450h40v-50h-40v50zM0 500h40v-50h-40v50zM50 550h40v-50h-40v50zM0 600h40v-50h-40v50zM50 650h40v-50h-40v50zM0 700h40v-50h-40v50zM50 750h40v-50h-40v50zM0 800h40v-50h-40v50zM50 850h40v-50h-40v50zM100 -200h40v-50h-40v50z
M150 -150h40v-50h-40v50zM100 -100h40v-50h-40v50zM150 -50h40v-50h-40v50zM100 0h40v-50h-40v50zM150 50h40v-50h-40v50zM100 100h40v-50h-40v50zM150 150h40v-50h-40v50zM100 200h40v-50h-40v50zM150 250h40v-50h-40v50zM100 300h40v-50h-40v50zM150 350h40v-50h-40v50z
M100 400h40v-50h-40v50zM150 450h40v-50h-40v50zM100 500h40v-50h-40v50zM150 550h40v-50h-40v50zM100 600h40v-50h-40v50zM150 650h40v-50h-40v50zM100 700h40v-50h-40v50zM150 750h40v-50h-40v50zM100 800h40v-50h-40v50zM150 850h40v-50h-40v50zM200 -200h40v-50h-40v50z
M250 -150h40v-50h-40v50zM200 -100h40v-50h-40v50zM250 -50h40v-50h-40v50zM200 0h40v-50h-40v50zM250 50h40v-50h-40v50zM200 100h40v-50h-40v50zM250 150h40v-50h-40v50zM200 200h40v-50h-40v50zM250 250h40v-50h-40v50zM200 300h40v-50h-40v50zM250 350h40v-50h-40v50z
M200 400h40v-50h-40v50zM250 450h40v-50h-40v50zM200 500h40v-50h-40v50zM250 550h40v-50h-40v50zM200 600h40v-50h-40v50zM250 650h40v-50h-40v50zM200 700h40v-50h-40v50zM250 750h40v-50h-40v50zM200 800h40v-50h-40v50zM250 850h40v-50h-40v50zM300 -200h40v-50h-40v50z
M350 -150h40v-50h-40v50zM300 -100h40v-50h-40v50zM350 -50h40v-50h-40v50zM300 0h40v-50h-40v50zM350 50h40v-50h-40v50zM300 100h40v-50h-40v50zM350 150h40v-50h-40v50zM300 200h40v-50h-40v50zM350 250h40v-50h-40v50zM300 300h40v-50h-40v50zM350 350h40v-50h-40v50z
M300 400h40v-50h-40v50zM350 450h40v-50h-40v50zM300 500h40v-50h-40v50zM350 550h40v-50h-40v50zM300 600h40v-50h-40v50zM350 650h40v-50h-40v50zM300 700h40v-50h-40v50zM350 750h40v-50h-40v50zM300 800h40v-50h-40v50zM350 850h40v-50h-40v50zM400 -200h40v-50h-40v50z
M450 -150h40v-50h-40v50zM400 -100h40v-50h-40v50zM450 -50h40v-50h-40v50zM400 0h40v-50h-40v50zM450 50h40v-50h-40v50zM400 100h40v-50h-40v50zM450 150h40v-50h-40v50zM400 200h40v-50h-40v50zM450 250h40v-50h-40v50zM400 300h40v-50h-40v50zM450 350h40v-50h-40v50z
M400 400h40v-50h-40v50zM450 450h40v-50h-40v50zM400 500h40v-50h-40v50zM450 550h40v-50h-40v50zM400 600h40v-50h-40v50zM450 650h40v-50h-40v50zM400 700h40v-50h-40v50zM450 750h40v-50h-40v50zM400 800h40v-50h-40v50zM450 850h40v-50h-40v50zM500 -200h40v-50h-40v50z
M550 -150h40v-50h-40v50zM500 -100h40v-50h-40v50zM550 -50h40v-50h-40v50zM500 0h40v-50h-40v50zM550 50h40v-50h-40v50zM500 100h40v-50h-40v50zM550 150h40v-50h-40v50zM500 200h40v-50h-40v50zM550 250h40v-50h-40v50zM500 300h40v-50h-40v50zM550 350h40v-50h-40v50z
M500 400h40v-50h-40v50zM550 450h40v-50h-40v50zM500 500h40v-50h-40v50zM550 550h40v-50h-40v50zM500 600h40v-50h-40v50zM550 650h40v-50h-40v50zM500 700h40v-50h-40v50zM550 750h40v-50h-40v50zM500 800h40v-50h-40v50zM550 850h40v-50h-40v50zM600 -200h40v-50h-40v50z
M650 -150h40v-50h-40v50zM600 -100h40v-50h-40v50zM650 -50h40v-50h-40v50zM600 0h40v-50h-40v50zM650 50h40v-50h-40v50zM600 100h40v-50h-40v50zM650 150h40v-50h-40v50zM600 200h40v-50h-40v50zM650 250h40v-50h-40v50zM600 300h40v-50h-40v50zM650 350h40v-50h-40v50z
M600 400h40v-50h-40v50zM650 450h40v-50h-40v50zM600 500h40v-50h-40v50zM650 550h40v-50h-40v50zM600 600h40v-50h-40v50zM650 650h40v-50h-40v50zM600 700h40v-50h-40v50zM650 750h40v-50h-40v50zM600 800h40v-50h-40v50zM650 850h40v-50h-40v50z" />
    <glyph glyph-name="darkshade" unicode="&#x2593;" 
d="M0 -185h45v-65h-45v65zM50 -135h45v-65h-45v65zM0 -85h45v-65h-45v65zM50 -35h45v-65h-45v65zM0 15h45v-65h-45v65zM50 65h45v-65h-45v65zM0 115h45v-65h-45v65zM50 165h45v-65h-45v65zM0 215h45v-65h-45v65zM50 265h45v-65h-45v65zM0 315h45v-65h-45v65zM50 365h45v-65
h-45v65zM0 415h45v-65h-45v65zM50 465h45v-65h-45v65zM0 515h45v-65h-45v65zM50 565h45v-65h-45v65zM0 615h45v-65h-45v65zM50 665h45v-65h-45v65zM0 715h45v-65h-45v65zM50 765h45v-65h-45v65zM0 815h45v-65h-45v65zM50 865h45v-65h-45v65zM100 -185h45v-65h-45v65z
M150 -135h45v-65h-45v65zM100 -85h45v-65h-45v65zM150 -35h45v-65h-45v65zM100 15h45v-65h-45v65zM150 65h45v-65h-45v65zM100 115h45v-65h-45v65zM150 165h45v-65h-45v65zM100 215h45v-65h-45v65zM150 265h45v-65h-45v65zM100 315h45v-65h-45v65zM150 365h45v-65h-45v65z
M100 415h45v-65h-45v65zM150 465h45v-65h-45v65zM100 515h45v-65h-45v65zM150 565h45v-65h-45v65zM100 615h45v-65h-45v65zM150 665h45v-65h-45v65zM100 715h45v-65h-45v65zM150 765h45v-65h-45v65zM100 815h45v-65h-45v65zM150 865h45v-65h-45v65zM200 -185h45v-65h-45v65z
M250 -135h45v-65h-45v65zM200 -85h45v-65h-45v65zM250 -35h45v-65h-45v65zM200 15h45v-65h-45v65zM250 65h45v-65h-45v65zM200 115h45v-65h-45v65zM250 165h45v-65h-45v65zM200 215h45v-65h-45v65zM250 265h45v-65h-45v65zM200 315h45v-65h-45v65zM250 365h45v-65h-45v65z
M200 415h45v-65h-45v65zM250 465h45v-65h-45v65zM200 515h45v-65h-45v65zM250 565h45v-65h-45v65zM200 615h45v-65h-45v65zM250 665h45v-65h-45v65zM200 715h45v-65h-45v65zM250 765h45v-65h-45v65zM200 815h45v-65h-45v65zM250 865h45v-65h-45v65zM300 -185h45v-65h-45v65z
M350 -135h45v-65h-45v65zM300 -85h45v-65h-45v65zM350 -35h45v-65h-45v65zM300 15h45v-65h-45v65zM350 65h45v-65h-45v65zM300 115h45v-65h-45v65zM350 165h45v-65h-45v65zM300 215h45v-65h-45v65zM350 265h45v-65h-45v65zM300 315h45v-65h-45v65zM350 365h45v-65h-45v65z
M300 415h45v-65h-45v65zM350 465h45v-65h-45v65zM300 515h45v-65h-45v65zM350 565h45v-65h-45v65zM300 615h45v-65h-45v65zM350 665h45v-65h-45v65zM300 715h45v-65h-45v65zM350 765h45v-65h-45v65zM300 815h45v-65h-45v65zM350 865h45v-65h-45v65zM400 -185h45v-65h-45v65z
M450 -135h45v-65h-45v65zM400 -85h45v-65h-45v65zM450 -35h45v-65h-45v65zM400 15h45v-65h-45v65zM450 65h45v-65h-45v65zM400 115h45v-65h-45v65zM450 165h45v-65h-45v65zM400 215h45v-65h-45v65zM450 265h45v-65h-45v65zM400 315h45v-65h-45v65zM450 365h45v-65h-45v65z
M400 415h45v-65h-45v65zM450 465h45v-65h-45v65zM400 515h45v-65h-45v65zM450 565h45v-65h-45v65zM400 615h45v-65h-45v65zM450 665h45v-65h-45v65zM400 715h45v-65h-45v65zM450 765h45v-65h-45v65zM400 815h45v-65h-45v65zM450 865h45v-65h-45v65zM500 -185h45v-65h-45v65z
M550 -135h45v-65h-45v65zM500 -85h45v-65h-45v65zM550 -35h45v-65h-45v65zM500 15h45v-65h-45v65zM550 65h45v-65h-45v65zM500 115h45v-65h-45v65zM550 165h45v-65h-45v65zM500 215h45v-65h-45v65zM550 265h45v-65h-45v65zM500 315h45v-65h-45v65zM550 365h45v-65h-45v65z
M500 415h45v-65h-45v65zM550 465h45v-65h-45v65zM500 515h45v-65h-45v65zM550 565h45v-65h-45v65zM500 615h45v-65h-45v65zM550 665h45v-65h-45v65zM500 715h45v-65h-45v65zM550 765h45v-65h-45v65zM500 815h45v-65h-45v65zM550 865h45v-65h-45v65zM600 -185h45v-65h-45v65z
M650 -135h45v-65h-45v65zM600 -85h45v-65h-45v65zM650 -35h45v-65h-45v65zM600 15h45v-65h-45v65zM650 65h45v-65h-45v65zM600 115h45v-65h-45v65zM650 165h45v-65h-45v65zM600 215h45v-65h-45v65zM650 265h45v-65h-45v65zM600 315h45v-65h-45v65zM650 365h45v-65h-45v65z
M600 415h45v-65h-45v65zM650 465h45v-65h-45v65zM600 515h45v-65h-45v65zM650 565h45v-65h-45v65zM600 615h45v-65h-45v65zM650 665h45v-65h-45v65zM600 715h45v-65h-45v65zM650 765h45v-65h-45v65zM600 815h45v-65h-45v65zM650 865h45v-65h-45v65z" />
    <glyph glyph-name="upeighthblock" unicode="&#x2594;" 
d="M0 850h700v-138h-700v138z" />
    <glyph glyph-name="righteighthblock" unicode="&#x2595;" 
d="M612 850h88v-1100h-88v1100z" />
    <glyph glyph-name="dnleftquadrant" unicode="&#x2596;" 
d="M0 300h350v-550h-350v550z" />
    <glyph glyph-name="dnrightquadrant" unicode="&#x2597;" 
d="M350 300h350v-550h-350v550z" />
    <glyph glyph-name="upleftquadrant" unicode="&#x2598;" 
d="M0 850h350v-550h-350v550z" />
    <glyph glyph-name="upleftdnleftdnrightquadrant" unicode="&#x2599;" 
d="M0 850h350v-550h350v-550h-700v1100z" />
    <glyph glyph-name="upleftdnrightquadrant" unicode="&#x259a;" 
d="M0 850h350v-550h350v-550h-350v550h-350v550z" />
    <glyph glyph-name="upleftuprightdnleftquadrant" unicode="&#x259b;" 
d="M0 850h700v-550h-350v-550h-350v1100z" />
    <glyph glyph-name="upleftuprightdnrightquadrant" unicode="&#x259c;" 
d="M0 850h700v-1100h-350v550h-350v550z" />
    <glyph glyph-name="uprightquadrant" unicode="&#x259d;" 
d="M350 850h350v-550h-350v550z" />
    <glyph glyph-name="uprightdnleftquadrant" unicode="&#x259e;" 
d="M0 300h350v-550h-350v550zM350 850h350v-550h-350v550z" />
    <glyph glyph-name="uprightdnleftdnrightquadrant" unicode="&#x259f;" 
d="M0 300h350v550h350v-1100h-700v550z" />
    <glyph glyph-name="blacksquare" unicode="&#x25a0;" 
d="M50 700h600v-600h-600v600z" />
    <glyph glyph-name="H22073" unicode="&#x25a1;" 
d="M65 100v600h570v-600h-570zM135 163h430v474h-430v-474z" />
    <glyph glyph-name="blacksmallsquare" unicode="&#x25aa;" 
d="M204 546h292v-292h-292v292z" />
    <glyph glyph-name="whitesmallsquare" unicode="&#x25ab;" 
d="M527 214h-354v372h354v-372zM235 273h230v254h-230v-254z" />
    <glyph glyph-name="triagup" unicode="&#x25b2;" 
d="M360 700l240 -480v-20h-500v20l240 480h20z" />
    <glyph glyph-name="blackrightpointingpointer" unicode="&#x25ba;" 
d="M600 440l-480 -240h-20v500h20l480 -240v-20z" />
    <glyph glyph-name="blackdownpointingtriangle" unicode="&#x25bc;" 
d="M340 150l-240 480v20h500v-20l-240 -480h-20z" />
    <glyph glyph-name="triaglf" unicode="&#x25c4;" 
d="M100 460l480 240h20v-500h-20l-480 240v20z" />
    <glyph glyph-name="lozenge" unicode="&#x25ca;" 
d="M314 0l-259 400l259 400h64l268 -400l-268 -400h-64zM348 49l233 351l-233 351l-223 -351z" />
    <glyph glyph-name="circle" unicode="&#x25cb;" 
d="M352 86q-131 0 -216 89t-85 226t85 226.5t216 89.5q130 0 215 -89.5t85 -226.5t-85 -226t-215 -89zM352 148q101 0 165.5 70.5t64.5 182.5t-64.5 183t-165.5 71q-103 0 -167 -71t-64 -183t64 -182.5t167 -70.5z" />
    <glyph glyph-name="H18533" unicode="&#x25cf;" 
d="M352 86q-137 0 -226.5 89t-89.5 226t89.5 226.5t226.5 89.5t226 -89.5t89 -226.5t-89 -226t-226 -89z" />
    <glyph glyph-name="whitebullet" unicode="&#x25e6;" 
d="M552 362q0 -81 -54 -123.5t-147 -42.5q-96 0 -149 42.5t-53 123.5v72q0 81 53.5 125t148.5 44q96 0 148.5 -44t52.5 -125v-72zM351 255q55 0 97 23t42 84v72q0 62 -41 86t-98 24t-98.5 -24t-41.5 -86v-72q0 -61 42 -84t98 -23z" />
    <glyph glyph-name="uni2619" unicode="&#x2619;" 
d="M663 373l-61 2q4 71 -25 110t-84 39h-281q-92 0 -130 51t-34 149l62 -2q-5 -69 16.5 -102t80.5 -33h85v89q0 86 54.5 133t156.5 47l11 -60q-83 0 -119.5 -28.5t-36.5 -106.5v-74h136q78 0 128 -54.5t41 -159.5zM248 -218q-122 0 -176 59.5t-52 142.5l64 -3
q0 -65 30.5 -96.5t80.5 -31.5q37 0 53 24t16 65v38l-193 215v92q0 74 31 119t102 45h13l116 -268h22v253h43q70 0 107 -31t37 -111v-188q0 -143 -81.5 -233.5t-212.5 -90.5z" />
    <glyph glyph-name="female" unicode="&#x2640;" 
d="M383 -200h-66v215h-202v63h202v175q-110 13 -178 89.5t-68 187.5q0 122 78.5 201t200.5 79t201 -79t79 -201q0 -111 -68.5 -187.5t-178.5 -89.5v-175h202v-63h-202v-215zM350 313q95 0 153 60t58 157q0 98 -58 158t-153 60q-94 0 -152 -59.5t-58 -158.5q0 -97 58 -157
t152 -60z" />
    <glyph glyph-name="male" unicode="&#x2642;" 
d="M560 260q0 -122 -79 -201t-201 -79t-201 79t-79 201t79 201t201 79q39 0 74.5 -8.5t67.5 -24.5l200 234h-291v59h394v-399h-59v308l-196 -236q42 -39 66 -93.5t24 -119.5zM280 43q94 0 152 60t58 157t-58 157t-152 60t-152 -59.5t-58 -157.5q0 -97 58 -157t152 -60z" />
    <glyph glyph-name="spade" unicode="&#x2660;" 
d="M520 90v-90h-340v90h120l13 260h-27l-56 -150h-53q-74 0 -110.5 47t-36.5 109v92l283 352h74l283 -352v-92q0 -62 -36.5 -109t-110.5 -47h-53l-56 150h-27l13 -260h120z" />
    <glyph glyph-name="club" unicode="&#x2663;" 
d="M208 603q0 82 37.5 144.5t104.5 62.5t104.5 -62.5t37.5 -144.5l-69 -106l26 -28q26 34 52 53t54 19q50 0 90.5 -41t40.5 -114q0 -81 -57.5 -142t-149.5 -61l-49 172h-41l11 -265h122v-90h-344v90h122l11 265h-41l-49 -172q-92 0 -149.5 57t-57.5 146q0 73 42.5 110.5
t92.5 37.5q29 0 54.5 -17t47.5 -48l26 28z" />
    <glyph glyph-name="heart" unicode="&#x2665;" 
d="M293 0l-243 422l-20 172q-10 82 30 144t112 62q69 0 111.5 -54.5t52.5 -175.5h28q10 119 60.5 174.5t113.5 55.5q66 0 104 -62t28 -144l-20 -172l-243 -422h-114z" />
    <glyph glyph-name="diamond" unicode="&#x2666;" 
d="M292 0l-253 400l253 400h106l262 -400l-262 -400h-106z" />
    <glyph glyph-name="musicalnote" unicode="&#x266a;" 
d="M540 431q0 41 -19 65t-47 41q-28 18 -59 35.5t-55 47.5v-468q0 -72 -53 -117t-130 -45q-69 0 -101 32t-32 78t44 87t121 41h71v582h67q4 -44 50 -73t98 -61t95.5 -77.5t43.5 -121.5q0 -77 -35.5 -129t-80.5 -91l-51 57q29 24 51 52t22 65z" />
    <glyph glyph-name="checkmark" unicode="&#x2713;" 
d="M228 0l-199 486h70l170 -432q51 199 134.5 388t201.5 358h67q-122 -184 -214.5 -385.5t-146.5 -414.5h-83z" />
    <glyph glyph-name="uni2767" unicode="&#x2767;" 
d="M30 373q-9 105 41 159.5t128 54.5h136v74q0 78 -36.5 106.5t-119.5 28.5l11 60q102 0 156.5 -47t54.5 -133v-89h85q59 0 80 33t17 102l62 2q4 -98 -34.5 -149t-129.5 -51h-281q-55 0 -84.5 -39t-24.5 -110zM445 -218q-131 0 -212.5 90.5t-81.5 233.5v188q0 80 37 111
t107 31h43v-253h22l116 268h13q71 0 102 -45t31 -119v-92l-193 -215v-38q0 -41 16 -65t53 -24q49 0 80 31.5t31 96.5l64 3q2 -84 -52.5 -143t-175.5 -59z" />
    <glyph glyph-name="commaaccent" unicode="&#xf6c3;" 
d="M228 -100zM228 -300l96 200h108l-143 -200h-61z" />
    <glyph glyph-name="apple" unicode="&#x1f41b;" 
d="M604 542h84v-41h-84l-194 -25l47 -58h147l46 -116l32 -58l-35 -16l-34 61l-37 89h-102l15 -160h74l14 -219l30 -71l-35 -18l-36 86l-12 176h-37l-86 -208h-102l-87 208h-38l-10 -176l-37 -86l-36 18l30 71l14 219h75l15 160h-103l-36 -89l-35 -61l-34 16l32 58l46 116
h147l47 58l-194 25h-84v41h84l204 -26v43l-40 22v51l62 14v21l-126 59l-60 13l2 39l58 -10l155 -71l156 71l56 10l2 -39l-58 -13l-129 -59v-21l63 -14v-51l-39 -22v-43z" />
    <glyph glyph-name="apple" unicode="&#xf8ff;" 
d="M604 542h84v-41h-84l-194 -25l47 -58h147l46 -116l32 -58l-35 -16l-34 61l-37 89h-102l15 -160h74l14 -219l30 -71l-35 -18l-36 86l-12 176h-37l-86 -208h-102l-87 208h-38l-10 -176l-37 -86l-36 18l30 71l14 219h75l15 160h-103l-36 -89l-35 -61l-34 16l32 58l46 116
h147l47 58l-194 25h-84v41h84l204 -26v43l-40 22v51l62 14v21l-126 59l-60 13l2 39l58 -10l155 -71l156 71l56 10l2 -39l-58 -13l-129 -59v-21l63 -14v-51l-39 -22v-43z" />
    <glyph glyph-name="cyrillicbrevecmb" horiz-adv-x="0" 
d="M0 693q-86 0 -145.5 45.5t-60.5 157.5l70 7q2 -82 33 -117t103 -35t103 35t33 117l70 -7q-1 -112 -60.5 -157.5t-145.5 -45.5z" />
    <glyph glyph-name="dieresistonoscmb" horiz-adv-x="0" 
d="M-58 700l58 200h84l-93 -200h-49zM-175 712q-19 0 -31 9.5t-12 35.5v7q0 27 12 37t31 10t31 -10t12 -37v-7q0 -26 -12 -35.5t-31 -9.5zM175 712q-19 0 -31 9.5t-12 35.5v7q0 27 12 37t31 10t31 -10t12 -37v-7q0 -26 -12 -35.5t-31 -9.5z" />
    <glyph glyph-name="tonoscmb" horiz-adv-x="0" 
d="M-62 700l82 200h104l-129 -200h-57z" />
    <glyph glyph-name="space.frac" 
 />
    <glyph glyph-name="caroncmb.salt" horiz-adv-x="0" 
d="M-96 535l81 265h99l-126 -265h-54z" />
    <glyph glyph-name="space.scrap_001" 
 />
    <glyph glyph-name="space.scrap_002" 
 />
    <glyph glyph-name="uniE0A0" unicode="&#xe0a0;" 
d="M150 215v805h64v-753zM150 -56q0 35 6 61.5t18 48.5t30.5 39.5t44.5 34.5l161 104q20 13 33 25.5t20.5 27t10 32t2.5 40.5v181h-121l152 166l148 -166h-120v-182q0 -34 -5 -59t-15.5 -45.5t-27.5 -36.5t-41 -32l-160 -106q-21 -14 -34 -27.5t-20 -29t-9.5 -33.5t-2.5 -42
v-245h-70v244z" />
    <glyph glyph-name="uniE0A1" unicode="&#xe0a1;" 
d="M448 345h-302v500h63v-444h239v-56zM555 258v-500h-53l-208 379v-379h-58v500h54l207 -382v382h58z" />
    <glyph glyph-name="uniE0A2" unicode="&#xe0a2;" 
d="M210 512h280v125q0 104 -99 104h-77q-104 0 -104 -104v-125zM69 512h85v127q0 79 40.5 117t117.5 38h75q78 0 118.5 -38t40.5 -117v-127h85v-562h-562v562zM289 82l18 128q-20 10 -31 32.5t-11 45.5q0 17 6.5 32.5t18 27t27 18t33.5 6.5q36 0 60.5 -24.5t24.5 -59.5
q0 -23 -11.5 -46t-31.5 -33l19 -127h-122zM128 6h444v450h-444v-450z" />
    <glyph glyph-name="uniE0B0" unicode="&#xe0b0;" 
d="M0 1175l740 -725l-740 -725h-10v1450h10z" />
    <glyph glyph-name="uniE0B1" unicode="&#xe0b1;" 
d="M675 484v-68l-724 709l49 50l740 -725l-740 -725l-49 50z" />
    <glyph glyph-name="uniE0B2" unicode="&#xe0b2;" 
d="M710 -275h-10l-740 725l740 725h10v-1450z" />
    <glyph glyph-name="uniE0B3" unicode="&#xe0b3;" 
d="M700 -275l-740 725l740 725l49 -50l-724 -709v68l724 -709z" />
    <glyph glyph-name="uni26A1" unicode="&#x26a1;" 
d="M163 -154l283 495l7 -10l-314 -65l-25 33l339 552l39 -18l-257 -493l-7 11l313 67l24 -33l-364 -559z" />
    <glyph glyph-name="uni2000" unicode="&#x2000;" 
 />
    <glyph glyph-name="uni2001" unicode="&#x2001;" 
 />
    <glyph glyph-name="uni2002" unicode="&#x2002;" 
 />
    <glyph glyph-name="uni2003" unicode="&#x2003;" 
 />
    <glyph glyph-name="uni2004" unicode="&#x2004;" 
 />
    <glyph glyph-name="uni2005" unicode="&#x2005;" 
 />
    <glyph glyph-name="uni2007" unicode="&#x2007;" 
 />
    <glyph glyph-name="uni2009" unicode="&#x2009;" 
 />
    <glyph glyph-name="uni200A" unicode="&#x200a;" 
 />
    <glyph glyph-name="uniFEFF" unicode="&#xfeff;" horiz-adv-x="0" 
 />
    <glyph glyph-name="uni200B" unicode="&#x200b;" horiz-adv-x="0" 
 />
    <glyph glyph-name="zero.sinf" unicode="&#x2080;" 
d="M160 0zM350 -6q-96 0 -143 55.5t-47 159.5v75q0 105 47.5 161.5t143.5 56.5t143 -56.5t47 -161.5v-75q0 -104 -47.5 -159.5t-143.5 -55.5zM350 46q68 0 97 39.5t29 132.5v57q0 95 -29 135t-97 40t-97 -40t-29 -135v-57q0 -93 29 -132.5t97 -39.5z" />
    <glyph glyph-name="one.sinf" unicode="&#x2081;" 
d="M201 0zM214 0v53h136v358h-9q-12 -40 -49.5 -64t-84.5 -25l-6 55q47 2 92.5 30.5t58.5 88.5h61v-443h124v-53h-323z" />
    <glyph glyph-name="two.sinf" unicode="&#x2082;" 
d="M164 0zM164 0v104q0 55 26 90t90 48l109 22q45 10 62 27t17 53v19q0 45 -26 66t-92 21t-89 -20t-27 -73l-65 5q4 72 45.5 106t135.5 34q96 0 138 -34.5t42 -101.5v-34q0 -49 -28 -78.5t-86 -41.5l-108 -22q-43 -9 -62 -26t-19 -59v-52h310v-53h-373z" />
    <glyph glyph-name="three.sinf" unicode="&#x2083;" 
d="M151 0zM342 -6q-102 0 -144.5 32.5t-46.5 98.5l64 5q5 -46 27 -64.5t100 -18.5q71 0 98.5 21.5t27.5 68.5v16q0 43 -27.5 62.5t-96.5 19.5h-68v52h68q60 0 86 14.5t26 49.5v20q0 43 -29 60.5t-89 17.5q-56 0 -81 -16.5t-29 -56.5l-65 5q5 65 46.5 93t128.5 28
t133.5 -28.5t46.5 -96.5v-16q0 -41 -22 -64.5t-58 -27.5v-12q41 -3 67 -32.5t26 -75.5v-14q0 -73 -45.5 -107t-143.5 -34z" />
    </font>
</defs>
</svg>
